{"glyphs":{"0":{"ha":738,"x_min":19,"x_max":694,"o":"m 296 758 q 198 606 228 713 q 183 384 168 499 q 250 195 198 269 q 395 145 312 109 q 483 225 445 167 q 525 338 521 283 q 528 389 525 346 q 532 441 532 433 q 533 486 532 450 q 532 533 534 521 q 527 574 530 545 q 517 621 524 604 q 502 663 511 639 q 479 712 492 688 q 397 775 453 761 q 296 758 342 789 m 233 913 q 551 887 431 1002 q 654 671 625 817 q 680 302 694 456 q 583 50 663 136 q 408 -38 515 -22 q 183 20 285 -57 q 78 170 117 71 q 33 389 39 269 q 85 742 19 587 q 233 913 141 872 z "},"1":{"ha":760,"x_min":38,"x_max":705,"o":"m 104 575 q 47 661 57 604 q 75 758 38 718 q 130 815 106 793 q 170 847 155 837 q 219 879 184 857 q 283 921 254 901 q 388 941 320 948 q 458 891 456 933 q 465 793 460 868 q 470 697 469 719 q 474 614 471 675 q 478 527 477 553 q 479 449 479 500 q 479 361 480 397 q 477 278 479 326 q 473 183 476 231 q 621 167 543 178 q 696 96 680 159 q 697 37 705 68 q 662 0 689 5 q 509 -16 586 -16 q 338 -8 433 -16 q 183 0 243 0 q 109 20 141 0 q 62 71 77 41 q 77 132 49 100 q 151 171 104 164 q 301 186 225 183 q 293 681 285 387 q 235 633 278 671 q 160 578 193 594 q 104 575 127 562 z "},"2":{"ha":666,"x_min":39,"x_max":646,"o":"m 220 796 q 175 711 190 773 q 132 625 160 650 q 96 627 118 613 q 59 671 75 642 q 45 730 43 701 q 161 971 56 921 q 481 933 342 1055 q 594 604 613 819 q 490 337 582 457 q 244 163 399 217 q 528 159 467 163 q 613 98 579 155 q 618 14 644 43 q 594 0 609 4 q 364 -29 460 -28 q 119 0 269 -30 q 66 20 84 8 q 43 60 47 33 q 43 111 39 87 q 57 191 46 136 q 104 252 62 214 q 197 328 146 290 q 302 418 248 365 q 378 521 355 472 q 399 700 412 594 q 317 829 384 815 q 220 796 275 837 z "},"3":{"ha":692,"x_min":8,"x_max":663,"o":"m 178 684 q 104 682 141 669 q 53 731 66 696 q 94 920 8 861 q 250 989 174 974 q 420 986 326 1004 q 629 817 567 958 q 645 650 663 747 q 560 513 627 553 q 617 465 597 492 q 659 316 663 400 q 622 159 654 232 q 548 42 590 85 q 452 -14 503 -3 q 323 -18 401 -24 q 94 81 174 -4 q 52 285 14 167 q 106 340 64 324 q 187 339 149 357 q 215 309 213 328 q 205 271 217 290 q 192 229 194 252 q 206 187 190 206 q 372 159 298 95 q 434 302 427 209 q 382 441 442 403 q 372 446 377 444 q 307 453 353 456 q 250 469 260 450 q 218 529 224 496 q 233 591 213 562 q 259 597 237 597 q 312 600 281 597 q 368 617 343 604 q 438 680 412 643 q 465 751 464 716 q 433 810 467 785 q 334 834 399 834 q 250 800 279 834 q 205 728 220 766 q 178 684 191 689 z "},"4":{"ha":796,"x_min":27,"x_max":757,"o":"m 233 487 q 423 490 358 490 q 433 883 420 692 q 487 987 437 955 q 575 979 532 1019 q 588 965 583 972 q 595 946 593 958 q 597 930 597 935 q 599 907 598 925 q 600 887 600 890 q 607 694 601 831 q 614 486 613 556 q 651 484 627 486 q 688 483 675 483 q 739 438 720 481 q 749 351 757 395 q 708 308 741 308 q 662 306 693 307 q 616 305 631 305 q 609 100 613 174 q 551 0 605 35 q 458 0 488 -41 q 439 38 445 18 q 432 71 433 58 q 432 113 431 84 q 433 155 433 141 q 429 302 431 229 q 183 317 279 302 q 157 321 176 319 q 132 325 137 324 q 113 329 127 326 q 96 335 99 332 q 82 342 92 338 q 69 353 72 347 q 60 368 66 359 q 52 388 54 377 q 47 413 50 399 q 41 446 43 427 q 31 567 34 492 q 40 821 27 697 q 75 967 53 945 q 141 996 102 994 q 209 975 180 998 q 236 889 231 959 q 237 680 241 819 q 233 487 232 540 z "},"5":{"ha":671,"x_min":27,"x_max":643,"o":"m 125 998 q 199 1003 146 1000 q 275 1007 251 1006 q 347 1008 300 1008 q 426 1007 393 1009 q 503 1000 458 1005 q 590 986 547 996 q 633 939 624 979 q 620 869 643 898 q 460 833 595 840 q 229 841 326 826 q 232 729 235 830 q 229 606 229 628 l 229 600 q 277 603 243 605 q 323 600 311 601 q 371 593 335 598 q 425 586 407 589 q 566 507 513 575 q 627 346 620 439 q 579 63 639 145 q 351 -27 519 -19 q 207 -16 275 -31 q 104 30 138 0 q 46 167 27 95 q 159 229 61 224 q 235 200 179 231 q 321 161 290 170 q 418 189 374 146 q 469 291 463 231 q 446 407 476 351 q 366 460 420 446 q 258 470 311 475 q 155 470 206 465 q 83 499 103 475 q 68 528 73 510 q 60 576 62 547 q 58 625 58 606 q 58 684 57 644 q 58 736 58 724 q 125 998 58 994 z "},"6":{"ha":755,"x_min":34,"x_max":722,"o":"m 288 312 q 387 233 327 254 q 517 233 448 213 q 585 296 566 248 q 595 404 604 343 q 557 474 590 448 q 479 500 524 500 q 307 434 362 500 q 288 312 251 368 m 326 959 q 463 959 396 990 q 537 854 547 918 q 507 804 533 826 q 447 763 481 781 q 377 724 412 745 q 314 667 342 703 q 279 583 286 631 q 328 598 286 585 q 379 614 370 612 q 421 623 388 616 q 471 627 454 629 q 513 618 487 624 q 563 600 538 612 q 688 457 655 551 q 702 265 722 363 q 625 79 682 167 q 516 6 595 31 q 350 -19 437 -19 q 133 92 213 -19 q 38 467 43 218 q 151 804 34 643 q 326 959 228 913 z "},"7":{"ha":760,"x_min":46,"x_max":713,"o":"m 680 662 q 627 487 665 616 q 571 309 589 358 q 511 171 553 260 q 412 0 468 81 q 327 -37 377 -41 q 229 0 277 -34 q 214 25 216 9 q 216 53 212 41 q 231 87 221 65 q 245 121 241 110 q 369 431 283 225 q 502 780 454 636 q 243 766 370 757 q 247 684 252 738 q 221 604 241 629 q 132 586 191 568 q 66 650 72 604 q 58 716 64 670 q 49 789 52 762 q 47 854 46 815 q 58 925 49 892 q 97 968 68 960 q 181 969 126 977 q 258 963 236 962 q 330 968 274 964 q 413 972 387 971 q 484 973 439 972 q 566 970 529 974 q 637 959 602 966 q 699 892 684 949 q 705 776 713 836 q 680 662 697 716 z "},"8":{"ha":692,"x_min":19,"x_max":669,"o":"m 336 382 q 217 245 221 380 q 257 170 216 195 q 355 148 298 145 q 456 188 418 151 q 494 271 494 225 q 453 351 494 319 q 336 382 412 384 m 372 593 q 448 640 420 601 q 472 724 475 678 q 431 802 468 776 q 345 825 393 827 q 265 798 300 822 q 221 735 231 774 q 247 626 205 674 q 372 593 289 578 m 600 873 q 633 807 623 844 q 645 645 665 738 q 560 513 625 552 q 617 465 597 492 q 659 243 669 396 q 587 49 650 91 q 431 -20 507 -5 q 260 -18 355 -35 q 81 94 141 4 q 47 160 62 117 q 33 276 31 213 q 60 401 34 339 q 130 490 87 464 q 73 538 95 509 q 28 672 38 586 q 38 827 19 758 q 83 909 52 880 q 170 963 115 939 q 420 986 279 1012 q 600 873 538 964 z "},"9":{"ha":713,"x_min":35,"x_max":704,"o":"m 300 833 m 296 837 q 227 809 255 838 q 187 734 198 780 q 214 599 165 647 q 330 551 263 551 q 436 598 395 551 q 471 720 477 646 q 416 805 467 777 q 296 837 365 833 m 392 0 q 313 -33 357 -30 q 245 0 270 -35 q 229 97 218 47 q 283 183 240 146 q 361 281 316 212 q 446 441 407 351 q 342 404 404 414 q 210 414 270 393 q 113 477 151 434 q 55 578 75 521 q 39 700 35 635 q 71 825 43 765 q 362 979 148 990 q 532 928 461 974 q 633 796 604 882 q 621 358 704 590 q 392 0 538 126 z "}," ":{"ha":438,"x_min":0,"x_max":0,"o":""},"!":{"ha":368,"x_min":34,"x_max":327,"o":"m 62 191 q 199 245 92 260 q 316 155 296 232 q 313 66 327 114 q 267 0 300 19 q 96 20 186 -50 q 48 99 57 52 q 62 191 39 146 m 58 475 q 46 637 58 541 q 34 809 34 732 q 58 967 34 886 q 126 1019 71 1010 q 217 996 182 1027 q 236 977 228 987 q 251 960 244 967 q 263 939 258 952 q 272 920 269 926 q 279 897 275 913 q 283 875 282 880 q 286 850 285 869 q 288 827 288 831 q 290 801 289 823 q 292 774 292 779 q 294 587 300 722 q 288 400 288 453 q 255 328 288 350 q 180 310 222 305 q 100 338 137 315 q 58 475 58 363 z "},"\"":{"ha":663,"x_min":47,"x_max":616,"o":"m 354 720 q 304 805 308 750 q 322 912 300 860 q 384 1017 345 964 q 476 1059 422 1059 q 583 1025 530 1059 q 614 962 616 1001 q 587 887 613 922 q 559 847 578 873 q 528 804 540 821 q 498 766 517 788 q 465 732 480 743 q 431 712 449 722 q 393 705 412 703 q 354 720 374 708 m 54 788 q 50 880 52 838 q 62 960 47 921 q 113 1029 77 1000 q 227 1059 156 1069 q 304 996 298 1050 q 300 943 307 968 q 286 901 293 917 q 256 861 279 886 q 223 828 232 836 q 178 792 214 821 q 137 758 142 764 q 87 752 118 742 q 54 788 56 762 z "},"#":{"ha":943,"x_min":42,"x_max":907,"o":"m 491 545 q 428 534 458 559 q 396 475 397 510 q 418 421 395 441 q 487 384 442 401 q 529 382 505 374 q 555 408 553 389 q 491 545 557 518 m 279 523 q 272 542 279 523 q 233 583 266 562 q 165 610 201 605 q 96 646 130 616 q 89 694 73 666 q 137 730 104 722 q 203 707 170 736 q 271 688 237 678 q 291 702 285 692 q 300 730 297 712 q 308 758 304 749 q 334 833 315 772 q 384 921 353 895 q 442 936 407 940 q 483 905 477 932 q 470 836 490 872 q 433 766 450 800 q 429 700 416 732 q 493 645 445 658 q 579 658 541 632 q 618 716 609 678 q 637 795 628 754 q 671 859 646 836 q 738 878 697 883 q 788 842 779 873 q 777 773 798 810 q 739 702 755 736 q 738 637 722 667 q 779 608 754 609 q 825 614 803 608 q 879 595 846 621 q 906 534 905 572 q 879 483 907 496 q 798 484 840 465 q 716 491 755 502 q 671 450 685 483 q 680 396 658 416 q 771 368 715 366 q 863 338 827 369 q 883 271 890 315 q 842 221 876 228 q 751 249 798 212 q 658 271 704 286 q 619 231 628 262 q 604 163 610 201 q 575 104 597 125 q 534 77 557 88 q 490 67 511 65 q 458 88 468 69 q 478 176 442 121 q 500 263 514 231 q 448 296 488 294 q 380 275 408 297 q 349 203 355 258 q 316 133 342 149 q 231 108 281 107 q 171 146 182 109 q 180 202 163 174 q 221 250 198 231 q 257 296 244 270 q 254 346 270 323 q 215 377 237 370 q 173 378 193 384 q 124 374 153 373 q 71 388 95 374 q 42 444 42 403 q 71 496 42 484 q 123 501 98 509 q 167 479 149 494 q 210 458 184 465 q 263 467 236 452 q 279 523 292 484 z "},"$":{"ha":671,"x_min":23,"x_max":662,"o":"m 463 901 q 526 806 511 869 q 496 712 541 743 q 444 705 472 694 q 395 734 415 715 q 343 772 374 754 q 283 788 312 791 q 218 748 245 785 q 217 688 191 711 q 321 633 252 656 q 450 595 391 609 q 559 547 509 582 q 621 458 610 511 q 525 171 662 254 q 452 141 487 149 q 408 34 453 85 q 356 20 388 12 q 308 54 324 27 q 286 155 277 109 q 233 171 269 160 q 179 187 198 182 q 34 312 45 225 q 65 382 28 354 q 151 412 102 410 q 308 366 209 415 q 475 334 407 316 q 471 392 507 342 q 412 446 446 425 q 241 511 363 477 q 83 583 118 545 q 46 762 23 646 q 83 869 60 829 q 155 925 106 909 q 208 940 203 939 q 229 1034 197 993 q 294 1063 254 1062 q 354 1034 335 1065 q 369 941 380 990 q 463 901 420 928 z "},"%":{"ha":955,"x_min":28,"x_max":910,"o":"m 808 245 q 740 253 780 271 q 684 195 700 235 q 699 139 673 168 q 754 121 726 110 q 814 176 793 136 q 808 245 834 216 m 863 321 q 906 217 910 278 q 859 100 902 156 q 760 31 818 47 q 650 50 701 15 q 578 165 591 95 q 609 292 566 235 q 730 359 655 350 q 863 321 804 368 m 271 817 q 203 824 243 842 q 146 766 163 806 q 162 710 136 739 q 217 692 189 681 q 277 747 256 707 q 271 817 297 787 m 326 891 q 369 787 373 848 q 321 671 365 727 q 222 602 281 618 q 113 621 164 586 q 41 736 54 666 q 71 863 28 806 q 192 929 117 921 q 326 891 267 937 m 254 30 q 172 62 209 23 q 151 141 134 100 q 198 256 175 203 q 254 368 221 309 q 303 457 286 426 q 366 555 320 488 q 424 640 411 621 q 498 741 437 658 q 571 842 559 825 q 708 917 625 917 q 777 895 746 917 q 796 842 807 872 q 656 530 727 656 q 442 191 585 403 q 353 76 381 102 q 254 30 311 39 z "},"&":{"ha":742,"x_min":49,"x_max":699,"o":"m 213 859 q 342 808 305 861 q 370 732 368 769 q 342 667 373 696 q 283 664 319 651 q 223 691 248 677 q 167 684 198 705 q 130 599 130 650 q 167 513 130 548 q 227 498 189 491 q 293 515 264 505 q 354 500 321 525 q 370 473 368 488 q 363 439 373 458 q 346 407 354 419 q 321 374 338 395 q 259 345 307 355 q 205 308 212 335 q 283 217 191 248 q 346 200 321 205 q 400 200 370 195 q 454 225 430 205 q 492 284 487 252 q 486 358 498 316 q 453 369 483 369 q 416 380 423 369 q 416 513 366 491 q 545 534 490 541 q 671 491 601 528 q 697 441 699 473 q 671 380 696 408 q 608 374 656 362 q 574 193 606 275 q 563 163 571 174 q 366 50 507 72 q 243 47 300 38 q 133 96 187 57 q 78 153 90 129 q 64 233 66 176 q 85 331 62 290 q 156 414 109 372 q 90 477 104 460 q 63 531 75 494 q 50 637 52 568 q 55 732 49 697 q 88 804 61 768 q 213 859 127 856 z "},"'":{"ha":355,"x_min":34,"x_max":307,"o":"m 62 726 q 39 768 45 747 q 43 815 34 788 q 59 857 52 842 q 90 906 66 871 q 121 954 114 941 q 197 1000 145 994 q 279 971 248 1006 q 299 941 292 956 q 307 910 307 926 q 306 882 307 894 q 296 849 305 869 q 283 819 288 829 q 264 785 278 810 q 245 750 251 760 q 186 689 221 704 q 119 686 151 674 q 62 726 87 697 z "},"(":{"ha":602,"x_min":34,"x_max":567,"o":"m 380 0 q 130 195 225 68 q 42 500 34 323 q 57 654 46 586 q 92 787 68 722 q 151 899 115 852 q 241 980 186 945 q 370 1029 297 1015 q 463 1038 416 1043 q 541 1000 510 1034 q 562 955 567 978 q 536 916 556 932 q 484 879 517 899 q 418 842 450 859 q 357 799 387 825 q 316 746 327 773 q 280 458 255 600 q 406 221 305 317 q 450 181 423 203 q 493 144 476 159 q 528 111 510 130 q 552 75 545 91 q 558 40 559 60 q 545 0 557 20 q 515 -28 533 -20 q 471 -30 498 -35 q 428 -19 444 -24 q 380 0 412 -14 z "},")":{"ha":602,"x_min":35,"x_max":570,"o":"m 224 1008 q 474 812 378 940 q 562 507 570 685 q 539 318 556 400 q 486 163 522 236 q 387 43 450 90 q 232 -22 323 -4 q 139 -31 186 -35 q 61 7 92 -27 q 41 52 35 28 q 66 91 46 75 q 119 127 85 107 q 184 165 152 148 q 245 209 216 183 q 286 262 275 235 q 323 549 347 408 q 198 787 298 690 q 154 827 180 804 q 111 863 127 849 q 76 897 94 878 q 51 932 58 917 q 44 968 43 948 q 57 1008 45 987 q 87 1036 69 1028 q 132 1038 106 1043 q 175 1027 159 1032 q 224 1008 191 1021 z "},"*":{"ha":568,"x_min":35,"x_max":529,"o":"m 113 500 q 95 548 87 518 q 123 602 103 578 q 162 661 144 625 q 175 726 180 696 q 147 761 171 747 q 98 779 123 774 q 54 797 73 784 q 38 833 35 810 q 71 861 42 860 q 134 852 100 861 q 195 863 167 844 q 226 905 214 876 q 241 960 237 935 q 259 1002 245 985 q 296 1017 273 1020 q 326 979 324 1013 q 322 909 328 945 q 342 846 316 873 q 439 837 368 823 q 521 817 511 850 q 513 787 529 799 q 473 771 498 776 q 426 753 448 766 q 404 720 404 741 q 420 662 404 690 q 455 614 437 633 q 489 578 473 595 q 503 542 505 560 q 475 505 500 524 q 431 491 445 487 q 401 517 416 495 q 376 563 387 538 q 342 609 365 587 q 288 633 319 631 q 232 608 258 636 q 192 549 206 581 q 156 499 178 518 q 113 500 134 480 z "},"+":{"ha":571,"x_min":34,"x_max":540,"o":"m 378 425 q 372 331 377 410 q 353 286 369 304 q 311 267 336 269 q 259 269 279 266 q 220 285 239 271 q 198 323 202 298 q 190 414 193 355 q 125 415 149 414 q 58 458 81 416 q 42 544 34 499 q 85 600 50 586 q 179 612 121 613 q 191 611 183 612 q 202 610 198 610 q 208 700 208 665 q 249 777 209 749 q 340 787 289 806 q 380 739 377 773 q 382 613 382 642 q 393 614 385 613 q 404 616 401 616 q 461 618 437 618 q 504 605 486 618 q 529 562 522 591 q 516 477 540 518 q 450 431 492 437 q 414 428 439 430 q 378 425 389 426 z "},",":{"ha":392,"x_min":23,"x_max":372,"o":"m 300 187 q 340 98 370 180 q 222 -60 311 15 q 141 -113 180 -95 q 79 -83 103 -127 q 46 20 54 -39 q 100 183 23 182 l 300 187 z "},"-":{"ha":571,"x_min":34,"x_max":540,"o":"m 450 416 q 125 400 264 385 q 58 445 81 406 q 42 529 34 484 q 87 604 52 576 q 171 629 123 632 q 396 633 297 621 q 481 616 444 640 q 529 545 518 591 q 517 463 540 502 q 450 416 494 423 z "},".":{"ha":388,"x_min":34,"x_max":349,"o":"m 288 221 q 342 115 336 179 q 308 0 349 52 q 201 -47 266 -49 q 83 0 136 -45 q 40 71 46 30 q 47 144 34 113 q 83 205 60 175 q 172 254 114 245 q 288 221 231 262 z "},"/":{"ha":722,"x_min":24,"x_max":690,"o":"m 104 0 q 41 64 57 19 q 54 175 24 109 q 471 891 237 532 q 591 937 500 937 q 669 897 647 937 q 675 812 690 857 q 599 615 640 707 q 528 472 557 524 q 428 302 499 420 q 312 104 357 183 q 220 -1 266 24 q 104 0 175 -26 z "},":":{"ha":419,"x_min":30,"x_max":408,"o":"m 281 0 q 136 12 203 -38 q 49 140 69 61 q 70 248 34 199 q 170 316 106 296 q 288 317 228 338 q 363 240 349 297 q 281 0 408 64 m 285 400 q 159 392 217 373 q 66 472 102 411 q 42 599 30 532 q 111 704 54 666 q 349 644 258 799 q 372 504 389 579 q 285 400 355 429 z "},";":{"ha":392,"x_min":23,"x_max":372,"o":"m 300 187 q 340 98 370 180 q 222 -60 311 15 q 141 -113 180 -95 q 79 -83 103 -127 q 46 20 54 -39 q 100 183 23 182 l 300 187 m 300 548 q 355 443 350 506 q 321 328 361 380 q 214 281 279 279 q 96 328 149 283 q 54 399 60 358 q 60 471 47 439 q 96 532 73 502 q 185 581 127 572 q 300 548 243 589 z "},"<":{"ha":629,"x_min":31,"x_max":602,"o":"m 104 221 q 52 268 71 241 q 32 328 33 294 q 37 392 31 361 q 64 465 42 423 q 105 538 87 507 q 158 614 123 568 q 212 684 193 659 q 267 750 232 708 q 350 798 300 789 q 450 793 400 807 q 551 750 499 780 q 577 706 575 735 q 566 648 579 677 q 533 595 553 618 q 471 544 530 591 q 378 447 412 496 q 358 350 345 397 q 434 257 369 309 q 551 167 499 205 q 591 113 602 129 q 503 73 566 73 q 359 102 439 72 q 220 161 279 132 q 104 221 160 190 z "},"=":{"ha":606,"x_min":24,"x_max":568,"o":"m 509 528 q 361 507 434 511 q 230 507 288 503 q 83 507 172 511 q 37 549 50 506 q 41 637 24 593 q 96 682 57 682 q 223 686 157 684 q 314 688 289 688 q 387 686 339 688 q 513 678 435 684 q 550 642 540 677 q 548 570 560 606 q 509 528 536 533 m 517 256 q 392 240 444 240 q 280 246 340 240 q 155 248 220 252 q 50 304 80 244 q 56 392 26 354 q 113 419 75 418 q 323 420 286 422 q 521 407 359 419 q 558 370 548 406 q 556 298 568 335 q 517 256 544 262 z "},">":{"ha":633,"x_min":22,"x_max":593,"o":"m 519 655 q 572 608 553 635 q 592 549 591 582 q 587 484 593 515 q 559 411 582 453 q 519 338 537 369 q 466 262 500 308 q 412 193 431 217 q 357 126 392 168 q 274 78 324 87 q 174 83 224 69 q 73 126 125 96 q 47 170 49 141 q 58 228 45 199 q 91 279 71 256 q 134 318 98 288 q 202 377 171 349 q 255 448 233 406 q 266 526 277 490 q 190 619 255 567 q 73 709 125 671 q 33 764 22 747 q 121 804 58 803 q 264 774 184 804 q 404 715 345 745 q 519 655 464 686 z "},"?":{"ha":709,"x_min":31,"x_max":692,"o":"m 288 726 q 229 711 259 728 q 179 674 199 694 q 130 644 159 654 q 79 650 102 633 q 35 746 31 685 q 83 854 39 807 q 228 934 126 902 q 435 960 330 966 q 583 901 541 955 q 633 579 692 760 q 595 523 623 545 q 539 490 568 500 q 477 460 510 480 q 429 412 445 441 q 415 340 408 378 q 454 279 422 302 q 510 293 473 266 q 567 312 547 320 q 586 273 589 302 q 563 233 583 243 q 429 189 467 191 q 346 217 381 187 q 288 471 247 304 q 320 513 294 496 q 372 538 346 530 q 420 564 399 547 q 442 609 442 582 q 397 690 442 661 q 288 726 351 719 m 445 -22 q 428 -21 441 -22 q 411 -20 415 -20 q 395 -18 407 -19 q 380 -13 384 -16 q 367 -3 376 -9 q 355 12 358 3 q 347 33 351 20 q 342 62 343 45 q 342 99 342 79 q 377 149 343 137 q 452 155 411 160 q 504 134 483 151 q 526 88 525 117 q 507 12 528 47 q 445 -22 487 -23 z "},"@":{"ha":1259,"x_min":24,"x_max":1219,"o":"m 1034 346 q 759 302 922 285 q 491 396 595 320 q 429 509 435 437 q 471 633 423 582 q 543 674 500 666 q 623 673 586 682 q 712 642 661 663 q 763 602 746 628 q 781 554 780 576 q 789 512 783 532 q 812 487 796 492 q 933 496 887 464 q 991 591 979 528 q 981 724 1006 666 q 902 814 956 781 q 783 866 848 848 q 646 888 719 884 q 312 750 431 902 q 240 476 218 623 q 380 217 262 330 q 482 155 426 172 q 596 140 538 137 q 711 149 654 142 q 836 153 768 155 q 963 129 905 151 q 1002 60 1000 115 q 967 0 1004 5 q 893 -10 954 -1 q 819 -20 833 -19 q 753 -28 806 -22 q 685 -33 701 -34 q 624 -35 669 -33 q 558 -33 579 -37 q 498 -24 537 -28 q 430 -9 458 -19 q 366 13 401 0 q 296 42 331 26 q 84 312 163 106 q 35 520 45 415 q 53 725 24 625 q 151 887 81 825 q 417 1036 281 1004 q 746 1046 553 1069 q 1024 945 897 1028 q 1188 730 1152 863 q 1183 514 1219 616 q 1034 346 1147 412 m 621 575 q 550 533 566 571 q 558 460 534 495 q 621 429 582 426 q 676 470 655 431 q 684 545 697 509 q 621 575 671 581 z "},"A":{"ha":876,"x_min":42,"x_max":829,"o":"m 568 540 q 513 726 564 652 q 413 764 465 781 q 321 680 361 746 q 285 552 281 613 q 375 551 309 552 q 483 549 441 551 q 568 540 525 547 m 251 362 q 252 286 251 345 q 251 200 252 228 q 241 127 250 172 q 217 42 233 81 q 153 5 203 8 q 92 38 102 3 q 47 301 52 180 q 71 567 42 422 q 86 647 75 586 q 103 730 98 708 q 124 797 109 751 q 156 865 140 842 q 201 916 172 888 q 267 963 229 944 q 425 1008 345 1001 q 579 983 506 1015 q 696 883 652 952 q 786 690 754 791 q 823 476 818 589 q 823 271 829 363 q 800 46 818 178 q 751 -4 795 8 q 658 -1 707 -16 q 591 50 609 15 q 560 363 541 156 q 407 366 540 363 q 251 362 274 369 z "},"B":{"ha":854,"x_min":43,"x_max":802,"o":"m 688 463 q 729 387 713 419 q 756 317 745 355 q 766 241 768 279 q 750 163 765 203 q 671 56 726 92 q 529 0 617 20 q 394 -19 457 -18 q 278 -12 331 -20 q 146 20 225 -3 q 66 129 76 41 q 44 504 45 328 q 54 879 43 680 q 72 972 58 954 q 104 996 83 990 q 278 1015 209 1019 q 450 979 347 1010 q 514 962 472 972 q 577 944 556 951 q 631 924 598 937 q 683 896 663 910 q 724 858 703 882 q 758 804 745 834 q 783 620 802 712 q 688 463 765 528 m 541 350 q 279 374 430 449 q 231 298 236 353 q 263 209 227 243 q 525 155 396 90 q 580 246 575 180 q 541 350 585 312 m 267 600 q 401 578 296 581 q 545 604 507 576 q 578 711 590 646 q 513 812 566 776 q 388 848 453 853 q 267 796 323 844 q 221 696 222 758 q 267 600 220 633 z "},"C":{"ha":959,"x_min":28,"x_max":932,"o":"m 475 746 q 356 665 396 730 q 318 524 316 600 q 354 392 320 449 q 432 292 392 327 q 507 254 472 258 q 577 258 541 250 q 644 291 613 267 q 707 336 674 315 q 765 378 739 358 q 818 399 791 397 q 867 384 845 400 q 915 229 932 326 q 821 83 898 133 q 658 5 739 30 q 303 33 467 -54 q 75 316 140 119 q 39 580 28 441 q 129 821 50 719 q 298 944 202 914 q 545 975 393 974 q 730 942 651 977 q 879 829 808 907 q 888 739 911 792 q 817 675 865 685 q 703 688 761 665 q 588 734 646 711 q 475 746 530 757 z "},"D":{"ha":796,"x_min":37,"x_max":760,"o":"m 62 50 q 48 332 60 146 q 38 652 37 518 q 58 941 39 787 q 179 987 64 997 q 287 984 232 985 q 389 982 342 983 q 484 964 435 981 q 571 913 533 947 q 694 736 662 831 q 742 483 727 640 q 667 159 760 289 q 350 0 574 30 q 136 -12 190 -20 q 62 50 64 0 m 517 754 q 435 814 484 799 q 334 812 385 830 q 304 789 315 806 q 290 758 293 773 q 283 716 286 743 q 283 312 269 560 q 307 254 286 271 q 374 237 327 236 q 463 251 410 239 q 533 275 517 263 q 602 414 591 319 q 585 603 612 510 q 517 754 559 696 z "},"E":{"ha":842,"x_min":38,"x_max":819,"o":"m 684 821 q 548 808 618 799 q 431 828 477 817 q 296 812 384 840 q 232 746 243 793 q 254 658 221 699 q 342 613 286 617 q 478 619 382 610 q 613 613 574 628 q 675 529 661 602 q 650 425 693 441 q 502 405 586 399 q 354 388 418 411 q 297 342 315 373 q 285 279 279 311 q 317 226 290 248 q 384 205 343 203 q 479 221 427 206 q 565 248 532 236 q 648 264 598 260 q 738 250 699 269 q 784 83 819 217 q 671 0 766 12 q 473 -22 533 -16 q 316 -24 412 -27 q 121 0 220 -20 q 100 10 109 3 q 86 25 91 18 q 78 47 81 33 q 74 71 75 62 q 72 99 73 80 q 71 125 71 118 q 54 330 66 176 q 40 541 42 484 q 40 711 38 598 q 54 937 42 825 q 167 1000 61 994 q 406 1006 293 1010 q 642 971 519 1002 q 695 897 675 963 q 684 821 715 831 z "},"F":{"ha":818,"x_min":46,"x_max":773,"o":"m 290 -15 q 229 -24 259 -22 q 169 -22 199 -26 q 118 -3 138 -19 q 94 38 98 12 q 52 484 57 279 q 58 909 46 688 q 71 951 60 935 q 109 975 83 967 q 156 987 136 983 q 216 992 176 990 q 271 996 256 994 q 363 1007 301 998 q 455 1019 426 1016 q 532 1021 484 1021 q 621 1012 579 1021 q 708 983 662 1002 q 771 880 769 958 q 716 770 773 803 q 604 736 658 738 q 511 749 549 734 q 416 770 473 765 q 296 754 359 774 q 252 682 255 741 q 288 609 248 624 q 387 590 334 593 q 479 593 439 587 q 571 593 519 598 q 667 567 623 589 q 713 472 718 543 q 658 374 708 401 q 549 345 606 347 q 447 352 491 343 q 338 350 403 361 q 296 307 301 343 q 306 220 292 270 q 333 120 320 170 q 338 32 346 71 q 290 -15 331 -7 z "},"G":{"ha":1027,"x_min":22,"x_max":991,"o":"m 621 317 q 502 400 551 342 q 472 477 473 434 q 506 533 471 519 q 652 566 591 557 q 781 566 712 575 q 918 521 849 556 q 983 423 974 492 q 947 308 991 354 q 825 270 901 260 q 764 79 836 153 q 385 0 612 -73 q 197 108 270 38 q 76 312 123 178 q 28 524 35 429 q 63 726 22 620 q 205 926 104 831 q 323 996 258 977 q 449 1010 388 1016 q 591 981 510 1005 q 715 890 666 959 q 716 776 764 822 q 629 736 681 741 q 532 746 578 732 q 433 759 487 760 q 338 731 378 758 q 244 577 270 684 q 255 396 218 471 q 378 252 301 301 q 556 209 454 203 q 571 211 564 209 q 583 216 578 213 q 593 224 589 218 q 600 233 597 229 q 606 244 604 236 q 610 256 609 252 q 614 271 612 260 q 616 285 616 281 q 619 301 617 289 q 621 317 621 313 z "},"H":{"ha":926,"x_min":45,"x_max":859,"o":"m 58 100 q 62 796 45 496 q 64 827 62 806 q 66 859 65 849 q 69 884 66 868 q 77 911 72 901 q 91 932 81 921 q 113 954 100 944 q 216 988 159 987 q 292 945 274 989 q 334 618 336 799 q 400 616 354 614 q 479 617 446 617 q 556 623 510 617 q 563 800 562 727 q 565 844 564 830 q 573 876 566 857 q 595 909 581 895 q 649 945 617 929 q 726 960 681 962 q 800 917 772 958 q 827 864 818 892 q 838 819 836 836 q 841 760 840 803 q 842 704 842 718 q 846 83 859 406 q 844 46 845 57 q 836 20 844 35 q 812 0 827 5 q 770 -12 784 -9 q 749 -16 755 -15 q 721 -10 743 -16 q 680 0 699 -4 q 631 12 647 7 q 596 31 614 16 q 575 66 578 45 q 551 358 553 218 q 484 357 519 358 q 431 355 448 355 q 387 356 415 354 q 320 363 358 358 q 321 271 320 304 q 326 207 321 250 q 331 142 331 164 q 322 90 331 121 q 292 34 313 60 q 202 -16 252 -12 q 92 0 152 -20 q 73 10 80 3 q 64 27 66 18 q 60 50 61 37 q 59 75 58 62 q 58 100 60 87 z "},"I":{"ha":772,"x_min":43,"x_max":716,"o":"m 283 777 q 224 800 263 802 q 155 792 186 799 q 92 811 125 785 q 51 902 56 846 q 88 970 46 958 q 374 1002 255 1008 q 658 948 494 997 q 705 881 700 936 q 675 795 709 826 q 574 778 650 770 q 487 753 499 785 q 478 707 479 736 q 482 627 477 678 q 487 545 487 576 q 487 488 487 526 q 488 426 487 449 q 489 369 488 403 q 491 313 490 335 q 495 266 492 290 q 503 225 498 241 q 513 199 507 209 q 557 171 528 175 q 620 165 586 167 q 675 146 654 164 q 715 62 713 115 q 671 0 716 9 q 485 -18 578 -16 q 338 -16 392 -20 q 163 0 285 -12 q 66 62 80 8 q 113 205 43 159 q 157 212 129 214 q 212 201 184 209 q 260 195 239 194 q 283 213 281 195 q 284 312 289 235 q 283 433 279 389 q 292 515 286 461 q 301 600 298 568 q 305 671 304 632 q 301 736 307 711 q 283 777 296 762 z "},"J":{"ha":898,"x_min":35,"x_max":867,"o":"m 454 741 q 313 788 378 745 q 278 863 278 812 q 317 925 278 914 q 543 956 453 959 q 768 917 632 952 q 840 863 812 905 q 838 788 867 821 q 787 750 812 761 q 735 739 762 739 q 670 741 708 739 q 654 175 703 476 q 570 24 639 81 q 410 -35 500 -34 q 169 49 275 -37 q 42 254 62 134 q 73 340 35 297 q 152 374 110 384 q 207 332 184 368 q 250 256 229 297 q 300 199 271 214 q 361 185 327 183 q 404 213 396 187 q 444 406 431 298 q 456 590 457 513 q 454 741 454 667 z "},"K":{"ha":784,"x_min":54,"x_max":734,"o":"m 100 929 q 172 943 160 943 q 229 929 183 943 q 277 888 260 921 q 296 822 293 854 q 300 729 298 789 q 304 642 301 669 q 304 638 304 640 q 305 635 305 636 q 529 887 370 726 q 662 901 572 930 q 734 817 734 876 q 723 762 734 788 q 701 722 712 736 q 662 675 689 707 q 559 551 624 632 q 460 433 494 471 q 499 400 479 419 q 532 369 519 381 q 567 328 544 357 q 597 291 590 300 q 633 244 605 282 q 667 199 662 206 q 696 30 732 113 q 645 -12 682 -3 q 579 0 608 -20 q 474 77 507 52 q 396 145 441 103 q 319 229 351 187 q 315 153 317 201 q 311 76 312 106 q 270 7 309 30 q 179 -14 231 -16 q 109 6 138 -11 q 77 52 79 23 q 54 746 54 526 q 54 766 54 751 q 54 790 54 781 q 54 814 54 799 q 56 840 54 830 q 59 865 57 850 q 64 888 61 879 q 73 906 68 897 q 85 921 77 916 q 100 929 92 926 z "},"L":{"ha":796,"x_min":50,"x_max":749,"o":"m 58 54 q 50 276 50 171 q 54 452 50 381 q 66 644 58 524 q 76 867 73 764 q 156 952 77 933 q 274 939 213 966 q 335 854 335 911 q 343 231 335 640 q 654 209 581 221 q 698 176 674 205 q 735 113 722 148 q 743 45 749 79 q 704 0 736 12 q 521 -25 662 -16 q 263 -30 380 -34 q 109 -8 156 -27 q 58 54 61 11 z "},"M":{"ha":930,"x_min":50,"x_max":872,"o":"m 75 24 q 54 311 58 171 q 54 549 50 452 q 66 842 57 647 q 121 929 69 918 q 212 908 163 937 q 301 832 260 879 q 382 722 342 785 q 447 611 422 658 q 491 521 472 564 q 545 631 505 547 q 620 773 585 716 q 701 879 655 830 q 765 905 726 905 q 814 875 804 905 q 848 728 840 796 q 857 559 857 661 q 860 408 857 458 q 871 201 872 304 q 838 0 871 99 q 767 -32 826 -38 q 696 14 708 -26 q 673 157 678 69 q 670 351 667 245 q 671 480 673 456 q 587 338 648 427 q 491 250 525 248 q 419 288 454 251 q 338 397 384 326 q 275 491 293 468 q 283 269 285 420 q 283 24 281 117 q 235 -29 285 -14 q 132 -29 184 -45 q 75 24 79 -14 z "},"N":{"ha":935,"x_min":34,"x_max":883,"o":"m 637 412 q 631 501 633 468 q 630 569 629 534 q 632 622 631 604 q 638 694 633 640 q 646 792 643 747 q 661 875 650 844 q 703 928 671 906 q 770 952 734 951 q 834 928 807 954 q 858 896 849 911 q 870 859 867 880 q 874 826 873 838 q 875 785 875 814 q 875 745 875 755 q 880 396 883 563 q 854 47 878 229 q 777 -20 848 -3 q 637 0 680 -43 q 524 136 575 64 q 410 316 473 209 q 328 450 346 423 q 320 76 345 300 q 288 15 316 45 q 216 -25 259 -15 q 121 0 172 -35 q 66 66 84 26 q 48 138 49 106 q 50 229 47 170 q 52 319 53 289 q 42 477 50 374 q 35 652 34 581 q 52 811 37 724 q 161 955 69 911 q 320 935 269 1006 q 480 699 435 773 q 629 426 525 625 q 637 412 632 420 z "},"O":{"ha":960,"x_min":42,"x_max":928,"o":"m 735 30 q 465 -43 604 -60 q 201 79 327 -26 q 87 235 127 140 q 44 427 46 330 q 62 625 42 525 q 142 815 88 732 q 269 935 197 898 q 463 987 357 981 q 655 947 568 993 q 825 750 754 886 q 913 471 897 614 q 885 225 928 340 q 735 30 842 110 m 543 722 q 381 701 465 764 q 273 533 297 639 q 351 250 229 342 q 627 250 528 119 q 701 515 726 381 q 543 722 677 650 z "},"P":{"ha":780,"x_min":35,"x_max":743,"o":"m 326 301 q 317 131 327 222 q 288 0 308 39 q 208 -41 263 -42 q 121 0 152 -41 q 87 57 100 27 q 67 127 73 87 q 59 191 61 167 q 56 266 57 214 q 54 335 56 317 q 44 488 52 381 q 36 640 37 594 q 44 766 35 685 q 75 926 53 846 q 92 955 80 944 q 120 970 104 966 q 155 975 136 974 q 194 976 175 977 q 233 977 213 975 q 325 985 264 978 q 416 993 385 991 q 493 986 446 994 q 583 956 540 978 q 679 869 648 924 q 726 727 709 814 q 713 522 743 631 q 613 355 682 412 q 467 294 553 307 q 326 301 381 282 m 555 810 q 433 864 518 859 q 312 822 349 869 q 276 714 282 781 q 288 585 270 647 q 344 465 307 513 q 433 414 381 418 q 565 480 518 408 q 607 648 612 552 q 555 810 602 745 z "},"Q":{"ha":989,"x_min":18,"x_max":952,"o":"m 850 134 q 905 75 886 96 q 933 10 930 45 q 913 -54 936 -24 q 855 -79 890 -80 q 796 -54 821 -79 q 765 -24 785 -43 q 735 5 745 -4 q 600 -42 670 -42 q 233 43 359 -42 q 53 321 106 129 q 52 584 18 437 q 180 842 85 731 q 309 949 241 916 q 472 991 377 983 q 669 947 575 1000 q 833 800 762 895 q 928 562 903 705 q 925 312 952 418 q 850 134 902 220 m 393 730 q 297 653 338 718 q 254 525 256 589 q 273 347 251 419 q 358 205 294 274 q 551 182 435 122 q 438 316 490 245 q 437 374 422 345 q 487 420 453 404 q 587 392 534 444 q 637 345 606 374 q 680 305 667 316 q 700 362 699 340 q 649 672 722 575 q 393 730 576 769 z "},"R":{"ha":722,"x_min":33,"x_max":671,"o":"m 263 255 q 276 128 277 201 q 241 0 275 56 q 134 -53 212 -49 q 54 0 56 -57 q 46 233 54 88 q 38 458 38 377 q 35 590 38 498 q 34 740 33 682 q 42 871 35 798 q 61 947 46 932 q 83 959 69 956 q 384 979 228 991 q 606 884 541 966 q 665 637 671 803 q 649 534 662 583 q 611 444 636 486 q 544 375 586 401 q 446 346 502 349 q 658 62 597 171 q 661 11 671 38 q 625 -24 651 -16 q 471 0 528 -57 q 263 255 343 123 m 247 524 q 377 522 324 511 q 467 579 430 533 q 504 644 490 608 q 520 715 518 680 q 504 777 522 750 q 446 812 486 804 q 387 822 412 819 q 323 827 362 825 q 262 818 283 829 q 241 784 240 807 q 247 524 247 697 z "},"S":{"ha":739,"x_min":18,"x_max":705,"o":"m 42 277 q 61 292 49 288 q 102 288 79 298 q 161 256 126 278 q 221 225 197 235 q 275 213 239 222 q 333 200 312 203 q 383 195 354 197 q 435 202 412 194 q 476 228 457 210 q 513 302 513 263 q 477 368 514 340 q 350 404 445 392 q 209 453 255 416 q 94 648 125 518 q 127 882 64 779 q 357 995 197 981 q 639 936 518 1009 q 666 914 654 928 q 692 810 700 871 q 640 715 684 749 q 585 702 618 696 q 524 723 551 708 q 462 753 498 738 q 400 766 426 768 q 301 734 323 764 q 278 637 263 684 q 351 563 293 590 q 455 530 385 548 q 576 492 525 513 q 648 441 628 472 q 692 264 705 351 q 621 109 678 178 q 481 0 564 39 q 324 -22 401 -33 q 175 31 247 -12 q 58 147 99 79 q 42 277 18 216 z "},"T":{"ha":921,"x_min":28,"x_max":884,"o":"m 304 734 q 187 751 214 747 q 122 763 144 758 q 75 785 100 768 q 41 831 49 803 q 54 917 28 875 q 125 964 80 959 q 458 985 323 991 q 791 939 594 979 q 859 890 834 929 q 875 810 884 852 q 736 719 856 728 q 608 711 663 712 q 603 463 608 637 q 600 175 598 289 q 603 126 600 159 q 606 77 606 94 q 598 38 606 60 q 571 0 590 16 q 459 -29 534 -30 q 350 0 384 -28 q 312 54 324 22 q 299 111 300 85 q 300 178 298 137 q 300 240 301 220 q 300 494 294 327 q 304 734 307 661 z "},"U":{"ha":863,"x_min":53,"x_max":804,"o":"m 429 -34 q 264 5 342 -43 q 142 127 187 53 q 83 279 96 201 q 53 593 53 458 q 83 906 53 727 q 132 954 90 945 q 217 943 175 962 q 263 898 259 925 q 280 650 282 800 q 283 400 278 499 q 358 241 294 289 q 452 221 384 220 q 533 258 519 222 q 564 425 559 317 q 563 624 568 532 q 568 798 557 716 q 613 902 578 879 q 746 876 700 956 q 792 458 804 774 q 790 376 791 437 q 787 293 789 316 q 779 227 785 270 q 756 150 772 183 q 716 83 741 117 q 661 25 690 47 q 588 -9 631 3 q 517 -24 545 -20 q 429 -34 488 -28 z "},"V":{"ha":892,"x_min":37,"x_max":853,"o":"m 308 0 q 238 186 285 64 q 174 357 191 308 q 127 493 156 407 q 81 653 99 579 q 46 817 64 727 q 84 906 37 868 q 187 933 132 944 q 227 918 210 929 q 256 888 244 907 q 276 853 269 868 q 294 809 283 838 q 312 766 305 780 q 393 528 345 693 q 450 342 442 363 q 485 460 453 351 q 531 614 517 568 q 578 741 545 659 q 642 883 610 823 q 713 934 666 929 q 796 901 761 939 q 838 822 823 873 q 846 746 853 770 q 722 341 781 499 q 559 0 663 183 q 481 -58 536 -41 q 376 -59 427 -75 q 308 0 324 -43 z "},"W":{"ha":907,"x_min":42,"x_max":871,"o":"m 844 871 q 852 53 871 426 q 798 -34 849 -23 q 708 -14 755 -42 q 623 56 661 14 q 547 161 586 99 q 486 267 509 224 q 444 355 464 311 q 392 244 425 321 q 326 107 359 167 q 245 0 292 47 q 180 -23 222 -24 q 106 4 138 -22 q 76 46 87 20 q 63 87 65 72 q 62 143 61 102 q 62 189 62 184 q 62 332 61 221 q 58 487 62 444 q 50 588 56 522 q 43 684 45 654 q 45 772 42 715 q 60 895 49 830 q 105 941 65 928 q 186 941 145 954 q 235 899 227 928 q 253 745 251 844 q 251 538 255 647 q 248 399 247 429 q 339 550 271 452 q 441 647 407 648 q 511 607 477 646 q 583 500 544 568 q 643 404 621 433 q 633 533 635 461 q 633 723 631 605 q 635 871 635 841 q 656 918 635 899 q 707 941 677 937 q 767 941 736 945 q 820 917 798 936 q 844 871 842 898 z "},"X":{"ha":776,"x_min":31,"x_max":747,"o":"m 726 133 q 734 45 747 91 q 680 -24 722 -1 q 601 -26 640 -43 q 537 30 562 -9 q 388 259 477 126 q 250 46 296 121 q 179 -25 220 -1 q 100 -24 138 -49 q 42 59 53 4 q 58 163 31 114 q 244 472 132 301 q 58 780 127 648 q 42 884 31 829 q 100 968 53 940 q 179 969 138 993 q 250 898 220 945 q 388 684 307 804 q 537 914 467 800 q 601 970 562 954 q 680 968 640 987 q 734 899 722 945 q 726 810 747 852 q 529 472 648 656 q 726 133 646 292 z "},"Y":{"ha":802,"x_min":-7,"x_max":768,"o":"m 320 460 q 237 533 288 490 q 163 600 187 576 q 106 659 138 623 q 50 736 75 696 q 96 958 -7 829 q 164 994 123 990 q 237 970 205 998 q 342 859 274 937 q 449 745 410 781 q 551 944 494 838 q 716 928 589 1015 q 755 882 743 911 q 758 823 768 852 q 644 508 684 613 q 542 265 604 403 q 408 0 480 127 q 347 -36 393 -27 q 258 -34 301 -45 q 180 -1 209 -24 q 163 50 151 22 q 251 279 199 141 q 320 460 302 416 z "},"Z":{"ha":842,"x_min":34,"x_max":806,"o":"m 334 263 q 423 273 362 266 q 524 285 484 281 q 620 286 563 289 q 726 267 677 282 q 786 201 772 254 q 779 100 800 148 q 718 31 758 53 q 613 0 677 9 q 436 -26 481 -20 q 308 -27 391 -31 q 133 0 225 -23 q 54 39 66 16 q 42 141 42 62 q 61 260 42 208 q 103 342 80 312 q 176 426 126 372 q 195 446 189 439 q 438 692 327 593 q 144 697 220 680 q 61 758 66 715 q 126 954 34 941 q 281 970 206 964 q 418 975 355 975 q 559 975 481 975 q 720 975 636 975 q 786 933 766 975 q 798 838 806 891 q 762 750 789 784 q 334 263 564 507 z "},"[":{"ha":513,"x_min":53,"x_max":469,"o":"m 258 146 q 278 117 259 125 q 321 112 297 110 q 372 109 345 114 q 412 88 399 104 q 441 13 439 54 q 408 -42 442 -28 q 146 0 228 -102 q 105 66 122 31 q 79 122 88 100 q 64 191 69 144 q 58 253 58 239 q 56 330 57 267 q 54 404 54 393 q 53 584 53 506 q 70 745 53 662 q 125 913 87 827 q 147 946 133 932 q 173 968 161 960 q 208 984 184 977 q 243 994 232 991 q 286 1002 255 997 q 326 1008 316 1006 q 450 971 407 1021 q 467 922 469 951 q 442 875 464 892 q 382 858 422 857 q 313 854 343 859 q 275 821 283 850 q 244 635 252 731 q 237 486 236 538 q 247 311 239 433 q 258 146 255 189 z "},"\\":{"ha":722,"x_min":24,"x_max":690,"o":"m 104 924 q 220 924 175 949 q 312 819 266 899 q 428 622 357 741 q 528 452 499 503 q 599 309 557 400 q 675 111 640 217 q 669 26 690 66 q 591 -14 647 -14 q 517 -5 545 -14 q 471 31 490 3 q 54 749 240 385 q 41 860 24 815 q 104 924 57 905 z "},"]":{"ha":513,"x_min":49,"x_max":465,"o":"m 260 802 q 240 831 259 823 q 197 836 221 838 q 146 839 174 834 q 106 860 119 844 q 77 935 79 894 q 110 989 76 975 q 373 948 293 1048 q 414 883 397 917 q 440 825 431 849 q 454 757 449 802 q 461 694 460 712 q 463 618 463 677 q 464 544 464 560 q 465 364 465 442 q 448 203 465 286 q 393 35 431 121 q 371 1 385 16 q 346 -22 357 -14 q 310 -37 335 -30 q 275 -47 285 -45 q 233 -54 266 -49 q 194 -61 201 -60 q 68 -23 113 -75 q 52 26 49 -3 q 77 72 56 54 q 137 89 98 90 q 205 92 176 88 q 243 126 235 96 q 274 312 266 216 q 281 461 282 408 q 271 637 279 514 q 260 802 263 760 z "},"^":{"ha":921,"x_min":-20,"x_max":886,"o":"m 96 587 q 98 741 -20 594 q 327 956 187 850 q 342 967 335 962 q 490 1017 412 1017 q 617 959 567 1017 q 701 867 652 917 q 772 790 749 817 q 823 718 795 764 q 875 613 852 673 q 846 567 886 585 q 779 567 807 549 q 652 663 693 621 q 541 800 610 705 q 508 811 522 819 q 470 770 494 803 q 425 703 446 738 q 373 633 404 669 q 312 583 342 598 q 245 567 278 567 q 168 576 213 567 q 96 587 123 586 z "},"_":{"ha":776,"x_min":28,"x_max":742,"o":"m 151 141 q 283 154 221 152 q 429 153 345 156 q 563 151 513 151 q 642 140 602 151 q 712 101 682 129 q 734 34 742 73 q 633 -54 716 -54 l 171 -54 q 77 -36 117 -54 q 34 24 38 -18 q 64 101 28 69 q 151 141 99 133 z "},"`":{"ha":338,"x_min":37,"x_max":339,"o":"m 263 684 q 115 732 180 674 q 42 875 49 791 q 94 933 38 926 q 212 894 155 941 q 245 854 233 876 q 263 684 339 693 z "},"a":{"ha":671,"x_min":28,"x_max":617,"o":"m 537 46 q 450 3 492 16 q 155 38 316 -42 q 58 144 87 72 q 48 286 28 217 q 129 380 68 355 q 434 410 277 439 q 392 479 429 463 q 310 485 355 495 q 216 473 264 475 q 138 486 168 471 q 104 568 100 511 q 152 640 109 624 q 286 680 229 669 q 407 682 342 692 q 530 632 472 673 q 580 587 562 610 q 605 532 598 564 q 613 479 612 500 q 614 412 614 458 q 613 342 613 366 q 615 284 613 328 q 617 224 617 240 q 614 175 617 209 q 602 123 610 141 q 577 84 593 106 q 537 46 562 62 m 342 129 q 421 199 395 155 q 433 292 448 243 q 371 335 420 331 q 283 316 321 339 q 195 175 170 259 q 254 121 208 134 q 342 129 301 109 z "},"b":{"ha":643,"x_min":46,"x_max":597,"o":"m 71 79 q 47 395 49 251 q 55 633 46 540 q 92 937 64 727 q 126 973 95 963 q 189 975 157 983 q 229 941 221 966 q 241 827 244 872 q 229 701 237 781 q 225 568 221 621 q 285 612 250 598 q 344 624 320 627 q 384 623 368 621 q 488 583 444 620 q 554 490 532 545 q 587 373 576 435 q 594 256 597 311 q 579 167 591 201 q 481 37 548 79 q 269 -20 414 -5 q 128 -7 178 -30 q 71 79 79 15 m 354 509 q 273 460 309 514 q 239 302 237 406 q 280 212 240 259 q 362 164 320 165 q 439 201 410 163 q 476 294 469 240 q 477 305 476 297 q 483 349 481 332 q 480 396 484 365 q 465 447 476 427 q 425 485 453 467 q 354 509 396 503 z "},"c":{"ha":734,"x_min":3,"x_max":688,"o":"m 458 195 q 522 229 491 198 q 580 284 552 260 q 642 300 608 308 q 683 235 682 289 q 658 141 684 180 q 581 53 624 84 q 471 0 538 22 q 383 -23 418 -16 q 307 -25 349 -30 q 225 0 266 -20 q 120 81 157 34 q 62 205 83 129 q 77 551 3 425 q 354 700 151 678 q 520 695 450 711 q 658 625 590 680 q 670 553 688 598 q 613 491 652 507 q 505 479 567 471 q 401 495 442 487 q 300 471 361 503 q 237 373 248 437 q 258 258 225 309 q 335 199 285 210 q 458 195 385 187 z "},"d":{"ha":768,"x_min":-28,"x_max":715,"o":"m 675 929 q 707 661 700 762 q 708 433 715 559 q 671 163 701 307 q 587 31 655 79 q 429 -20 519 -18 q 83 151 186 -24 q 104 529 -28 340 q 190 602 138 578 q 296 626 241 625 q 416 625 351 627 q 457 614 442 623 q 477 777 461 670 q 496 929 494 883 q 525 977 498 960 q 584 991 552 993 q 644 972 616 989 q 675 929 671 956 m 420 475 q 310 509 374 514 q 191 467 245 503 q 149 368 142 429 q 192 248 156 307 q 263 175 228 190 q 382 155 334 148 q 456 200 431 163 q 486 285 481 237 q 473 385 491 332 q 420 475 456 437 z "},"e":{"ha":666,"x_min":24,"x_max":635,"o":"m 168 224 q 169 222 168 222 q 170 221 170 222 q 201 182 180 198 q 237 162 221 167 q 287 150 252 157 q 335 138 321 142 q 431 129 392 125 q 518 130 469 133 q 608 106 567 127 q 628 51 635 91 q 591 0 621 11 q 438 -26 498 -27 q 283 0 378 -24 q 256 7 281 1 q 228 14 232 14 q 203 21 224 15 q 176 30 182 27 q 154 40 171 33 q 131 53 137 47 q 112 67 125 58 q 93 85 99 76 q 79 106 87 94 q 65 132 71 118 q 31 256 38 195 q 34 372 24 317 q 68 500 43 427 q 235 646 106 614 q 398 668 320 671 q 549 618 476 665 q 616 533 602 586 q 628 395 631 480 q 536 273 624 311 q 360 231 477 248 q 168 224 243 213 m 300 549 q 226 534 256 551 q 181 489 195 518 q 161 433 167 460 q 153 370 155 406 q 283 380 167 373 q 442 408 399 387 q 492 458 483 430 q 469 513 502 487 q 300 549 420 548 z "},"f":{"ha":738,"x_min":19,"x_max":716,"o":"m 370 221 q 379 161 372 195 q 393 105 387 127 q 397 54 399 83 q 380 0 395 26 q 311 -45 359 -38 q 233 -20 263 -52 q 209 7 220 -7 q 191 40 198 22 q 179 70 183 58 q 172 105 175 81 q 168 138 170 129 q 165 178 167 148 q 163 217 163 208 q 155 308 159 260 q 96 326 133 311 q 35 406 50 343 q 62 487 19 468 q 140 515 103 503 q 179 817 136 674 q 400 975 224 955 q 621 871 521 989 q 680 646 716 760 q 618 577 665 598 q 525 571 572 556 q 484 612 495 581 q 461 680 472 644 q 425 730 450 715 q 372 722 399 743 q 342 671 345 701 q 338 545 336 602 q 559 517 425 545 q 641 454 612 505 q 642 358 670 403 q 594 326 624 330 q 518 330 564 321 q 446 338 472 339 q 361 327 423 336 q 370 221 365 290 z "},"g":{"ha":760,"x_min":24,"x_max":718,"o":"m 491 104 q 300 34 381 43 q 151 45 209 22 q 66 120 92 68 q 33 248 41 172 q 34 416 24 323 q 66 538 38 484 q 141 625 95 591 q 242 681 187 659 q 362 712 297 703 q 521 718 444 730 q 654 650 598 705 q 693 587 681 623 q 705 524 705 551 q 702 448 705 496 q 700 370 699 399 q 707 241 701 320 q 715 118 713 163 q 708 9 718 73 q 671 -117 699 -56 q 460 -265 625 -220 q 163 -250 294 -311 q 135 -198 134 -236 q 163 -141 136 -160 q 247 -106 191 -118 q 352 -89 302 -94 q 449 -62 401 -84 q 517 0 496 -41 q 526 24 524 12 q 528 50 529 35 q 526 70 526 64 q 520 95 525 76 q 514 117 515 114 q 491 104 507 113 m 342 587 q 236 549 277 574 q 175 475 195 525 q 205 237 119 336 q 298 188 243 194 q 404 213 353 182 q 492 296 476 254 q 496 408 507 338 q 492 439 495 420 q 488 471 490 458 q 483 502 487 483 q 475 531 479 521 q 463 555 471 541 q 445 574 454 570 q 420 587 435 579 q 386 592 404 595 q 342 587 368 589 z "},"h":{"ha":718,"x_min":49,"x_max":669,"o":"m 229 0 q 151 -32 197 -33 q 75 0 104 -31 q 60 35 62 14 q 60 82 57 56 q 61 117 62 109 q 58 177 58 160 q 61 231 58 194 q 64 292 64 267 q 57 537 65 357 q 54 825 49 718 q 146 929 58 902 q 222 933 182 943 q 271 891 262 924 q 278 701 296 826 q 275 505 260 575 q 283 511 278 507 q 302 523 288 514 q 332 539 317 532 q 369 555 347 547 q 411 566 391 563 q 454 567 431 570 q 496 555 477 564 q 587 494 555 525 q 633 412 620 463 q 667 205 665 286 q 633 0 669 125 q 571 -35 621 -37 q 500 0 521 -34 q 476 88 477 38 q 481 177 475 138 q 467 271 487 216 q 421 341 450 315 q 358 354 392 368 q 287 283 308 332 q 268 183 266 233 q 262 79 270 133 q 229 0 255 26 z "},"i":{"ha":399,"x_min":38,"x_max":358,"o":"m 342 167 q 342 144 342 161 q 341 121 342 127 q 340 102 340 115 q 338 81 339 88 q 334 63 336 75 q 327 44 331 52 q 317 27 323 37 q 304 8 312 18 q 171 -24 264 -39 q 66 46 76 -8 q 51 144 56 102 q 47 236 46 187 q 50 307 49 285 q 58 397 50 328 q 69 495 66 467 q 132 590 76 567 q 224 583 175 608 q 307 511 274 557 q 333 463 324 487 q 345 404 342 439 q 348 345 349 369 q 345 262 347 321 q 342 167 343 203 m 262 665 q 85 707 155 628 q 43 797 49 749 q 69 890 38 845 q 248 928 125 964 q 357 803 353 895 q 333 718 358 754 q 262 665 308 681 z "},"j":{"ha":517,"x_min":27,"x_max":477,"o":"m 270 560 q 316 625 279 602 q 391 635 353 648 q 425 614 412 627 q 445 574 438 601 q 453 536 452 547 q 457 488 454 526 q 446 0 477 262 q 351 -151 435 -100 q 83 -179 250 -209 q 39 -138 52 -174 q 46 -79 27 -103 q 103 -45 65 -54 q 174 -35 141 -37 q 235 -7 206 -34 q 271 79 264 20 q 264 320 281 157 q 270 560 248 483 m 294 864 q 375 876 327 892 q 437 818 423 860 q 435 741 449 779 q 393 680 422 704 q 334 654 365 656 q 282 677 304 652 q 250 772 247 719 q 294 864 254 826 z "},"k":{"ha":726,"x_min":57,"x_max":674,"o":"m 71 62 q 58 307 60 183 q 59 532 57 431 q 58 788 61 632 q 146 921 57 864 q 182 937 163 930 q 221 945 202 943 q 253 940 240 947 q 267 917 266 933 q 279 481 279 726 q 483 650 354 559 q 551 686 514 671 q 622 695 589 700 q 662 658 655 690 q 653 582 670 618 q 597 512 636 545 q 518 452 557 479 q 425 391 479 425 q 342 334 372 357 q 432 252 362 305 q 570 142 502 198 q 658 46 637 85 q 630 -18 674 12 q 551 -30 586 -47 q 277 172 389 53 q 276 118 277 155 q 275 62 275 81 q 248 -12 275 9 q 186 -26 221 -33 q 113 1 151 -20 q 71 62 75 22 z "},"l":{"ha":517,"x_min":39,"x_max":473,"o":"m 415 -23 q 284 -22 351 -39 q 165 37 217 -5 q 93 136 113 80 q 60 297 73 193 q 45 521 50 369 q 45 762 39 673 q 76 890 50 857 q 159 925 102 924 q 212 886 193 925 q 234 779 231 846 q 235 646 237 712 q 230 503 233 579 q 228 393 227 427 q 229 363 228 384 q 230 333 229 342 q 233 309 231 324 q 239 279 235 293 q 248 251 243 266 q 304 178 269 202 q 370 152 339 153 q 429 142 401 151 q 461 110 456 133 q 463 28 473 71 q 415 -23 452 -14 z "},"m":{"ha":1055,"x_min":46,"x_max":996,"o":"m 66 38 q 47 315 47 178 q 54 597 46 452 q 75 654 56 631 q 129 685 95 678 q 226 684 172 694 q 300 643 279 673 q 416 685 349 677 q 614 602 549 700 q 646 639 633 627 q 711 675 675 669 q 796 677 746 682 q 873 650 840 671 q 928 599 907 628 q 964 524 949 570 q 984 439 978 479 q 993 341 990 399 q 995 244 996 283 q 993 146 994 205 q 991 58 991 87 q 949 0 991 15 q 859 -16 878 -28 q 846 0 850 -11 q 828 108 830 50 q 831 231 826 165 q 834 327 836 296 q 835 366 834 334 q 835 417 836 397 q 827 461 834 437 q 804 498 819 486 q 739 493 772 522 q 688 416 707 464 q 663 282 667 363 q 663 105 658 201 q 667 0 667 9 q 631 -32 667 -23 q 555 -31 594 -41 q 509 0 515 -22 q 502 194 498 31 q 473 458 509 400 q 342 472 434 524 q 319 452 330 465 q 315 258 320 395 q 312 20 311 121 q 254 -32 312 -20 q 134 -22 195 -43 q 66 38 72 -1 z "},"n":{"ha":675,"x_min":30,"x_max":643,"o":"m 38 75 q 37 461 30 296 q 37 514 37 488 q 39 561 38 540 q 47 605 39 582 q 73 648 56 628 q 208 670 118 703 q 260 587 254 652 q 309 652 286 632 q 365 675 332 671 q 473 664 426 684 q 551 610 521 644 q 600 516 581 576 q 628 404 618 456 q 640 272 637 351 q 642 144 643 193 q 637 20 640 95 q 600 -19 637 -3 q 521 -31 562 -35 q 471 0 480 -27 q 458 149 461 27 q 445 328 454 271 q 406 433 433 399 q 328 454 378 467 q 306 444 315 452 q 290 424 297 437 q 281 404 283 411 q 274 378 279 397 q 275 211 278 267 q 254 20 271 155 q 201 -17 251 -3 q 125 -24 152 -31 q 59 8 79 -14 q 38 75 39 30 z "},"o":{"ha":726,"x_min":37,"x_max":689,"o":"m 267 658 q 565 601 453 688 q 684 342 677 514 q 665 135 689 217 q 559 0 642 53 q 424 -47 495 -41 q 290 -32 353 -53 q 175 31 228 -11 q 46 245 58 123 q 56 424 37 336 q 132 578 76 511 q 267 658 187 644 m 338 471 q 250 384 263 464 q 251 275 241 335 q 317 161 266 197 q 442 155 369 125 q 522 221 498 176 q 538 316 547 266 q 474 431 529 384 q 338 471 419 477 z "},"p":{"ha":746,"x_min":37,"x_max":711,"o":"m 285 -54 q 279 -161 285 -127 q 252 -228 273 -194 q 178 -273 227 -273 q 92 -241 130 -273 q 50 -172 53 -210 q 41 199 37 -9 q 41 562 46 407 q 59 621 39 598 q 120 652 79 643 q 194 663 161 661 q 279 666 227 666 q 298 666 292 666 q 486 647 411 667 q 610 564 562 627 q 696 359 681 473 q 665 146 711 245 q 524 0 620 46 q 285 -54 404 -57 m 317 524 q 275 457 281 518 q 269 300 267 357 q 286 144 271 244 q 335 92 294 92 q 503 148 437 90 q 575 343 589 222 q 558 425 570 392 q 519 485 547 457 q 442 523 492 513 q 317 524 392 533 z "},"q":{"ha":768,"x_min":30,"x_max":716,"o":"m 514 312 q 500 463 517 396 q 445 541 483 530 q 237 479 332 575 q 168 370 193 434 q 151 235 144 307 q 206 111 159 164 q 300 67 245 68 q 400 100 354 66 q 480 190 448 133 q 514 312 513 247 m 696 -213 q 667 -257 694 -240 q 606 -275 639 -274 q 546 -260 574 -277 q 517 -213 518 -244 q 510 -117 515 -179 q 502 0 505 -56 q 430 -45 491 -33 q 300 -50 369 -57 q 186 -26 232 -43 q 70 113 110 4 q 36 345 30 221 q 88 545 42 468 q 241 680 142 637 q 461 719 340 722 q 625 667 555 716 q 703 534 696 618 q 711 389 708 460 q 715 271 715 319 q 714 151 716 224 q 710 44 712 77 q 703 -81 708 11 q 696 -213 699 -174 z "},"r":{"ha":663,"x_min":45,"x_max":618,"o":"m 288 250 q 294 196 289 239 q 298 140 298 153 q 297 96 298 126 q 286 43 296 65 q 258 0 275 22 q 169 -29 222 -35 q 92 0 115 -23 q 58 330 45 47 q 83 654 64 448 q 121 707 85 689 q 191 712 157 726 q 255 648 233 697 q 333 694 296 684 q 433 696 370 705 q 555 635 506 684 q 613 513 604 586 q 595 441 618 465 q 534 420 571 418 q 463 446 498 423 q 446 471 450 454 q 441 504 441 488 q 434 531 441 519 q 412 541 427 543 q 282 450 304 534 q 288 250 286 270 z "},"s":{"ha":571,"x_min":11,"x_max":557,"o":"m 256 168 q 311 190 292 171 q 315 235 330 209 q 225 304 294 269 q 134 363 156 340 q 97 457 99 400 q 119 564 95 514 q 191 648 144 613 q 294 680 239 682 q 431 644 374 674 q 536 551 487 614 q 534 488 557 524 q 473 446 510 452 q 423 462 446 442 q 377 501 400 481 q 328 517 354 521 q 288 487 300 513 q 282 438 275 461 q 368 368 294 395 q 418 347 399 357 q 463 319 438 338 q 502 275 488 301 q 515 213 515 248 q 441 38 518 94 q 337 -7 391 1 q 224 0 283 -15 q 104 42 151 15 q 27 125 57 69 q 35 192 11 157 q 99 233 60 227 q 178 203 138 240 q 256 168 217 165 z "},"t":{"ha":755,"x_min":30,"x_max":708,"o":"m 225 774 q 302 812 244 812 q 370 770 361 811 q 384 595 391 684 q 551 559 467 587 q 581 501 585 543 q 551 425 578 460 q 522 405 538 408 q 475 405 505 401 q 433 408 445 408 q 359 406 406 408 q 350 323 353 349 q 351 247 347 297 q 370 155 355 197 q 442 111 385 111 q 537 151 499 111 q 545 202 549 163 q 559 245 540 241 q 621 266 589 259 q 681 264 654 273 q 708 229 708 256 q 559 0 708 83 q 354 -5 467 -52 q 254 61 298 18 q 191 155 210 104 q 175 222 179 189 q 174 279 171 256 q 182 343 176 302 q 190 408 187 384 q 165 413 182 410 q 146 416 149 416 q 75 441 102 426 q 38 491 47 457 q 50 548 30 521 q 100 579 69 575 q 189 590 167 587 q 225 774 186 701 z "},"u":{"ha":722,"x_min":33,"x_max":675,"o":"m 654 183 q 535 13 631 77 q 312 -34 439 -52 q 130 64 198 -18 q 46 267 61 146 q 37 446 33 366 q 66 621 41 526 q 98 664 73 650 q 155 675 122 678 q 207 655 186 673 q 233 609 228 637 q 229 427 245 543 q 229 245 213 312 q 269 192 236 217 q 340 156 301 167 q 418 156 380 145 q 471 205 456 167 q 481 315 481 240 q 475 466 480 391 q 484 604 471 541 q 533 675 496 666 q 627 636 591 690 q 669 494 662 582 q 671 321 675 406 q 654 183 666 237 z "},"v":{"ha":765,"x_min":14,"x_max":742,"o":"m 311 -20 q 31 533 180 202 q 41 609 14 571 q 115 667 69 647 q 195 609 156 685 q 263 481 220 563 q 330 351 307 400 q 377 244 354 302 q 427 335 400 289 q 471 410 453 381 q 528 500 490 439 q 587 591 567 560 q 597 607 590 595 q 608 624 604 618 q 618 636 612 629 q 631 646 624 643 q 648 650 639 650 q 732 600 713 655 q 738 561 742 585 q 728 525 734 537 q 709 487 723 513 q 652 372 689 448 q 595 258 614 297 q 534 149 575 220 q 441 0 492 79 q 375 -45 418 -37 q 311 -20 332 -54 z "},"w":{"ha":971,"x_min":46,"x_max":966,"o":"m 928 598 q 875 125 966 328 q 625 -35 812 -14 q 496 -16 555 -43 q 427 52 438 11 q 361 -9 412 12 q 245 -23 309 -30 q 168 4 202 -18 q 113 55 134 26 q 78 130 92 84 q 58 215 64 175 q 49 313 52 255 q 47 410 46 370 q 49 508 47 449 q 50 595 50 567 q 92 654 50 639 q 183 670 164 682 q 195 654 191 665 q 214 546 212 604 q 211 423 216 488 q 208 327 206 358 q 207 288 208 320 q 207 237 206 256 q 215 193 208 217 q 237 156 222 168 q 302 161 270 132 q 354 237 335 190 q 379 372 374 290 q 380 549 384 453 q 376 654 376 646 q 412 686 376 677 q 488 685 449 694 q 533 654 526 675 q 534 456 544 621 q 549 195 521 254 q 678 179 583 126 q 703 220 694 187 q 712 307 711 254 q 712 407 713 359 q 707 521 711 454 q 704 617 704 587 q 757 669 704 658 q 866 659 810 681 q 928 598 922 637 z "},"x":{"ha":701,"x_min":27,"x_max":685,"o":"m 288 96 q 264 67 279 87 q 242 39 250 47 q 220 18 235 30 q 187 0 205 7 q 66 0 98 -39 q 31 84 35 39 q 54 167 27 129 q 180 324 87 208 q 83 446 107 415 q 46 600 30 514 q 125 680 58 662 q 233 654 194 700 q 351 526 311 571 q 418 587 368 544 q 487 650 468 631 q 557 667 519 677 q 629 625 594 658 q 633 517 671 585 q 559 422 613 481 q 498 351 506 362 q 646 129 574 251 q 621 0 685 60 q 565 -22 595 -23 q 509 0 534 -22 q 335 155 415 77 q 311 125 327 144 q 288 96 294 106 z "},"y":{"ha":677,"x_min":41,"x_max":635,"o":"m 613 609 q 633 476 632 586 q 616 219 635 366 q 564 -38 598 72 q 425 -229 519 -183 q 159 -250 331 -275 q 50 -155 62 -236 q 129 -54 41 -88 q 222 -31 171 -38 q 300 -21 274 -24 q 350 9 326 -18 q 388 92 374 35 q 379 87 385 91 q 370 83 373 84 q 272 58 319 58 q 171 75 225 57 q 87 149 118 91 q 50 285 57 206 q 47 436 43 363 q 62 575 50 509 q 104 654 71 621 q 175 667 138 686 q 227 602 213 647 q 236 509 241 557 q 230 407 231 460 q 237 316 229 354 q 316 258 255 254 q 391 315 369 262 q 420 458 412 369 q 438 579 427 548 q 512 654 458 644 q 613 609 566 665 z "},"z":{"ha":709,"x_min":15,"x_max":665,"o":"m 396 195 q 473 197 438 197 q 546 190 507 198 q 628 163 585 182 q 661 78 665 148 q 620 0 658 8 q 457 -17 506 -18 q 300 -8 408 -16 q 119 0 193 0 q 47 27 79 0 q 27 88 15 54 q 107 222 52 151 q 235 370 163 294 q 330 475 307 445 q 193 474 269 463 q 68 525 117 486 q 50 621 20 564 q 79 659 62 644 q 122 682 96 674 q 165 693 148 690 q 217 700 182 696 q 567 688 369 720 q 658 625 651 674 q 658 591 659 606 q 648 558 656 575 q 633 533 639 541 q 612 503 628 525 q 591 475 595 481 q 529 379 566 439 q 461 273 492 319 q 396 195 430 228 z "},"{":{"ha":742,"x_min":27,"x_max":707,"o":"m 358 1046 q 552 1077 506 1077 q 696 996 665 1078 q 690 950 707 964 q 636 932 673 936 q 559 926 600 928 q 479 911 518 924 q 420 875 439 899 q 391 783 392 836 q 400 689 391 731 q 392 587 410 647 q 345 552 385 567 q 304 513 305 537 q 338 442 301 480 q 380 380 374 404 q 381 296 391 331 q 372 219 372 260 q 396 146 372 178 q 551 103 426 107 q 669 87 651 98 q 675 46 690 75 q 587 -18 650 -4 q 457 -17 524 -33 q 338 34 391 -1 q 293 116 298 60 q 288 237 288 172 q 263 338 288 302 q 200 391 241 369 q 123 422 159 412 q 60 457 88 433 q 30 521 33 481 q 52 577 27 557 q 109 602 76 597 q 180 623 142 606 q 237 671 218 640 q 264 792 263 715 q 275 905 264 869 q 285 941 279 917 q 295 978 290 964 q 307 1007 300 991 q 328 1032 315 1023 q 358 1046 340 1042 z "},"|":{"ha":279,"x_min":53,"x_max":235,"o":"m 75 8 q 54 442 60 247 q 60 661 53 500 q 66 901 68 822 q 81 944 66 926 q 119 967 96 962 q 164 970 141 972 q 203 954 187 968 q 221 917 220 940 q 195 0 235 620 q 182 -20 194 -11 q 153 -32 170 -28 q 118 -34 136 -35 q 88 -22 100 -33 q 75 8 76 -11 z "},"}":{"ha":742,"x_min":23,"x_max":703,"o":"m 370 7 q 327 -2 362 5 q 279 -12 292 -9 q 236 -20 267 -15 q 191 -25 205 -26 q 151 -24 176 -24 q 112 -18 126 -24 q 81 -3 98 -12 q 53 20 64 5 q 34 56 42 35 q 40 101 23 87 q 94 119 57 115 q 170 125 130 123 q 250 140 210 127 q 308 176 289 152 q 337 268 336 216 q 329 362 338 320 q 338 464 320 404 q 384 500 345 484 q 425 540 423 515 q 391 610 427 572 q 350 673 355 648 q 349 757 339 722 q 358 833 358 792 q 334 906 358 875 q 179 949 304 945 q 61 966 79 955 q 54 1006 39 978 q 143 1071 80 1057 q 273 1069 206 1085 q 392 1019 339 1054 q 437 937 431 993 q 442 815 442 880 q 467 715 442 750 q 530 662 488 684 q 606 630 571 640 q 669 595 642 620 q 700 532 697 571 q 678 475 703 495 q 621 451 654 456 q 549 429 587 446 q 492 381 511 412 q 466 260 467 338 q 454 148 465 183 q 444 112 450 136 q 434 75 438 88 q 422 46 430 62 q 401 20 414 30 q 370 7 388 11 z "},"~":{"ha":955,"x_min":38,"x_max":909,"o":"m 199 392 q 89 408 140 384 q 42 483 38 433 q 292 688 62 696 q 401 661 355 685 q 472 604 448 637 q 514 538 496 571 q 551 483 532 506 q 595 458 571 460 q 669 476 646 456 q 693 523 692 496 q 704 578 694 549 q 738 617 713 606 q 844 636 784 640 q 905 587 903 632 q 868 418 909 494 q 750 338 827 342 q 633 343 703 335 q 525 366 564 351 q 450 412 481 384 q 404 463 418 441 q 364 500 389 486 q 304 513 339 515 q 255 492 271 510 q 236 452 239 473 q 225 413 233 431 q 199 392 217 395 z "},"":{"ha":438,"x_min":0,"x_max":0,"o":""},"":{"ha":368,"x_min":27,"x_max":321,"o":"m 297 526 q 309 364 297 460 q 321 192 321 269 q 297 34 321 115 q 229 -18 285 -9 q 138 5 174 -26 q 119 24 127 14 q 104 41 111 34 q 92 62 98 49 q 83 81 87 75 q 77 104 80 88 q 72 125 73 119 q 69 149 71 130 q 67 172 68 168 q 65 199 66 176 q 64 225 64 222 q 62 413 56 278 q 68 601 68 548 q 100 673 68 651 q 176 691 133 696 q 255 663 218 686 q 297 526 297 637 m 293 810 q 155 755 263 741 q 38 846 58 769 q 41 934 27 886 q 88 1001 56 982 q 259 981 170 1051 q 307 902 298 949 q 293 810 316 854 z "},"":{"ha":563,"x_min":28,"x_max":526,"o":"m 244 594 q 159 475 168 570 q 203 345 149 387 q 244 594 232 524 m 496 366 q 518 308 526 347 q 479 241 510 269 q 313 172 397 174 q 283 62 288 79 q 254 12 274 31 q 209 0 235 -7 q 169 33 180 7 q 163 92 157 60 q 180 201 165 107 q 87 275 125 227 q 31 452 28 346 q 100 654 33 557 q 274 739 156 730 q 308 883 292 825 q 420 901 320 929 q 446 842 454 891 q 423 711 425 722 q 517 591 495 670 q 496 535 525 560 q 433 513 468 510 q 392 525 408 514 q 353 327 370 408 q 380 343 366 332 q 406 361 395 354 q 429 375 416 369 q 459 379 442 381 q 496 366 476 377 z "},"":{"ha":788,"x_min":34,"x_max":743,"o":"m 537 726 q 456 726 502 751 q 404 658 411 701 q 389 490 389 560 q 496 463 442 494 q 535 402 528 444 q 513 342 543 361 q 404 330 465 312 q 410 261 408 312 q 425 175 411 210 q 498 144 441 141 q 587 175 555 148 q 614 213 605 190 q 626 254 624 236 q 640 287 628 271 q 675 308 651 302 q 728 271 712 315 q 738 179 743 228 q 729 119 734 142 q 713 68 724 96 q 684 24 703 41 q 637 0 665 7 q 439 -33 528 -27 q 280 -32 351 -39 q 79 0 209 -24 q 36 57 34 8 q 83 155 38 106 q 107 170 91 164 q 141 177 123 175 q 175 179 159 179 q 202 179 191 179 l 213 179 q 224 330 224 221 q 224 539 225 438 q 244 746 222 640 q 316 901 266 852 q 646 905 461 1046 q 687 865 670 886 q 713 819 704 845 q 727 772 722 792 q 733 718 732 753 q 733 665 734 682 q 730 604 732 647 q 726 545 727 560 q 684 495 723 513 q 621 500 646 477 q 587 572 593 528 q 575 660 582 617 q 537 726 568 703 z "},"":{"ha":449,"x_min":28,"x_max":419,"o":"m 132 685 q 221 708 171 708 q 315 682 271 708 l 347 716 q 376 728 359 728 q 406 716 393 728 q 418 686 418 704 q 406 656 418 669 l 374 625 q 404 525 404 581 q 381 437 404 476 l 407 410 q 419 380 419 397 q 407 351 419 363 q 378 339 395 339 q 349 351 361 339 l 326 374 q 221 342 278 342 q 121 372 165 342 l 100 351 q 71 339 88 339 q 41 351 53 339 q 28 380 28 363 q 41 410 28 397 l 64 431 q 38 525 38 475 q 71 629 38 582 l 42 656 q 30 686 30 669 q 42 716 30 704 q 72 728 54 728 q 102 716 90 728 l 132 685 m 151 595 q 136 581 151 595 q 121 525 121 566 q 151 454 121 484 q 221 425 180 425 q 292 454 262 425 q 321 525 321 484 q 292 595 321 566 q 221 625 262 625 q 151 595 180 625 z "},"":{"ha":765,"x_min":20,"x_max":746,"o":"m 453 332 q 614 323 509 331 q 652 286 642 321 q 650 214 662 251 q 610 172 637 178 q 460 152 537 156 q 456 37 460 103 q 433 0 453 5 q 355 -9 378 -16 q 339 0 347 -5 q 302 133 297 28 q 303 142 302 136 q 304 153 304 149 q 184 152 243 156 q 138 194 152 151 q 141 282 125 237 q 197 327 157 327 q 250 328 214 327 q 300 330 285 328 q 302 416 300 385 q 38 859 175 604 q 48 922 20 891 q 122 971 76 954 q 203 922 163 986 q 258 836 225 887 q 307 758 290 784 q 345 692 323 731 q 384 616 366 654 q 434 693 407 654 q 478 755 461 732 q 536 832 495 779 q 594 909 576 886 q 604 922 597 913 q 614 936 610 932 q 624 946 617 940 q 638 955 631 952 q 655 958 646 958 q 739 916 719 962 q 745 892 745 903 q 741 867 746 880 q 731 846 735 853 q 716 821 727 838 q 659 724 693 784 q 603 629 624 663 q 542 538 582 595 q 452 415 502 480 q 453 374 453 401 q 453 332 453 347 z "},"":{"ha":279,"x_min":58,"x_max":231,"o":"m 75 8 q 60 297 58 187 q 100 411 61 407 q 195 401 176 418 q 220 331 214 385 q 220 149 227 278 q 216 0 214 20 q 182 -29 217 -18 q 112 -32 148 -41 q 75 8 76 -23 m 66 901 q 81 944 66 926 q 119 967 96 962 q 164 970 141 972 q 203 954 187 968 q 221 917 220 940 q 225 530 231 722 q 186 489 224 500 q 109 496 148 477 q 66 559 71 515 q 64 726 61 579 q 66 901 66 873 z "},"":{"ha":688,"x_min":31,"x_max":673,"o":"m 258 490 q 238 469 258 490 q 217 388 217 448 q 258 285 217 328 q 358 241 300 241 q 458 285 416 241 q 500 388 500 328 q 458 490 500 448 q 358 533 416 533 q 258 490 300 533 m 275 1012 q 399 1015 340 1015 q 515 994 457 1015 q 613 929 574 972 q 608 879 633 906 q 551 837 582 852 q 392 822 506 817 q 263 821 278 827 q 227 779 236 807 q 248 724 218 750 q 350 696 277 697 q 553 609 469 693 q 637 404 637 525 q 597 254 637 323 q 488 148 556 186 q 619 61 566 132 q 637 -100 673 -9 q 404 -245 586 -236 q 157 -224 294 -252 q 61 -157 72 -206 q 129 -71 50 -107 q 288 -57 172 -50 q 416 -54 403 -64 q 452 32 468 -24 q 374 98 437 88 q 342 102 368 99 q 311 107 317 106 q 283 112 304 109 q 256 118 263 115 q 231 126 248 121 q 205 138 214 132 q 183 153 197 144 q 159 172 170 161 q 137 195 148 182 q 62 404 62 283 q 172 633 62 547 q 94 663 126 635 q 50 729 61 692 q 35 805 39 766 q 42 867 31 844 q 275 1012 87 1002 z "},"":{"ha":488,"x_min":43,"x_max":444,"o":"m 179 817 q 96 815 144 791 q 46 883 49 840 q 87 959 43 928 q 171 971 132 990 q 214 897 212 952 q 179 817 217 842 m 412 812 q 346 814 384 791 q 304 875 308 837 q 332 935 300 909 q 396 945 365 962 q 437 882 431 926 q 412 812 444 837 z "},"":{"ha":1084,"x_min":41,"x_max":1035,"o":"m 186 146 q 113 219 186 146 q 41 498 41 292 q 186 849 41 704 q 537 994 331 994 q 889 849 743 994 q 1035 498 1035 704 q 889 146 1035 292 q 537 0 743 0 q 186 146 331 0 m 264 771 q 208 715 264 771 q 152 498 152 659 q 264 224 152 336 q 537 111 377 111 q 810 224 697 111 q 924 498 924 336 q 811 770 924 658 q 537 883 699 883 q 264 771 377 883 m 700 417 q 711 418 700 417 q 741 406 723 419 q 760 368 758 392 q 747 327 762 345 q 545 232 667 232 q 358 309 435 232 q 281 496 281 387 q 358 683 281 606 q 545 760 435 760 q 734 681 658 760 q 749 642 750 665 q 732 602 749 618 q 693 586 716 586 q 654 602 670 586 q 545 648 610 648 q 437 604 481 648 q 392 496 392 559 q 437 389 392 434 q 545 343 483 343 q 662 397 616 343 q 700 417 677 415 z "},"":{"ha":418,"x_min":30,"x_max":378,"o":"m 296 703 q 272 746 296 730 q 203 762 248 762 q 137 746 160 762 q 114 704 114 730 q 137 661 114 677 q 202 644 160 644 q 296 703 296 644 m 68 846 q 60 846 68 846 q 41 860 52 846 q 31 891 30 873 q 45 920 31 909 q 193 975 107 975 q 326 926 273 975 q 378 773 378 878 l 378 602 q 367 573 378 585 q 338 562 355 562 q 301 582 312 562 q 202 560 256 560 q 83 597 136 560 q 30 704 30 635 q 83 810 30 774 q 203 845 137 845 q 290 829 250 845 q 258 880 281 867 q 193 892 235 892 q 99 856 140 892 q 68 846 85 845 z "},"":{"ha":709,"x_min":27,"x_max":678,"o":"m 312 258 q 235 282 262 273 q 169 310 209 292 q 107 347 129 328 q 64 395 85 365 q 34 463 43 425 q 28 505 28 484 q 33 545 27 526 q 46 581 39 564 q 67 614 53 597 q 93 646 81 632 q 125 677 104 659 q 159 705 145 694 q 195 734 172 716 q 316 781 245 774 q 384 738 385 787 q 349 666 381 697 q 280 617 317 635 q 212 568 243 600 q 179 496 180 537 q 201 448 178 465 q 256 425 225 430 q 321 404 288 419 q 370 362 355 388 q 366 290 387 331 q 312 258 345 248 m 604 279 q 527 304 552 296 q 461 330 502 312 q 399 367 420 349 q 356 415 377 385 q 326 483 335 445 q 319 526 320 505 q 325 566 319 547 q 338 601 331 585 q 359 635 345 617 q 385 666 373 652 q 416 697 396 680 q 450 726 437 715 q 487 754 464 736 q 608 802 537 795 q 675 758 677 807 q 641 686 673 718 q 572 637 609 655 q 503 589 534 620 q 471 517 472 557 q 493 469 469 486 q 548 446 517 452 q 613 425 579 441 q 662 384 647 410 q 657 311 678 353 q 604 279 636 270 z "},"":{"ha":776,"x_min":33,"x_max":739,"o":"m 155 604 q 211 610 182 608 q 272 614 240 613 q 329 614 304 614 q 391 612 354 614 q 448 610 427 610 q 507 605 468 609 q 559 600 545 601 q 613 594 572 598 q 661 589 654 590 q 720 507 700 585 q 736 344 739 430 q 728 194 732 258 q 689 155 726 164 q 614 161 652 146 q 567 203 575 175 q 541 408 538 302 l 175 408 q 81 427 121 408 q 38 487 42 445 q 68 564 33 532 q 155 604 103 595 z "},"":{"ha":484,"x_min":18,"x_max":456,"o":"m 350 397 q 220 399 316 399 q 71 406 123 399 q 30 444 42 408 q 28 516 18 479 q 66 564 39 553 q 214 585 115 583 q 354 593 313 587 q 425 565 395 598 q 454 488 456 532 q 350 397 452 392 z "},"":{"ha":1084,"x_min":41,"x_max":1035,"o":"m 732 621 q 680 499 732 548 q 556 448 627 450 q 703 327 689 338 q 722 290 720 313 q 709 248 724 266 q 671 229 694 231 q 631 240 648 227 l 450 389 l 450 278 q 434 239 450 255 q 395 222 418 222 q 355 239 372 222 q 339 278 339 255 l 339 719 q 357 759 339 743 q 395 774 374 774 l 563 774 q 571 775 566 774 q 579 776 576 776 q 688 731 644 776 q 732 621 732 686 m 579 665 q 574 664 578 665 q 567 663 570 663 l 450 663 l 450 559 l 555 559 q 601 578 581 560 q 621 621 621 595 q 609 652 621 640 q 579 665 597 665 m 264 771 q 208 715 264 771 q 152 498 152 659 q 264 224 152 336 q 537 111 377 111 q 810 224 697 111 q 924 498 924 336 q 811 770 924 658 q 537 883 699 883 q 264 771 377 883 m 186 146 q 113 219 186 146 q 41 498 41 292 q 186 849 41 704 q 537 994 331 994 q 889 849 743 994 q 1035 498 1035 704 q 889 146 1035 292 q 537 0 743 0 q 186 146 331 0 z "},"":{"ha":587,"x_min":18,"x_max":557,"o":"m 129 762 q 50 818 81 773 q 46 895 18 863 q 100 937 71 924 q 149 950 129 949 q 214 947 168 951 q 285 944 259 944 q 353 947 309 944 q 422 949 397 949 q 476 945 446 949 q 522 923 506 940 q 545 878 538 906 q 512 791 557 823 q 393 751 467 758 q 249 747 320 743 q 129 762 178 750 z "},"":{"ha":439,"x_min":39,"x_max":403,"o":"m 136 789 q 161 729 136 754 q 221 704 187 704 q 280 729 255 704 q 305 789 305 754 q 280 849 305 825 q 221 873 255 873 q 161 848 186 873 q 136 789 136 823 m 93 660 q 66 687 93 660 q 39 789 39 713 q 93 918 39 865 q 221 971 146 971 q 349 918 296 971 q 403 789 403 865 q 349 660 403 713 q 221 606 296 606 q 93 660 146 606 z "},"":{"ha":571,"x_min":34,"x_max":540,"o":"m 425 -8 q 271 -7 391 -7 q 99 0 152 -7 q 58 38 71 3 q 57 111 46 73 q 95 159 68 148 q 265 180 144 178 q 429 187 387 182 q 500 159 469 193 q 529 83 530 126 q 425 -8 526 -14 m 378 425 q 372 331 377 410 q 353 286 369 304 q 311 267 336 269 q 259 269 279 266 q 220 285 239 271 q 198 323 202 298 q 190 414 193 355 q 125 415 149 414 q 58 458 81 416 q 42 544 34 499 q 85 600 50 586 q 179 612 121 613 q 191 611 183 612 q 202 610 198 610 q 208 700 208 665 q 249 777 209 749 q 340 787 289 806 q 380 739 377 773 q 382 613 382 642 q 393 614 385 613 q 404 616 401 616 q 461 618 437 618 q 504 605 486 618 q 529 562 522 591 q 516 477 540 518 q 450 431 492 437 q 414 428 439 430 q 378 425 389 426 z "},"":{"ha":442,"x_min":31,"x_max":393,"o":"m 195 850 q 149 789 167 845 q 100 730 132 734 q 50 759 68 726 q 38 829 31 792 q 146 975 56 928 q 330 975 243 1024 q 388 842 393 941 q 387 804 388 818 q 377 756 385 789 q 356 700 369 723 q 315 651 343 677 q 247 612 286 625 q 373 614 345 620 q 387 567 389 610 q 369 518 385 524 q 281 501 324 503 q 178 503 237 499 q 77 506 118 507 q 58 547 52 510 q 85 610 65 583 q 181 681 98 625 q 271 766 264 736 q 253 828 278 799 q 195 850 228 857 z "},"":{"ha":454,"x_min":30,"x_max":433,"o":"m 109 762 q 52 788 75 765 q 34 842 30 811 q 141 991 49 949 q 325 979 244 1038 q 416 821 406 921 q 362 716 425 735 q 404 595 433 686 q 279 492 378 511 q 92 525 180 472 q 38 642 30 560 q 62 680 41 666 q 109 684 84 693 q 134 639 127 675 q 159 591 141 602 q 212 581 182 576 q 262 604 241 586 q 290 647 282 623 q 275 696 297 671 q 233 703 264 709 q 187 708 201 697 q 177 740 174 720 q 195 770 180 760 q 250 779 212 783 q 300 792 288 776 q 294 845 316 810 q 233 875 273 880 q 185 852 205 871 q 158 812 165 833 q 138 777 151 792 q 109 762 126 761 z "},"":{"ha":338,"x_min":-3,"x_max":298,"o":"m 75 684 q 91 854 -3 693 q 201 930 126 914 q 290 907 269 945 q 296 875 297 894 q 223 732 289 791 q 75 684 157 674 z "},"":{"ha":822,"x_min":30,"x_max":804,"o":"m 557 38 q 301 -34 452 -56 q 220 -9 263 -28 q 214 -130 217 -92 q 172 -233 210 -206 q 80 -228 138 -256 q 42 -164 45 -209 q 30 239 30 27 q 56 621 30 452 q 85 664 60 650 q 142 675 110 678 q 195 655 174 673 q 222 609 217 637 q 227 427 237 567 q 218 245 217 286 q 271 176 220 206 q 381 151 321 145 q 460 205 441 156 q 470 315 471 240 q 465 466 469 391 q 473 604 460 541 q 522 675 486 666 q 625 650 591 694 q 654 528 652 613 q 645 361 656 442 q 633 207 633 279 q 658 117 633 134 q 715 112 674 106 q 766 100 755 118 q 764 0 804 56 q 661 -34 720 -57 q 557 38 585 -1 z "},"":{"ha":880,"x_min":38,"x_max":825,"o":"m 404 50 q 380 426 366 248 q 213 443 281 422 q 104 533 145 464 q 52 755 38 648 q 155 925 65 863 q 307 988 225 975 q 506 993 388 1001 q 667 987 624 985 q 774 954 750 993 q 795 905 791 928 q 798 843 800 882 q 796 788 795 804 q 817 217 818 321 q 819 154 817 194 q 823 91 822 114 q 817 41 825 68 q 788 0 808 15 q 709 -18 750 -31 q 662 46 667 -4 q 627 808 631 354 q 508 803 617 807 q 332 781 399 799 q 233 720 266 764 q 210 641 206 685 q 250 571 214 597 q 286 558 266 560 q 322 560 307 556 q 360 570 338 564 q 397 578 382 576 q 404 620 400 593 q 408 658 407 647 q 466 684 412 684 q 525 658 519 684 q 534 526 534 610 q 537 408 534 441 q 541 352 538 389 q 545 293 544 315 q 549 237 547 271 q 551 180 551 202 q 550 130 551 159 q 546 83 549 102 q 538 47 543 65 q 526 17 534 28 q 509 0 518 5 q 441 -8 469 -22 q 404 50 414 5 z "},"":{"ha":388,"x_min":39,"x_max":353,"o":"m 292 591 q 347 486 340 549 q 312 370 353 422 q 205 323 270 321 q 88 370 141 326 q 45 441 52 400 q 52 514 39 483 q 88 575 65 545 q 177 624 119 616 q 292 591 235 632 z "},"":{"ha":376,"x_min":26,"x_max":343,"o":"m 91 83 q 144 113 109 113 q 214 94 179 113 q 279 46 250 75 q 332 -37 320 8 q 312 -125 343 -83 q 259 -166 288 -151 q 201 -186 231 -182 q 138 -191 172 -190 q 66 -191 103 -193 q 35 -163 45 -191 q 42 -121 26 -134 q 89 -104 60 -107 q 142 -106 118 -102 q 186 -103 165 -110 q 213 -75 208 -96 q 196 -28 218 -50 q 144 7 174 -7 q 97 40 115 20 q 91 83 79 60 z "},"":{"ha":363,"x_min":23,"x_max":316,"o":"m 183 823 q 175 849 184 849 q 134 817 168 849 q 83 795 99 785 q 37 846 50 812 q 46 903 23 879 q 63 919 53 909 q 78 933 73 929 q 92 945 83 937 q 105 956 100 952 q 119 965 110 959 q 137 975 129 971 q 157 984 145 979 q 183 994 170 989 q 254 1008 214 1009 q 296 978 293 1006 q 313 525 316 785 q 274 490 313 495 q 210 509 235 486 q 183 823 170 544 z "},"":{"ha":423,"x_min":26,"x_max":391,"o":"m 110 768 q 140 685 110 718 q 209 652 170 652 q 278 685 248 652 q 308 768 308 718 q 278 849 308 817 q 209 882 248 882 q 140 849 170 882 q 110 768 110 817 m 79 629 q 52 658 79 629 q 26 768 26 688 q 79 906 26 848 q 209 964 132 964 q 338 906 286 964 q 391 768 391 848 q 338 628 391 686 q 209 570 286 570 q 79 629 132 570 z "},"":{"ha":709,"x_min":24,"x_max":677,"o":"m 99 780 q 163 760 142 766 q 220 739 184 753 q 276 711 256 724 q 319 678 296 699 q 357 633 343 658 q 378 576 370 608 q 385 534 384 555 q 379 494 385 513 q 366 458 373 475 q 345 425 359 442 q 318 393 330 407 q 286 362 307 380 q 252 334 266 345 q 216 305 239 323 q 95 258 164 264 q 28 301 27 254 q 63 373 31 342 q 132 422 95 404 q 199 471 168 439 q 232 543 231 502 q 210 591 233 574 q 155 613 186 608 q 90 634 123 618 q 41 675 56 650 q 45 748 24 707 q 99 780 66 789 m 391 802 q 487 770 454 783 q 564 734 519 758 q 633 677 608 711 q 670 597 658 643 q 676 554 675 575 q 671 514 677 533 q 658 479 665 495 q 636 445 651 463 q 610 414 621 427 q 578 382 598 400 q 544 354 557 365 q 507 326 530 343 q 387 278 456 285 q 320 321 319 274 q 355 393 323 362 q 423 442 387 425 q 491 491 460 460 q 524 563 522 522 q 501 612 525 594 q 446 635 477 629 q 381 656 415 640 q 332 697 347 671 q 337 770 316 728 q 391 802 358 811 z "},"":{"ha":1072,"x_min":18,"x_max":1038,"o":"m 745 275 q 863 288 821 288 q 880 481 867 374 q 905 505 882 499 q 941 496 929 510 q 956 474 951 487 q 961 452 960 461 q 961 426 962 444 q 960 399 960 408 q 964 273 962 338 q 973 270 967 271 q 982 267 979 269 q 1019 237 1002 260 q 1037 193 1036 213 q 1017 164 1038 172 q 964 151 993 157 q 949 39 959 90 q 930 14 947 26 q 900 1 914 3 q 880 12 886 0 q 865 138 868 92 q 627 171 769 134 q 627 264 587 182 q 696 399 666 351 q 779 503 726 448 q 815 510 791 517 q 837 486 840 503 q 827 443 833 464 q 816 409 821 422 q 800 374 811 396 q 785 345 788 351 q 765 310 781 338 q 745 275 749 282 m 178 741 q 168 766 179 768 q 126 732 163 765 q 77 711 94 701 q 31 762 45 728 q 41 819 18 795 q 62 840 47 826 q 82 858 77 853 q 99 871 87 863 q 120 886 111 880 q 144 898 129 891 q 178 911 159 905 q 248 925 209 926 q 290 894 288 924 q 308 442 311 701 q 269 407 308 412 q 205 425 229 401 q 178 741 164 460 m 312 30 q 230 62 267 23 q 209 141 193 100 q 256 256 233 203 q 312 368 279 309 q 361 457 345 426 q 424 555 378 488 q 482 640 469 621 q 556 741 495 658 q 629 842 617 825 q 766 917 684 917 q 835 895 804 917 q 854 842 865 872 q 714 530 785 656 q 500 191 643 403 q 411 76 439 102 q 312 30 369 39 z "},"":{"ha":1035,"x_min":18,"x_max":1009,"o":"m 812 366 q 766 305 784 361 q 716 245 747 250 q 665 275 684 241 q 654 346 647 309 q 762 491 671 444 q 945 491 859 540 q 1004 358 1009 457 q 1000 306 1002 326 q 985 246 997 286 q 943 176 974 206 q 864 127 913 145 q 990 130 962 136 q 1004 83 1006 126 q 986 35 1002 41 q 898 18 941 20 q 794 19 854 15 q 694 22 734 23 q 675 62 669 26 q 703 126 682 99 q 797 197 713 141 q 887 283 880 254 q 869 345 894 316 q 812 366 845 373 m 178 741 q 168 766 179 768 q 126 732 163 765 q 77 711 94 701 q 31 762 45 728 q 41 819 18 795 q 62 840 47 826 q 82 858 77 853 q 99 871 87 863 q 120 886 111 880 q 144 898 129 891 q 178 911 159 905 q 248 925 209 926 q 290 894 288 924 q 308 442 311 701 q 269 407 308 412 q 205 425 229 401 q 178 741 164 460 m 312 30 q 230 62 267 23 q 209 141 193 100 q 256 256 233 203 q 312 368 279 309 q 361 457 345 426 q 424 555 378 488 q 482 640 469 621 q 556 741 495 658 q 629 842 617 825 q 766 917 684 917 q 835 895 804 917 q 854 842 865 872 q 714 530 785 656 q 500 191 643 403 q 411 76 439 102 q 312 30 369 39 z "},"":{"ha":1072,"x_min":30,"x_max":1038,"o":"m 109 762 q 52 788 75 765 q 34 842 30 811 q 141 991 49 949 q 325 979 244 1038 q 416 821 406 921 q 362 716 425 735 q 404 595 433 686 q 279 492 378 511 q 92 525 180 472 q 38 642 30 560 q 62 680 41 666 q 109 684 84 693 q 134 639 127 675 q 159 591 141 602 q 212 581 182 576 q 262 604 241 586 q 290 647 282 623 q 275 696 297 671 q 233 703 264 709 q 187 708 201 697 q 177 740 174 720 q 195 770 180 760 q 250 779 212 783 q 300 792 288 776 q 294 845 316 810 q 233 875 273 880 q 185 852 205 871 q 158 812 165 833 q 138 777 151 792 q 109 762 126 761 m 745 275 q 863 288 821 288 q 880 481 867 374 q 905 505 882 499 q 941 496 929 510 q 956 474 951 487 q 961 452 960 461 q 961 426 962 444 q 960 399 960 408 q 964 273 962 338 q 973 270 967 271 q 982 267 979 269 q 1019 237 1002 260 q 1037 193 1036 213 q 1017 164 1038 172 q 964 151 993 157 q 949 39 959 90 q 930 14 947 26 q 900 1 914 3 q 880 12 886 0 q 865 138 868 92 q 627 171 769 134 q 627 264 587 182 q 696 399 666 351 q 779 503 726 448 q 815 510 791 517 q 837 486 840 503 q 827 443 833 464 q 816 409 821 422 q 800 374 811 396 q 785 345 788 351 q 765 310 781 338 q 745 275 749 282 m 312 30 q 230 62 267 23 q 209 141 193 100 q 256 256 233 203 q 312 368 279 309 q 361 457 345 426 q 424 555 378 488 q 482 640 469 621 q 556 741 495 658 q 629 842 617 825 q 766 917 684 917 q 835 895 804 917 q 854 842 865 872 q 714 530 785 656 q 500 191 643 403 q 411 76 439 102 q 312 30 369 39 z "},"":{"ha":709,"x_min":-1,"x_max":659,"o":"m 247 960 q 264 960 251 960 q 281 958 277 959 q 296 956 285 958 q 311 951 307 955 q 324 942 316 948 q 336 927 332 936 q 343 906 339 918 q 348 877 347 894 q 349 840 349 860 q 313 790 347 802 q 239 784 279 779 q 186 806 208 788 q 164 852 165 823 q 184 927 163 892 q 247 960 205 962 m 403 214 q 476 239 438 210 q 547 288 514 269 q 612 289 581 308 q 655 193 659 254 q 608 84 651 132 q 463 5 564 37 q 255 -21 361 -27 q 107 39 149 -15 q 57 359 -1 179 q 95 416 68 393 q 151 448 122 438 q 213 478 180 458 q 262 526 245 498 q 275 598 282 560 q 236 659 269 636 q 180 646 217 673 q 123 627 144 618 q 104 666 102 636 q 127 705 107 696 q 262 750 224 747 q 345 722 309 751 q 403 468 444 635 q 371 425 396 442 q 319 401 346 408 q 271 376 293 393 q 250 331 250 358 q 294 250 250 279 q 403 214 339 221 z "},"":{"ha":876,"x_min":31,"x_max":859,"o":"m 548 1035 q 399 1084 465 1025 q 327 1226 334 1142 q 378 1284 323 1278 q 496 1245 439 1293 q 530 1206 518 1227 q 548 1035 624 1044 m 568 540 q 513 726 564 652 q 413 764 465 781 q 321 680 361 746 q 285 552 281 613 q 375 551 309 552 q 483 549 441 551 q 568 540 525 547 m 251 362 q 252 286 251 345 q 251 200 252 228 q 241 127 250 172 q 217 42 233 81 q 153 5 203 8 q 92 38 102 3 q 47 301 52 180 q 71 567 42 422 q 86 647 75 586 q 103 730 98 708 q 124 797 109 751 q 156 865 140 842 q 201 916 172 888 q 267 963 229 944 q 425 1008 345 1001 q 579 983 506 1015 q 696 883 652 952 q 786 690 754 791 q 823 476 818 589 q 823 271 829 363 q 800 46 818 178 q 751 -4 795 8 q 658 -1 707 -16 q 591 50 609 15 q 560 363 541 156 q 407 366 540 363 q 251 362 274 369 z "},"":{"ha":876,"x_min":31,"x_max":859,"o":"m 343 1039 q 359 1210 266 1048 q 469 1286 395 1270 q 559 1263 537 1301 q 564 1230 566 1249 q 492 1088 557 1146 q 343 1039 426 1029 m 568 540 q 513 726 564 652 q 413 764 465 781 q 321 680 361 746 q 285 552 281 613 q 375 551 309 552 q 483 549 441 551 q 568 540 525 547 m 251 362 q 252 286 251 345 q 251 200 252 228 q 241 127 250 172 q 217 42 233 81 q 153 5 203 8 q 92 38 102 3 q 47 301 52 180 q 71 567 42 422 q 86 647 75 586 q 103 730 98 708 q 124 797 109 751 q 156 865 140 842 q 201 916 172 888 q 267 963 229 944 q 425 1008 345 1001 q 579 983 506 1015 q 696 883 652 952 q 786 690 754 791 q 823 476 818 589 q 823 271 829 363 q 800 46 818 178 q 751 -4 795 8 q 658 -1 707 -16 q 591 50 609 15 q 560 363 541 156 q 407 366 540 363 q 251 362 274 369 z "},"":{"ha":876,"x_min":31,"x_max":859,"o":"m 235 1070 q 286 1166 251 1128 q 385 1245 320 1203 q 502 1241 438 1279 q 549 1213 514 1233 q 598 1183 585 1194 q 634 1154 612 1173 q 667 1112 656 1134 q 681 1062 677 1090 q 669 1031 684 1042 q 629 1022 655 1021 q 579 1027 604 1023 q 530 1038 555 1031 q 503 1057 517 1042 q 479 1087 488 1072 q 460 1116 471 1103 q 439 1131 449 1130 q 416 1119 430 1133 q 394 1089 406 1107 q 376 1063 382 1072 q 357 1045 370 1054 q 323 1029 343 1036 q 260 1032 293 1020 q 235 1070 227 1044 m 568 540 q 513 726 564 652 q 413 764 465 781 q 321 680 361 746 q 285 552 281 613 q 375 551 309 552 q 483 549 441 551 q 568 540 525 547 m 251 362 q 252 286 251 345 q 251 200 252 228 q 241 127 250 172 q 217 42 233 81 q 153 5 203 8 q 92 38 102 3 q 47 301 52 180 q 71 567 42 422 q 86 647 75 586 q 103 730 98 708 q 124 797 109 751 q 156 865 140 842 q 201 916 172 888 q 267 963 229 944 q 425 1008 345 1001 q 579 983 506 1015 q 696 883 652 952 q 786 690 754 791 q 823 476 818 589 q 823 271 829 363 q 800 46 818 178 q 751 -4 795 8 q 658 -1 707 -16 q 591 50 609 15 q 560 363 541 156 q 407 366 540 363 q 251 362 274 369 z "},"":{"ha":876,"x_min":31,"x_max":859,"o":"m 373 1179 q 336 1166 349 1180 q 319 1135 323 1153 q 303 1097 316 1116 q 269 1069 290 1077 q 208 1084 237 1058 q 187 1142 178 1111 q 345 1322 229 1289 q 405 1318 376 1331 q 456 1283 434 1306 q 498 1236 479 1260 q 535 1194 518 1211 q 564 1179 552 1177 q 597 1196 587 1181 q 608 1229 608 1211 q 615 1268 608 1246 q 640 1303 623 1290 q 688 1310 659 1318 q 719 1279 718 1302 q 713 1159 724 1207 q 659 1070 703 1111 q 488 1055 590 1002 q 448 1100 463 1069 q 418 1154 433 1131 q 373 1179 404 1177 m 568 540 q 513 726 564 652 q 413 764 465 781 q 321 680 361 746 q 285 552 281 613 q 375 551 309 552 q 483 549 441 551 q 568 540 525 547 m 251 362 q 252 286 251 345 q 251 200 252 228 q 241 127 250 172 q 217 42 233 81 q 153 5 203 8 q 92 38 102 3 q 47 301 52 180 q 71 567 42 422 q 86 647 75 586 q 103 730 98 708 q 124 797 109 751 q 156 865 140 842 q 201 916 172 888 q 267 963 229 944 q 425 1008 345 1001 q 579 983 506 1015 q 696 883 652 952 q 786 690 754 791 q 823 476 818 589 q 823 271 829 363 q 800 46 818 178 q 751 -4 795 8 q 658 -1 707 -16 q 591 50 609 15 q 560 363 541 156 q 407 366 540 363 q 251 362 274 369 z "},"":{"ha":876,"x_min":31,"x_max":859,"o":"m 374 1051 q 292 1050 339 1025 q 241 1118 244 1074 q 283 1194 239 1162 q 366 1206 327 1225 q 410 1132 407 1187 q 374 1051 412 1077 m 608 1047 q 541 1048 579 1025 q 499 1109 503 1072 q 528 1170 495 1143 q 591 1180 560 1196 q 633 1116 627 1161 q 608 1047 639 1072 m 568 540 q 513 726 564 652 q 413 764 465 781 q 321 680 361 746 q 285 552 281 613 q 375 551 309 552 q 483 549 441 551 q 568 540 525 547 m 251 362 q 252 286 251 345 q 251 200 252 228 q 241 127 250 172 q 217 42 233 81 q 153 5 203 8 q 92 38 102 3 q 47 301 52 180 q 71 567 42 422 q 86 647 75 586 q 103 730 98 708 q 124 797 109 751 q 156 865 140 842 q 201 916 172 888 q 267 963 229 944 q 425 1008 345 1001 q 579 983 506 1015 q 696 883 652 952 q 786 690 754 791 q 823 476 818 589 q 823 271 829 363 q 800 46 818 178 q 751 -4 795 8 q 658 -1 707 -16 q 591 50 609 15 q 560 363 541 156 q 407 366 540 363 q 251 362 274 369 z "},"":{"ha":876,"x_min":31,"x_max":859,"o":"m 491 1141 q 429 1156 461 1172 q 378 1095 397 1139 q 395 1028 365 1062 q 457 1008 425 994 q 513 1064 503 1025 q 491 1141 522 1103 m 537 954 q 423 920 490 907 q 320 1004 357 933 q 302 1113 292 1058 q 358 1207 312 1168 q 450 1249 404 1248 q 533 1203 496 1249 q 585 1074 581 1141 q 537 954 589 1006 m 568 540 q 513 726 564 652 q 413 764 465 781 q 321 680 361 746 q 285 552 281 613 q 375 551 309 552 q 483 549 441 551 q 568 540 525 547 m 251 362 q 252 286 251 345 q 251 200 252 228 q 241 127 250 172 q 217 42 233 81 q 153 5 203 8 q 92 38 102 3 q 47 301 52 180 q 71 567 42 422 q 86 647 75 586 q 103 730 98 708 q 124 797 109 751 q 156 865 140 842 q 201 916 172 888 q 267 963 229 944 q 425 1008 345 1001 q 579 983 506 1015 q 696 883 652 952 q 786 690 754 791 q 823 476 818 589 q 823 271 829 363 q 800 46 818 178 q 751 -4 795 8 q 658 -1 707 -16 q 591 50 609 15 q 560 363 541 156 q 407 366 540 363 q 251 362 274 369 z "},"":{"ha":1335,"x_min":42,"x_max":1316,"o":"m 251 362 q 252 286 251 345 q 251 200 252 228 q 241 127 250 172 q 217 42 233 81 q 153 5 203 8 q 92 38 102 3 q 47 301 52 180 q 71 567 42 422 q 86 647 75 586 q 103 730 98 708 q 124 797 109 751 q 156 865 140 842 q 201 916 172 888 q 267 963 229 944 q 395 1002 330 994 q 543 1004 460 1009 q 663 1000 625 998 q 903 1006 789 1010 q 1139 971 1017 1002 q 1192 897 1173 963 q 1180 821 1211 831 q 1044 808 1115 799 q 928 828 974 817 q 793 812 882 840 q 762 755 765 803 q 782 661 760 707 q 838 613 804 616 q 975 619 879 610 q 1109 613 1070 628 q 1172 529 1157 602 q 1147 425 1190 441 q 1000 405 1084 399 q 852 388 916 411 q 818 333 829 378 q 823 245 807 288 q 880 205 838 203 q 976 221 924 206 q 1061 248 1028 236 q 1145 264 1095 260 q 1234 250 1195 269 q 1280 83 1316 217 q 1168 0 1263 12 q 970 -22 1029 -16 q 814 -24 910 -27 q 618 0 718 -20 q 571 64 587 7 q 555 182 555 121 q 556 288 556 243 q 549 363 551 339 q 456 366 517 363 q 347 367 395 368 q 251 362 298 366 m 513 726 q 413 764 465 781 q 321 680 361 746 q 285 552 281 613 q 538 544 528 545 q 538 593 538 553 q 536 648 537 632 q 528 687 534 663 q 513 726 522 711 z "},"":{"ha":959,"x_min":28,"x_max":932,"o":"m 475 746 q 356 665 396 730 q 318 524 316 600 q 354 392 320 449 q 432 292 392 327 q 507 254 472 258 q 577 258 541 250 q 644 291 613 267 q 707 336 674 315 q 765 378 739 358 q 818 399 791 397 q 867 384 845 400 q 915 229 932 326 q 821 83 898 133 q 658 5 739 30 q 589 -11 624 -5 q 568 -94 598 -60 q 515 -135 544 -119 q 458 -155 487 -151 q 394 -160 429 -159 q 323 -160 359 -161 q 291 -132 301 -160 q 297 -90 281 -103 q 344 -73 315 -76 q 397 -75 373 -71 q 441 -72 420 -79 q 468 -43 463 -65 q 465 -15 472 -28 q 227 85 331 -1 q 75 316 122 172 q 39 580 28 441 q 129 821 50 719 q 298 944 202 914 q 545 975 393 974 q 730 942 651 977 q 879 829 808 907 q 888 739 911 792 q 817 675 865 685 q 703 688 761 665 q 588 734 646 711 q 475 746 530 757 z "},"":{"ha":842,"x_min":19,"x_max":802,"o":"m 484 1039 q 336 1088 401 1029 q 263 1230 270 1146 q 315 1289 259 1282 q 433 1249 376 1297 q 467 1210 454 1232 q 484 1039 560 1048 m 684 821 q 548 808 618 799 q 431 828 477 817 q 296 812 384 840 q 232 746 243 793 q 254 658 221 699 q 342 613 286 617 q 478 619 382 610 q 613 613 574 628 q 675 529 661 602 q 650 425 693 441 q 502 405 586 399 q 354 388 418 411 q 297 342 315 373 q 285 279 279 311 q 317 226 290 248 q 384 205 343 203 q 479 221 427 206 q 565 248 532 236 q 648 264 598 260 q 738 250 699 269 q 784 83 819 217 q 671 0 766 12 q 473 -22 533 -16 q 316 -24 412 -27 q 121 0 220 -20 q 100 10 109 3 q 86 25 91 18 q 78 47 81 33 q 74 71 75 62 q 72 99 73 80 q 71 125 71 118 q 54 330 66 176 q 40 541 42 484 q 40 711 38 598 q 54 937 42 825 q 167 1000 61 994 q 406 1006 293 1010 q 642 971 519 1002 q 695 897 675 963 q 684 821 715 831 z "},"":{"ha":842,"x_min":19,"x_max":802,"o":"m 326 1035 q 342 1206 248 1044 q 452 1282 377 1265 q 541 1259 519 1297 q 547 1226 548 1245 q 474 1084 540 1142 q 326 1035 408 1025 m 684 821 q 548 808 618 799 q 431 828 477 817 q 296 812 384 840 q 232 746 243 793 q 254 658 221 699 q 342 613 286 617 q 478 619 382 610 q 613 613 574 628 q 675 529 661 602 q 650 425 693 441 q 502 405 586 399 q 354 388 418 411 q 297 342 315 373 q 285 279 279 311 q 317 226 290 248 q 384 205 343 203 q 479 221 427 206 q 565 248 532 236 q 648 264 598 260 q 738 250 699 269 q 784 83 819 217 q 671 0 766 12 q 473 -22 533 -16 q 316 -24 412 -27 q 121 0 220 -20 q 100 10 109 3 q 86 25 91 18 q 78 47 81 33 q 74 71 75 62 q 72 99 73 80 q 71 125 71 118 q 54 330 66 176 q 40 541 42 484 q 40 711 38 598 q 54 937 42 825 q 167 1000 61 994 q 406 1006 293 1010 q 642 971 519 1002 q 695 897 675 963 q 684 821 715 831 z "},"":{"ha":842,"x_min":19,"x_max":802,"o":"m 205 1081 q 256 1177 221 1139 q 355 1256 290 1214 q 472 1252 408 1290 q 519 1224 484 1244 q 568 1194 555 1204 q 604 1164 582 1184 q 637 1123 627 1145 q 651 1073 647 1101 q 640 1042 654 1053 q 600 1033 625 1032 q 549 1038 574 1034 q 500 1048 525 1042 q 473 1067 487 1053 q 450 1098 458 1082 q 430 1127 441 1114 q 410 1142 419 1141 q 387 1130 400 1143 q 364 1100 376 1118 q 347 1074 353 1082 q 327 1056 340 1065 q 293 1040 313 1047 q 230 1043 263 1031 q 205 1081 197 1055 m 684 821 q 548 808 618 799 q 431 828 477 817 q 296 812 384 840 q 232 746 243 793 q 254 658 221 699 q 342 613 286 617 q 478 619 382 610 q 613 613 574 628 q 675 529 661 602 q 650 425 693 441 q 502 405 586 399 q 354 388 418 411 q 297 342 315 373 q 285 279 279 311 q 317 226 290 248 q 384 205 343 203 q 479 221 427 206 q 565 248 532 236 q 648 264 598 260 q 738 250 699 269 q 784 83 819 217 q 671 0 766 12 q 473 -22 533 -16 q 316 -24 412 -27 q 121 0 220 -20 q 100 10 109 3 q 86 25 91 18 q 78 47 81 33 q 74 71 75 62 q 72 99 73 80 q 71 125 71 118 q 54 330 66 176 q 40 541 42 484 q 40 711 38 598 q 54 937 42 825 q 167 1000 61 994 q 406 1006 293 1010 q 642 971 519 1002 q 695 897 675 963 q 684 821 715 831 z "},"":{"ha":842,"x_min":19,"x_max":802,"o":"m 361 1059 q 278 1058 326 1034 q 228 1126 231 1082 q 269 1202 225 1171 q 353 1214 313 1233 q 396 1140 393 1195 q 361 1059 399 1085 m 594 1055 q 528 1057 566 1034 q 486 1118 490 1080 q 514 1178 481 1152 q 578 1188 547 1204 q 619 1124 613 1169 q 594 1055 625 1080 m 684 821 q 548 808 618 799 q 431 828 477 817 q 296 812 384 840 q 232 746 243 793 q 254 658 221 699 q 342 613 286 617 q 478 619 382 610 q 613 613 574 628 q 675 529 661 602 q 650 425 693 441 q 502 405 586 399 q 354 388 418 411 q 297 342 315 373 q 285 279 279 311 q 317 226 290 248 q 384 205 343 203 q 479 221 427 206 q 565 248 532 236 q 648 264 598 260 q 738 250 699 269 q 784 83 819 217 q 671 0 766 12 q 473 -22 533 -16 q 316 -24 412 -27 q 121 0 220 -20 q 100 10 109 3 q 86 25 91 18 q 78 47 81 33 q 74 71 75 62 q 72 99 73 80 q 71 125 71 118 q 54 330 66 176 q 40 541 42 484 q 40 711 38 598 q 54 937 42 825 q 167 1000 61 994 q 406 1006 293 1010 q 642 971 519 1002 q 695 897 675 963 q 684 821 715 831 z "},"":{"ha":772,"x_min":28,"x_max":732,"o":"m 487 1047 q 338 1096 404 1038 q 266 1238 273 1154 q 317 1297 262 1290 q 435 1257 378 1305 q 469 1218 457 1240 q 487 1047 563 1057 m 283 777 q 224 800 263 802 q 155 792 186 799 q 92 811 125 785 q 51 902 56 846 q 88 970 46 958 q 374 1002 255 1008 q 658 948 494 997 q 705 881 700 936 q 675 795 709 826 q 574 778 650 770 q 487 753 499 785 q 478 707 479 736 q 482 627 477 678 q 487 545 487 576 q 487 488 487 526 q 488 426 487 449 q 489 369 488 403 q 491 313 490 335 q 495 266 492 290 q 503 225 498 241 q 513 199 507 209 q 557 171 528 175 q 620 165 586 167 q 675 146 654 164 q 715 62 713 115 q 671 0 716 9 q 485 -18 578 -16 q 338 -16 392 -20 q 163 0 285 -12 q 66 62 80 8 q 113 205 43 159 q 157 212 129 214 q 212 201 184 209 q 260 195 239 194 q 283 213 281 195 q 284 312 289 235 q 283 433 279 389 q 292 515 286 461 q 301 600 298 568 q 305 671 304 632 q 301 736 307 711 q 283 777 296 762 z "},"":{"ha":772,"x_min":28,"x_max":732,"o":"m 292 1047 q 308 1218 214 1057 q 418 1294 343 1278 q 507 1271 486 1309 q 513 1238 514 1257 q 440 1096 506 1154 q 292 1047 374 1038 m 283 777 q 224 800 263 802 q 155 792 186 799 q 92 811 125 785 q 51 902 56 846 q 88 970 46 958 q 374 1002 255 1008 q 658 948 494 997 q 705 881 700 936 q 675 795 709 826 q 574 778 650 770 q 487 753 499 785 q 478 707 479 736 q 482 627 477 678 q 487 545 487 576 q 487 488 487 526 q 488 426 487 449 q 489 369 488 403 q 491 313 490 335 q 495 266 492 290 q 503 225 498 241 q 513 199 507 209 q 557 171 528 175 q 620 165 586 167 q 675 146 654 164 q 715 62 713 115 q 671 0 716 9 q 485 -18 578 -16 q 338 -16 392 -20 q 163 0 285 -12 q 66 62 80 8 q 113 205 43 159 q 157 212 129 214 q 212 201 184 209 q 260 195 239 194 q 283 213 281 195 q 284 312 289 235 q 283 433 279 389 q 292 515 286 461 q 301 600 298 568 q 305 671 304 632 q 301 736 307 711 q 283 777 296 762 z "},"":{"ha":772,"x_min":28,"x_max":732,"o":"m 171 1081 q 222 1177 187 1139 q 321 1256 256 1214 q 438 1252 374 1290 q 486 1224 450 1244 q 534 1194 521 1204 q 570 1164 548 1184 q 603 1123 593 1145 q 617 1073 613 1101 q 606 1042 620 1053 q 566 1033 591 1032 q 515 1038 540 1034 q 467 1048 491 1042 q 439 1067 453 1053 q 416 1098 425 1082 q 396 1127 407 1114 q 376 1142 385 1141 q 353 1130 366 1143 q 330 1100 342 1118 q 313 1074 319 1082 q 293 1056 307 1065 q 259 1040 279 1047 q 196 1043 229 1031 q 171 1081 163 1055 m 283 777 q 224 800 263 802 q 155 792 186 799 q 92 811 125 785 q 51 902 56 846 q 88 970 46 958 q 374 1002 255 1008 q 658 948 494 997 q 705 881 700 936 q 675 795 709 826 q 574 778 650 770 q 487 753 499 785 q 478 707 479 736 q 482 627 477 678 q 487 545 487 576 q 487 488 487 526 q 488 426 487 449 q 489 369 488 403 q 491 313 490 335 q 495 266 492 290 q 503 225 498 241 q 513 199 507 209 q 557 171 528 175 q 620 165 586 167 q 675 146 654 164 q 715 62 713 115 q 671 0 716 9 q 485 -18 578 -16 q 338 -16 392 -20 q 163 0 285 -12 q 66 62 80 8 q 113 205 43 159 q 157 212 129 214 q 212 201 184 209 q 260 195 239 194 q 283 213 281 195 q 284 312 289 235 q 283 433 279 389 q 292 515 286 461 q 301 600 298 568 q 305 671 304 632 q 301 736 307 711 q 283 777 296 762 z "},"":{"ha":772,"x_min":28,"x_max":732,"o":"m 323 1046 q 240 1044 288 1020 q 190 1112 193 1069 q 231 1188 187 1157 q 315 1200 275 1219 q 358 1126 355 1181 q 323 1046 361 1072 m 556 1042 q 490 1043 528 1020 q 448 1104 452 1066 q 476 1164 444 1138 q 540 1175 509 1191 q 581 1111 575 1156 q 556 1042 587 1066 m 283 777 q 224 800 263 802 q 155 792 186 799 q 92 811 125 785 q 51 902 56 846 q 88 970 46 958 q 374 1002 255 1008 q 658 948 494 997 q 705 881 700 936 q 675 795 709 826 q 574 778 650 770 q 487 753 499 785 q 478 707 479 736 q 482 627 477 678 q 487 545 487 576 q 487 488 487 526 q 488 426 487 449 q 489 369 488 403 q 491 313 490 335 q 495 266 492 290 q 503 225 498 241 q 513 199 507 209 q 557 171 528 175 q 620 165 586 167 q 675 146 654 164 q 715 62 713 115 q 671 0 716 9 q 485 -18 578 -16 q 338 -16 392 -20 q 163 0 285 -12 q 66 62 80 8 q 113 205 43 159 q 157 212 129 214 q 212 201 184 209 q 260 195 239 194 q 283 213 281 195 q 284 312 289 235 q 283 433 279 389 q 292 515 286 461 q 301 600 298 568 q 305 671 304 632 q 301 736 307 711 q 283 777 296 762 z "},"":{"ha":888,"x_min":24,"x_max":850,"o":"m 609 754 q 526 814 576 799 q 425 812 476 830 q 395 789 406 806 q 380 758 384 773 q 374 716 377 743 q 366 578 369 666 q 481 562 435 575 q 499 477 522 549 q 431 406 480 414 q 410 401 423 404 q 388 397 397 399 q 370 395 378 396 q 374 312 373 340 q 397 254 377 271 q 467 237 418 236 q 555 251 502 239 q 625 275 609 263 q 694 414 684 319 q 677 603 704 510 q 609 754 651 696 m 130 563 q 151 941 126 743 q 271 987 156 997 q 379 984 324 985 q 480 982 434 983 q 575 964 526 981 q 662 913 624 947 q 785 736 753 831 q 833 483 818 640 q 758 159 850 289 q 442 0 666 30 q 228 -12 282 -20 q 155 50 156 0 q 138 378 153 90 q 116 380 132 380 q 92 381 100 381 q 43 420 61 382 q 32 500 24 458 q 69 551 39 541 q 130 563 80 555 z "},"":{"ha":935,"x_min":16,"x_max":890,"o":"m 385 1137 q 348 1124 361 1138 q 332 1093 335 1111 q 315 1055 328 1074 q 281 1027 302 1035 q 220 1042 250 1016 q 199 1100 190 1069 q 357 1280 241 1246 q 417 1276 388 1289 q 469 1241 446 1264 q 511 1194 491 1218 q 547 1152 530 1169 q 576 1137 564 1135 q 610 1154 600 1139 q 620 1187 620 1169 q 627 1226 620 1204 q 652 1261 635 1248 q 701 1268 671 1276 q 731 1237 730 1260 q 726 1117 736 1165 q 671 1028 715 1069 q 500 1013 602 960 q 460 1058 475 1027 q 431 1112 445 1089 q 385 1137 416 1135 m 637 412 q 631 501 633 468 q 630 569 629 534 q 632 622 631 604 q 638 694 633 640 q 646 792 643 747 q 661 875 650 844 q 703 928 671 906 q 770 952 734 951 q 834 928 807 954 q 858 896 849 911 q 870 859 867 880 q 874 826 873 838 q 875 785 875 814 q 875 745 875 755 q 880 396 883 563 q 854 47 878 229 q 777 -20 848 -3 q 637 0 680 -43 q 524 136 575 64 q 410 316 473 209 q 328 450 346 423 q 320 76 345 300 q 288 15 316 45 q 216 -25 259 -15 q 121 0 172 -35 q 66 66 84 26 q 48 138 49 106 q 50 229 47 170 q 52 319 53 289 q 42 477 50 374 q 35 652 34 581 q 52 811 37 724 q 161 955 69 911 q 320 935 269 1006 q 480 699 435 773 q 629 426 525 625 q 637 412 632 420 z "},"":{"ha":960,"x_min":16,"x_max":932,"o":"m 583 1029 q 435 1078 500 1020 q 362 1221 369 1137 q 414 1279 358 1272 q 532 1240 475 1287 q 566 1200 553 1222 q 583 1029 659 1039 m 735 30 q 465 -43 604 -60 q 201 79 327 -26 q 87 235 127 140 q 44 427 46 330 q 62 625 42 525 q 142 815 88 732 q 269 935 197 898 q 463 987 357 981 q 655 947 568 993 q 825 750 754 886 q 913 471 897 614 q 885 225 928 340 q 735 30 842 110 m 543 722 q 381 701 465 764 q 273 533 297 639 q 351 250 229 342 q 627 250 528 119 q 701 515 726 381 q 543 722 677 650 z "},"":{"ha":960,"x_min":16,"x_max":932,"o":"m 400 1017 q 416 1188 323 1027 q 526 1264 452 1248 q 616 1241 594 1279 q 621 1208 623 1227 q 549 1066 614 1124 q 400 1017 483 1008 m 735 30 q 465 -43 604 -60 q 201 79 327 -26 q 87 235 127 140 q 44 427 46 330 q 62 625 42 525 q 142 815 88 732 q 269 935 197 898 q 463 987 357 981 q 655 947 568 993 q 825 750 754 886 q 913 471 897 614 q 885 225 928 340 q 735 30 842 110 m 543 722 q 381 701 465 764 q 273 533 297 639 q 351 250 229 342 q 627 250 528 119 q 701 515 726 381 q 543 722 677 650 z "},"":{"ha":960,"x_min":16,"x_max":932,"o":"m 267 1043 q 318 1139 283 1101 q 418 1218 353 1176 q 534 1214 471 1252 q 582 1186 547 1206 q 631 1156 617 1166 q 667 1126 644 1146 q 699 1085 689 1107 q 713 1035 709 1063 q 702 1004 716 1015 q 662 995 688 994 q 612 1000 636 996 q 563 1010 587 1004 q 535 1029 549 1015 q 512 1060 521 1044 q 492 1089 503 1076 q 472 1104 481 1103 q 449 1092 463 1105 q 427 1062 438 1080 q 409 1036 415 1044 q 389 1018 403 1027 q 355 1002 376 1009 q 292 1005 326 993 q 267 1043 259 1017 m 735 30 q 465 -43 604 -60 q 201 79 327 -26 q 87 235 127 140 q 44 427 46 330 q 62 625 42 525 q 142 815 88 732 q 269 935 197 898 q 463 987 357 981 q 655 947 568 993 q 825 750 754 886 q 913 471 897 614 q 885 225 928 340 q 735 30 842 110 m 543 722 q 381 701 465 764 q 273 533 297 639 q 351 250 229 342 q 627 250 528 119 q 701 515 726 381 q 543 722 677 650 z "},"":{"ha":960,"x_min":16,"x_max":932,"o":"m 410 1153 q 372 1141 385 1154 q 356 1109 359 1127 q 340 1071 353 1090 q 305 1043 327 1051 q 244 1059 274 1032 q 224 1116 214 1085 q 381 1297 266 1263 q 441 1293 412 1305 q 493 1257 471 1280 q 535 1210 515 1234 q 572 1168 555 1185 q 601 1153 589 1152 q 634 1171 624 1156 q 644 1203 644 1185 q 652 1242 644 1221 q 677 1278 659 1264 q 725 1284 696 1293 q 755 1253 754 1276 q 750 1133 761 1181 q 696 1044 739 1085 q 525 1029 627 977 q 484 1074 499 1043 q 455 1128 469 1105 q 410 1153 441 1152 m 735 30 q 465 -43 604 -60 q 201 79 327 -26 q 87 235 127 140 q 44 427 46 330 q 62 625 42 525 q 142 815 88 732 q 269 935 197 898 q 463 987 357 981 q 655 947 568 993 q 825 750 754 886 q 913 471 897 614 q 885 225 928 340 q 735 30 842 110 m 543 722 q 381 701 465 764 q 273 533 297 639 q 351 250 229 342 q 627 250 528 119 q 701 515 726 381 q 543 722 677 650 z "},"":{"ha":960,"x_min":16,"x_max":932,"o":"m 427 1025 q 345 1024 392 1000 q 294 1092 297 1048 q 336 1168 292 1137 q 419 1180 380 1199 q 463 1106 460 1161 q 427 1025 465 1051 m 661 1021 q 594 1023 632 1000 q 552 1084 556 1046 q 581 1144 548 1118 q 644 1154 613 1171 q 686 1090 680 1135 q 661 1021 692 1046 m 735 30 q 465 -43 604 -60 q 201 79 327 -26 q 87 235 127 140 q 44 427 46 330 q 62 625 42 525 q 142 815 88 732 q 269 935 197 898 q 463 987 357 981 q 655 947 568 993 q 825 750 754 886 q 913 471 897 614 q 885 225 928 340 q 735 30 842 110 m 543 722 q 381 701 465 764 q 273 533 297 639 q 351 250 229 342 q 627 250 528 119 q 701 515 726 381 q 543 722 677 650 z "},"":{"ha":526,"x_min":27,"x_max":486,"o":"m 363 753 q 420 750 388 774 q 467 680 452 726 q 467 604 481 633 q 418 529 453 575 q 471 454 449 490 q 477 377 486 420 q 440 304 469 334 q 384 296 411 275 q 271 387 313 349 q 189 313 241 362 q 128 309 161 296 q 72 356 95 321 q 64 418 49 391 q 137 529 94 471 q 54 642 92 587 q 78 734 27 681 q 167 758 129 787 q 275 673 217 722 q 321 714 290 686 q 363 753 351 742 z "},"":{"ha":944,"x_min":9,"x_max":910,"o":"m 718 30 q 486 -45 604 -47 q 254 30 369 -42 q 235 4 250 24 q 217 -22 221 -16 q 144 -45 186 -62 q 108 -15 119 -35 q 106 27 96 5 q 148 114 129 76 q 35 353 60 209 q 45 625 9 498 q 125 815 71 732 q 251 935 179 898 q 446 987 339 981 q 639 947 552 993 q 699 901 674 924 q 736 933 723 922 q 853 925 777 967 q 866 899 867 916 q 856 867 865 883 q 831 831 853 863 q 793 776 810 799 q 895 471 876 632 q 867 225 910 340 q 718 30 825 110 m 526 722 q 364 701 449 764 q 255 533 279 637 q 269 327 227 408 q 430 570 332 429 q 536 718 500 670 q 531 720 534 719 q 526 722 528 722 m 663 585 q 654 571 655 574 q 392 213 543 414 q 610 250 528 140 q 686 422 673 332 q 663 585 700 511 z "},"":{"ha":863,"x_min":42,"x_max":803,"o":"m 519 948 q 371 997 437 939 q 298 1139 305 1055 q 350 1198 294 1191 q 468 1158 411 1206 q 502 1119 490 1141 q 519 948 595 958 m 429 -34 q 264 5 342 -43 q 142 127 187 53 q 83 279 96 201 q 53 593 53 458 q 83 906 53 727 q 132 954 90 945 q 217 943 175 962 q 263 898 259 925 q 280 650 282 800 q 283 400 278 499 q 358 241 294 289 q 452 221 384 220 q 533 258 519 222 q 564 425 559 317 q 563 624 568 532 q 568 798 557 716 q 613 902 578 879 q 746 876 700 956 q 792 458 804 774 q 790 376 791 437 q 787 293 789 316 q 779 227 785 270 q 756 150 772 183 q 716 83 741 117 q 661 25 690 47 q 588 -9 631 3 q 517 -24 545 -20 q 429 -34 488 -28 z "},"":{"ha":863,"x_min":42,"x_max":803,"o":"m 347 911 q 363 1082 270 921 q 473 1158 399 1142 q 563 1135 541 1173 q 568 1103 570 1122 q 496 960 562 1019 q 347 911 430 902 m 429 -34 q 264 5 342 -43 q 142 127 187 53 q 83 279 96 201 q 53 593 53 458 q 83 906 53 727 q 132 954 90 945 q 217 943 175 962 q 263 898 259 925 q 280 650 282 800 q 283 400 278 499 q 358 241 294 289 q 452 221 384 220 q 533 258 519 222 q 564 425 559 317 q 563 624 568 532 q 568 798 557 716 q 613 902 578 879 q 746 876 700 956 q 792 458 804 774 q 790 376 791 437 q 787 293 789 316 q 779 227 785 270 q 756 150 772 183 q 716 83 741 117 q 661 25 690 47 q 588 -9 631 3 q 517 -24 545 -20 q 429 -34 488 -28 z "},"":{"ha":863,"x_min":42,"x_max":803,"o":"m 224 1020 q 275 1116 240 1078 q 374 1195 309 1153 q 491 1191 427 1229 q 538 1163 503 1183 q 587 1133 574 1143 q 623 1103 601 1123 q 656 1062 646 1084 q 670 1012 666 1040 q 659 981 673 991 q 618 972 644 971 q 568 977 593 972 q 519 987 544 981 q 492 1006 506 991 q 469 1037 477 1021 q 449 1066 460 1053 q 429 1081 438 1080 q 406 1069 419 1082 q 383 1039 395 1057 q 366 1013 372 1021 q 346 995 359 1004 q 312 979 332 986 q 249 982 282 970 q 224 1020 216 994 m 429 -34 q 264 5 342 -43 q 142 127 187 53 q 83 279 96 201 q 53 593 53 458 q 83 906 53 727 q 132 954 90 945 q 217 943 175 962 q 263 898 259 925 q 280 650 282 800 q 283 400 278 499 q 358 241 294 289 q 452 221 384 220 q 533 258 519 222 q 564 425 559 317 q 563 624 568 532 q 568 798 557 716 q 613 902 578 879 q 746 876 700 956 q 792 458 804 774 q 790 376 791 437 q 787 293 789 316 q 779 227 785 270 q 756 150 772 183 q 716 83 741 117 q 661 25 690 47 q 588 -9 631 3 q 517 -24 545 -20 q 429 -34 488 -28 z "},"":{"ha":863,"x_min":42,"x_max":803,"o":"m 366 972 q 283 971 331 947 q 233 1039 236 996 q 275 1115 231 1084 q 358 1127 319 1146 q 401 1053 399 1108 q 366 972 404 998 m 600 968 q 533 970 571 947 q 491 1031 495 993 q 519 1091 487 1065 q 583 1101 552 1118 q 625 1038 618 1082 q 600 968 631 993 m 429 -34 q 264 5 342 -43 q 142 127 187 53 q 83 279 96 201 q 53 593 53 458 q 83 906 53 727 q 132 954 90 945 q 217 943 175 962 q 263 898 259 925 q 280 650 282 800 q 283 400 278 499 q 358 241 294 289 q 452 221 384 220 q 533 258 519 222 q 564 425 559 317 q 563 624 568 532 q 568 798 557 716 q 613 902 578 879 q 746 876 700 956 q 792 458 804 774 q 790 376 791 437 q 787 293 789 316 q 779 227 785 270 q 756 150 772 183 q 716 83 741 117 q 661 25 690 47 q 588 -9 631 3 q 517 -24 545 -20 q 429 -34 488 -28 z "},"":{"ha":802,"x_min":5,"x_max":772,"o":"m 320 991 q 336 1162 243 1001 q 446 1238 372 1222 q 536 1215 514 1253 q 541 1183 543 1202 q 469 1040 534 1099 q 320 991 403 982 m 320 460 q 237 533 288 490 q 163 600 187 576 q 106 659 138 623 q 50 736 75 696 q 96 958 -7 829 q 164 994 123 990 q 237 970 205 998 q 342 859 274 937 q 449 745 410 781 q 551 944 494 838 q 716 928 589 1015 q 755 882 743 911 q 758 823 768 852 q 644 508 684 613 q 542 265 604 403 q 408 0 480 127 q 347 -36 393 -27 q 258 -34 301 -45 q 180 -1 209 -24 q 163 50 151 22 q 251 279 199 141 q 320 460 302 416 z "},"":{"ha":734,"x_min":50,"x_max":694,"o":"m 58 58 q 56 404 58 88 q 58 750 53 720 q 55 827 60 776 q 55 910 50 878 q 83 975 60 943 q 151 1013 106 1008 q 237 1008 195 1017 q 316 945 312 997 q 330 762 327 804 q 551 705 454 765 q 671 545 648 646 q 655 342 694 444 q 529 213 616 240 q 327 172 403 172 q 321 34 324 83 q 253 -37 319 -19 q 123 -28 187 -56 q 58 58 58 0 m 336 579 q 334 353 338 481 q 473 384 422 350 q 521 496 525 418 q 336 579 514 589 z "},"":{"ha":880,"x_min":35,"x_max":837,"o":"m 288 496 q 294 342 283 434 q 309 196 304 251 q 296 46 313 141 q 163 -42 275 -37 q 99 -20 126 -43 q 66 38 72 3 q 37 371 38 224 q 62 704 35 518 q 199 905 83 845 q 517 967 300 955 q 664 912 594 971 q 770 766 734 853 q 798 648 796 705 q 770 542 800 590 q 675 475 739 494 q 804 364 772 456 q 811 174 837 273 q 726 24 785 76 q 458 -30 616 -71 q 384 31 411 -18 q 384 117 357 79 q 433 135 397 136 q 507 128 469 134 q 587 133 545 122 q 648 179 621 142 q 684 256 675 216 q 668 334 693 297 q 583 380 643 370 q 534 389 549 385 q 496 403 518 392 q 467 429 475 414 q 479 563 420 514 q 566 587 503 583 q 650 621 629 591 q 661 706 675 661 q 604 774 647 751 q 483 811 536 810 q 402 792 430 812 q 350 734 374 772 q 288 496 298 651 z "},"":{"ha":671,"x_min":4,"x_max":637,"o":"m 453 728 q 304 777 370 719 q 232 920 239 836 q 283 978 228 971 q 401 939 345 986 q 435 899 423 921 q 453 728 529 738 m 537 46 q 450 3 492 16 q 155 38 316 -42 q 58 144 87 72 q 48 286 28 217 q 129 380 68 355 q 434 410 277 439 q 392 479 429 463 q 310 485 355 495 q 216 473 264 475 q 138 486 168 471 q 104 568 100 511 q 152 640 109 624 q 286 680 229 669 q 407 682 342 692 q 530 632 472 673 q 580 587 562 610 q 605 532 598 564 q 613 479 612 500 q 614 412 614 458 q 613 342 613 366 q 615 284 613 328 q 617 224 617 240 q 614 175 617 209 q 602 123 610 141 q 577 84 593 106 q 537 46 562 62 m 342 129 q 421 199 395 155 q 433 292 448 243 q 371 335 420 331 q 283 316 321 339 q 195 175 170 259 q 254 121 208 134 q 342 129 301 109 z "},"":{"ha":671,"x_min":4,"x_max":637,"o":"m 259 734 q 275 905 182 743 q 385 981 311 964 q 475 958 453 996 q 480 925 481 944 q 408 783 473 841 q 259 734 342 724 m 537 46 q 450 3 492 16 q 155 38 316 -42 q 58 144 87 72 q 48 286 28 217 q 129 380 68 355 q 434 410 277 439 q 392 479 429 463 q 310 485 355 495 q 216 473 264 475 q 138 486 168 471 q 104 568 100 511 q 152 640 109 624 q 286 680 229 669 q 407 682 342 692 q 530 632 472 673 q 580 587 562 610 q 605 532 598 564 q 613 479 612 500 q 614 412 614 458 q 613 342 613 366 q 615 284 613 328 q 617 224 617 240 q 614 175 617 209 q 602 123 610 141 q 577 84 593 106 q 537 46 562 62 m 342 129 q 421 199 395 155 q 433 292 448 243 q 371 335 420 331 q 283 316 321 339 q 195 175 170 259 q 254 121 208 134 q 342 129 301 109 z "},"":{"ha":671,"x_min":4,"x_max":637,"o":"m 138 769 q 189 865 155 827 q 289 944 224 902 q 406 940 342 978 q 453 912 418 932 q 502 882 488 892 q 538 852 515 872 q 570 811 560 833 q 585 761 581 789 q 573 730 587 741 q 533 721 559 720 q 483 726 507 722 q 434 736 458 730 q 406 755 420 741 q 383 786 392 770 q 363 815 374 802 q 343 830 353 829 q 320 818 334 831 q 298 788 309 806 q 280 762 286 770 q 260 744 274 753 q 227 728 247 735 q 163 731 197 719 q 138 769 130 743 m 537 46 q 450 3 492 16 q 155 38 316 -42 q 58 144 87 72 q 48 286 28 217 q 129 380 68 355 q 434 410 277 439 q 392 479 429 463 q 310 485 355 495 q 216 473 264 475 q 138 486 168 471 q 104 568 100 511 q 152 640 109 624 q 286 680 229 669 q 407 682 342 692 q 530 632 472 673 q 580 587 562 610 q 605 532 598 564 q 613 479 612 500 q 614 412 614 458 q 613 342 613 366 q 615 284 613 328 q 617 224 617 240 q 614 175 617 209 q 602 123 610 141 q 577 84 593 106 q 537 46 562 62 m 342 129 q 421 199 395 155 q 433 292 448 243 q 371 335 420 331 q 283 316 321 339 q 195 175 170 259 q 254 121 208 134 q 342 129 301 109 z "},"":{"ha":671,"x_min":4,"x_max":637,"o":"m 266 857 q 229 845 241 859 q 212 813 216 831 q 196 775 209 795 q 161 747 183 755 q 100 763 130 736 q 80 821 71 789 q 237 1001 122 967 q 298 997 269 1009 q 349 962 327 985 q 391 914 372 939 q 428 873 411 890 q 457 857 445 856 q 490 875 480 860 q 500 907 500 890 q 508 947 500 925 q 533 982 515 968 q 581 989 552 997 q 612 958 610 981 q 606 838 617 886 q 552 749 595 789 q 381 734 483 681 q 340 779 355 747 q 311 833 326 810 q 266 857 297 856 m 537 46 q 450 3 492 16 q 155 38 316 -42 q 58 144 87 72 q 48 286 28 217 q 129 380 68 355 q 434 410 277 439 q 392 479 429 463 q 310 485 355 495 q 216 473 264 475 q 138 486 168 471 q 104 568 100 511 q 152 640 109 624 q 286 680 229 669 q 407 682 342 692 q 530 632 472 673 q 580 587 562 610 q 605 532 598 564 q 613 479 612 500 q 614 412 614 458 q 613 342 613 366 q 615 284 613 328 q 617 224 617 240 q 614 175 617 209 q 602 123 610 141 q 577 84 593 106 q 537 46 562 62 m 342 129 q 421 199 395 155 q 433 292 448 243 q 371 335 420 331 q 283 316 321 339 q 195 175 170 259 q 254 121 208 134 q 342 129 301 109 z "},"":{"ha":671,"x_min":4,"x_max":637,"o":"m 271 728 q 189 727 236 703 q 138 795 141 751 q 180 871 136 840 q 263 883 224 902 q 307 809 304 864 q 271 728 309 754 m 505 724 q 438 726 476 703 q 396 787 400 749 q 425 847 392 821 q 488 857 457 873 q 530 793 524 838 q 505 724 536 749 m 537 46 q 450 3 492 16 q 155 38 316 -42 q 58 144 87 72 q 48 286 28 217 q 129 380 68 355 q 434 410 277 439 q 392 479 429 463 q 310 485 355 495 q 216 473 264 475 q 138 486 168 471 q 104 568 100 511 q 152 640 109 624 q 286 680 229 669 q 407 682 342 692 q 530 632 472 673 q 580 587 562 610 q 605 532 598 564 q 613 479 612 500 q 614 412 614 458 q 613 342 613 366 q 615 284 613 328 q 617 224 617 240 q 614 175 617 209 q 602 123 610 141 q 577 84 593 106 q 537 46 562 62 m 342 129 q 421 199 395 155 q 433 292 448 243 q 371 335 420 331 q 283 316 321 339 q 195 175 170 259 q 254 121 208 134 q 342 129 301 109 z "},"":{"ha":671,"x_min":4,"x_max":637,"o":"m 392 886 q 340 897 367 910 q 298 850 314 885 q 311 798 287 825 q 363 782 336 772 q 410 826 402 796 q 392 886 418 856 m 430 740 q 335 714 391 704 q 249 779 280 724 q 234 864 226 821 q 281 937 243 907 q 358 969 319 969 q 427 934 396 970 q 470 833 466 886 q 430 740 473 781 m 537 46 q 450 3 492 16 q 155 38 316 -42 q 58 144 87 72 q 48 286 28 217 q 129 380 68 355 q 434 410 277 439 q 392 479 429 463 q 310 485 355 495 q 216 473 264 475 q 138 486 168 471 q 104 568 100 511 q 152 640 109 624 q 286 680 229 669 q 407 682 342 692 q 530 632 472 673 q 580 587 562 610 q 605 532 598 564 q 613 479 612 500 q 614 412 614 458 q 613 342 613 366 q 615 284 613 328 q 617 224 617 240 q 614 175 617 209 q 602 123 610 141 q 577 84 593 106 q 537 46 562 62 m 342 129 q 421 199 395 155 q 433 292 448 243 q 371 335 420 331 q 283 316 321 339 q 195 175 170 259 q 254 121 208 134 q 342 129 301 109 z "},"":{"ha":1164,"x_min":28,"x_max":1122,"o":"m 537 46 q 450 3 492 16 q 155 38 316 -42 q 58 144 87 72 q 48 286 28 217 q 129 380 68 355 q 434 410 277 439 q 392 479 429 463 q 310 485 355 495 q 216 473 264 475 q 138 486 168 471 q 104 568 100 511 q 152 640 109 624 q 286 680 229 669 q 407 682 342 692 q 530 632 472 673 q 590 568 570 604 q 720 646 635 625 q 884 668 806 671 q 1036 618 963 665 q 1103 534 1089 586 q 1114 395 1116 481 q 1023 273 1109 309 q 846 231 964 248 q 654 224 728 213 q 654 222 654 222 q 655 221 655 222 q 687 182 666 198 q 723 162 708 167 q 773 150 738 157 q 822 138 808 142 q 918 129 879 125 q 1005 130 956 133 q 1095 106 1054 127 q 1115 51 1122 91 q 1078 0 1108 11 q 924 -26 985 -27 q 769 0 864 -24 q 692 20 715 14 q 635 43 670 26 q 581 85 601 61 q 537 46 567 66 m 342 129 q 421 199 395 155 q 433 292 448 243 q 371 335 420 331 q 283 316 321 339 q 195 175 170 259 q 254 121 208 134 q 342 129 301 109 m 785 549 q 711 534 742 551 q 667 489 681 518 q 646 433 652 460 q 639 370 640 406 q 768 380 652 373 q 928 408 884 387 q 979 458 970 430 q 956 513 987 487 q 785 549 907 548 z "},"":{"ha":734,"x_min":3,"x_max":688,"o":"m 458 195 q 522 229 491 198 q 580 284 552 260 q 642 300 608 308 q 683 235 682 289 q 658 141 684 180 q 581 53 624 84 q 471 0 538 22 q 464 -1 469 0 q 457 -4 458 -3 q 437 -83 467 -49 q 361 -133 406 -117 q 288 -151 317 -149 q 190 -151 259 -152 q 159 -121 168 -151 q 165 -79 149 -92 q 231 -62 197 -57 q 297 -65 264 -68 q 336 -34 330 -62 q 336 -30 336 -33 l 338 -27 q 225 0 278 -27 q 120 81 157 34 q 62 205 83 129 q 77 551 3 425 q 354 700 151 678 q 520 695 450 711 q 658 625 590 680 q 670 553 688 598 q 613 491 652 507 q 505 479 567 471 q 401 495 442 487 q 300 471 361 503 q 237 373 248 437 q 258 258 225 309 q 335 199 285 210 q 458 195 385 187 z "},"":{"ha":666,"x_min":8,"x_max":644,"o":"m 438 709 q 290 758 355 700 q 217 901 224 817 q 269 959 213 952 q 387 920 330 967 q 420 880 408 902 q 438 709 514 719 m 168 224 q 169 222 168 222 q 170 221 170 222 q 201 182 180 198 q 237 162 221 167 q 287 150 252 157 q 335 138 321 142 q 431 129 392 125 q 518 130 469 133 q 608 106 567 127 q 628 51 635 91 q 591 0 621 11 q 438 -26 498 -27 q 283 0 378 -24 q 256 7 281 1 q 228 14 232 14 q 203 21 224 15 q 176 30 182 27 q 154 40 171 33 q 131 53 137 47 q 112 67 125 58 q 93 85 99 76 q 79 106 87 94 q 65 132 71 118 q 31 256 38 195 q 34 372 24 317 q 68 500 43 427 q 235 646 106 614 q 398 668 320 671 q 549 618 476 665 q 616 533 602 586 q 628 395 631 480 q 536 273 624 311 q 360 231 477 248 q 168 224 243 213 m 300 549 q 226 534 256 551 q 181 489 195 518 q 161 433 167 460 q 153 370 155 406 q 283 380 167 373 q 442 408 399 387 q 492 458 483 430 q 469 513 502 487 q 300 549 420 548 z "},"":{"ha":666,"x_min":8,"x_max":644,"o":"m 247 694 q 263 865 170 704 q 373 941 298 925 q 463 918 441 956 q 468 886 469 905 q 395 743 461 802 q 247 694 330 685 m 168 224 q 169 222 168 222 q 170 221 170 222 q 201 182 180 198 q 237 162 221 167 q 287 150 252 157 q 335 138 321 142 q 431 129 392 125 q 518 130 469 133 q 608 106 567 127 q 628 51 635 91 q 591 0 621 11 q 438 -26 498 -27 q 283 0 378 -24 q 256 7 281 1 q 228 14 232 14 q 203 21 224 15 q 176 30 182 27 q 154 40 171 33 q 131 53 137 47 q 112 67 125 58 q 93 85 99 76 q 79 106 87 94 q 65 132 71 118 q 31 256 38 195 q 34 372 24 317 q 68 500 43 427 q 235 646 106 614 q 398 668 320 671 q 549 618 476 665 q 616 533 602 586 q 628 395 631 480 q 536 273 624 311 q 360 231 477 248 q 168 224 243 213 m 300 549 q 226 534 256 551 q 181 489 195 518 q 161 433 167 460 q 153 370 155 406 q 283 380 167 373 q 442 408 399 387 q 492 458 483 430 q 469 513 502 487 q 300 549 420 548 z "},"":{"ha":666,"x_min":8,"x_max":644,"o":"m 132 736 q 182 832 148 795 q 282 911 217 869 q 399 907 335 945 q 446 880 411 899 q 495 850 481 860 q 531 820 509 840 q 564 779 553 800 q 578 728 574 757 q 566 698 581 708 q 526 688 552 688 q 476 693 500 689 q 427 704 452 697 q 399 723 414 708 q 376 753 385 738 q 357 783 368 769 q 336 798 346 796 q 313 785 327 799 q 291 755 302 773 q 273 729 279 738 q 254 711 267 720 q 220 696 240 703 q 157 699 190 686 q 132 736 123 711 m 168 224 q 169 222 168 222 q 170 221 170 222 q 201 182 180 198 q 237 162 221 167 q 287 150 252 157 q 335 138 321 142 q 431 129 392 125 q 518 130 469 133 q 608 106 567 127 q 628 51 635 91 q 591 0 621 11 q 438 -26 498 -27 q 283 0 378 -24 q 256 7 281 1 q 228 14 232 14 q 203 21 224 15 q 176 30 182 27 q 154 40 171 33 q 131 53 137 47 q 112 67 125 58 q 93 85 99 76 q 79 106 87 94 q 65 132 71 118 q 31 256 38 195 q 34 372 24 317 q 68 500 43 427 q 235 646 106 614 q 398 668 320 671 q 549 618 476 665 q 616 533 602 586 q 628 395 631 480 q 536 273 624 311 q 360 231 477 248 q 168 224 243 213 m 300 549 q 226 534 256 551 q 181 489 195 518 q 161 433 167 460 q 153 370 155 406 q 283 380 167 373 q 442 408 399 387 q 492 458 483 430 q 469 513 502 487 q 300 549 420 548 z "},"":{"ha":666,"x_min":8,"x_max":644,"o":"m 288 699 q 205 697 252 673 q 155 765 157 722 q 196 841 152 810 q 279 853 240 872 q 323 779 320 834 q 288 699 326 724 m 521 694 q 454 696 492 673 q 412 757 416 719 q 441 817 408 791 q 505 827 473 844 q 546 764 540 808 q 521 694 552 719 m 168 224 q 169 222 168 222 q 170 221 170 222 q 201 182 180 198 q 237 162 221 167 q 287 150 252 157 q 335 138 321 142 q 431 129 392 125 q 518 130 469 133 q 608 106 567 127 q 628 51 635 91 q 591 0 621 11 q 438 -26 498 -27 q 283 0 378 -24 q 256 7 281 1 q 228 14 232 14 q 203 21 224 15 q 176 30 182 27 q 154 40 171 33 q 131 53 137 47 q 112 67 125 58 q 93 85 99 76 q 79 106 87 94 q 65 132 71 118 q 31 256 38 195 q 34 372 24 317 q 68 500 43 427 q 235 646 106 614 q 398 668 320 671 q 549 618 476 665 q 616 533 602 586 q 628 395 631 480 q 536 273 624 311 q 360 231 477 248 q 168 224 243 213 m 300 549 q 226 534 256 551 q 181 489 195 518 q 161 433 167 460 q 153 370 155 406 q 283 380 167 373 q 442 408 399 387 q 492 458 483 430 q 469 513 502 487 q 300 549 420 548 z "},"":{"ha":399,"x_min":31,"x_max":365,"o":"m 290 637 q 142 686 208 628 q 69 829 76 745 q 121 887 65 880 q 239 848 182 895 q 273 808 260 830 q 290 637 366 647 m 342 167 q 342 144 342 161 q 341 121 342 127 q 340 102 340 115 q 338 81 339 88 q 334 63 336 75 q 327 44 331 52 q 317 27 323 37 q 304 8 312 18 q 171 -24 264 -39 q 66 46 76 -8 q 51 144 56 102 q 47 236 46 187 q 50 307 49 285 q 58 397 50 328 q 69 495 66 467 q 132 590 76 567 q 224 583 175 608 q 307 511 274 557 q 333 463 324 487 q 345 404 342 439 q 348 345 349 369 q 345 262 347 321 q 342 167 343 203 z "},"":{"ha":399,"x_min":31,"x_max":365,"o":"m 107 662 q 123 833 30 671 q 233 909 159 892 q 323 886 301 924 q 328 853 330 872 q 256 711 321 769 q 107 662 190 652 m 342 167 q 342 144 342 161 q 341 121 342 127 q 340 102 340 115 q 338 81 339 88 q 334 63 336 75 q 327 44 331 52 q 317 27 323 37 q 304 8 312 18 q 171 -24 264 -39 q 66 46 76 -8 q 51 144 56 102 q 47 236 46 187 q 50 307 49 285 q 58 397 50 328 q 69 495 66 467 q 132 590 76 567 q 224 583 175 608 q 307 511 274 557 q 333 463 324 487 q 345 404 342 439 q 348 345 349 369 q 345 262 347 321 q 342 167 343 203 z "},"":{"ha":399,"x_min":-35,"x_max":430,"o":"m -24 681 q 26 777 -8 739 q 126 856 61 814 q 243 852 179 890 q 290 824 255 844 q 339 794 326 804 q 375 764 353 784 q 408 723 397 745 q 422 673 418 701 q 410 642 425 652 q 370 633 396 632 q 320 637 345 633 q 271 648 296 642 q 243 667 258 652 q 220 698 229 682 q 201 727 212 713 q 180 742 190 741 q 157 730 171 743 q 135 700 146 718 q 117 673 123 682 q 98 656 111 665 q 64 640 84 647 q 1 643 34 631 q -24 681 -33 655 m 342 167 q 342 144 342 161 q 341 121 342 127 q 340 102 340 115 q 338 81 339 88 q 334 63 336 75 q 327 44 331 52 q 317 27 323 37 q 304 8 312 18 q 171 -24 264 -39 q 66 46 76 -8 q 51 144 56 102 q 47 236 46 187 q 50 307 49 285 q 58 397 50 328 q 69 495 66 467 q 132 590 76 567 q 224 583 175 608 q 307 511 274 557 q 333 463 324 487 q 345 404 342 439 q 348 345 349 369 q 345 262 347 321 q 342 167 343 203 z "},"":{"ha":399,"x_min":-7,"x_max":404,"o":"m 129 650 q 46 648 94 624 q -4 716 -1 673 q 37 792 -7 761 q 121 804 81 823 q 164 730 161 785 q 129 650 167 675 m 362 646 q 296 647 334 624 q 254 708 258 670 q 282 768 250 742 q 346 779 315 795 q 387 715 381 760 q 362 646 393 670 m 342 167 q 342 144 342 161 q 341 121 342 127 q 340 102 340 115 q 338 81 339 88 q 334 63 336 75 q 327 44 331 52 q 317 27 323 37 q 304 8 312 18 q 171 -24 264 -39 q 66 46 76 -8 q 51 144 56 102 q 47 236 46 187 q 50 307 49 285 q 58 397 50 328 q 69 495 66 467 q 132 590 76 567 q 224 583 175 608 q 307 511 274 557 q 333 463 324 487 q 345 404 342 439 q 348 345 349 369 q 345 262 347 321 q 342 167 343 203 z "},"":{"ha":760,"x_min":9,"x_max":792,"o":"m 225 346 q 263 146 176 210 q 374 112 312 109 q 475 163 435 115 q 516 281 518 213 q 463 388 514 350 q 322 427 393 438 q 225 346 251 415 m 362 665 q 338 629 354 651 q 241 621 312 591 q 215 647 224 629 q 213 684 206 665 q 231 738 220 703 q 184 762 199 754 q 153 783 168 770 q 137 808 138 796 q 167 930 125 883 q 279 959 209 977 q 326 945 308 952 q 358 987 336 962 q 373 1000 365 996 q 393 1002 381 1004 q 412 997 404 1000 q 434 988 419 994 q 454 979 449 982 q 471 941 480 970 q 454 890 465 922 q 646 654 585 811 q 625 92 792 288 q 460 -21 545 0 q 271 -5 376 -42 q 75 162 141 34 q 50 408 9 290 q 191 547 81 502 q 446 551 301 593 q 362 665 435 612 z "},"":{"ha":675,"x_min":24,"x_max":661,"o":"m 271 844 q 234 831 247 845 q 218 800 221 818 q 201 762 214 781 q 167 734 189 742 q 106 749 136 723 q 85 807 76 776 q 243 987 127 954 q 303 983 274 996 q 355 948 332 971 q 397 901 377 925 q 433 859 416 876 q 463 844 450 842 q 496 861 486 846 q 506 894 506 876 q 513 933 506 911 q 538 968 521 955 q 587 975 557 983 q 617 944 616 967 q 612 824 623 872 q 557 735 601 776 q 387 720 488 667 q 346 765 361 734 q 317 819 331 796 q 271 844 302 842 m 38 75 q 37 461 30 296 q 37 514 37 488 q 39 561 38 540 q 47 605 39 582 q 73 648 56 628 q 208 670 118 703 q 260 587 254 652 q 309 652 286 632 q 365 675 332 671 q 473 664 426 684 q 551 610 521 644 q 600 516 581 576 q 628 404 618 456 q 640 272 637 351 q 642 144 643 193 q 637 20 640 95 q 600 -19 637 -3 q 521 -31 562 -35 q 471 0 480 -27 q 458 149 461 27 q 445 328 454 271 q 406 433 433 399 q 328 454 378 467 q 306 444 315 452 q 290 424 297 437 q 281 404 283 411 q 274 378 279 397 q 275 211 278 267 q 254 20 271 155 q 201 -17 251 -3 q 125 -24 152 -31 q 59 8 79 -14 q 38 75 39 30 z "},"":{"ha":726,"x_min":27,"x_max":690,"o":"m 468 709 q 319 758 385 700 q 247 901 254 817 q 298 959 243 952 q 416 920 359 967 q 450 880 438 902 q 468 709 544 719 m 267 658 q 565 601 453 688 q 684 342 677 514 q 665 135 689 217 q 559 0 642 53 q 424 -47 495 -41 q 290 -32 353 -53 q 175 31 228 -11 q 46 245 58 123 q 56 424 37 336 q 132 578 76 511 q 267 658 187 644 m 338 471 q 250 384 263 464 q 251 275 241 335 q 317 161 266 197 q 442 155 369 125 q 522 221 498 176 q 538 316 547 266 q 474 431 529 384 q 338 471 419 477 z "},"":{"ha":726,"x_min":27,"x_max":690,"o":"m 274 701 q 290 872 197 711 q 400 948 326 932 q 490 925 468 963 q 495 892 496 911 q 422 750 488 808 q 274 701 357 692 m 267 658 q 565 601 453 688 q 684 342 677 514 q 665 135 689 217 q 559 0 642 53 q 424 -47 495 -41 q 290 -32 353 -53 q 175 31 228 -11 q 46 245 58 123 q 56 424 37 336 q 132 578 76 511 q 267 658 187 644 m 338 471 q 250 384 263 464 q 251 275 241 335 q 317 161 266 197 q 442 155 369 125 q 522 221 498 176 q 538 316 547 266 q 474 431 529 384 q 338 471 419 477 z "},"":{"ha":726,"x_min":27,"x_max":690,"o":"m 148 734 q 199 829 164 792 q 298 909 233 867 q 415 905 351 943 q 463 877 427 897 q 511 847 498 857 q 547 817 525 837 q 580 776 570 798 q 594 726 590 754 q 583 695 597 705 q 543 686 568 685 q 492 690 517 686 q 444 701 468 694 q 416 720 430 705 q 393 751 401 735 q 373 780 384 766 q 353 795 362 793 q 330 783 343 796 q 307 753 319 770 q 290 726 296 735 q 270 709 283 718 q 236 693 256 700 q 173 696 206 684 q 148 734 140 708 m 267 658 q 565 601 453 688 q 684 342 677 514 q 665 135 689 217 q 559 0 642 53 q 424 -47 495 -41 q 290 -32 353 -53 q 175 31 228 -11 q 46 245 58 123 q 56 424 37 336 q 132 578 76 511 q 267 658 187 644 m 338 471 q 250 384 263 464 q 251 275 241 335 q 317 161 266 197 q 442 155 369 125 q 522 221 498 176 q 538 316 547 266 q 474 431 529 384 q 338 471 419 477 z "},"":{"ha":726,"x_min":27,"x_max":690,"o":"m 286 831 q 249 819 262 833 q 233 787 236 806 q 216 749 229 769 q 182 722 203 730 q 121 737 151 711 q 100 795 91 764 q 258 975 142 941 q 318 971 289 983 q 370 936 347 959 q 412 888 392 913 q 448 847 431 864 q 477 831 465 830 q 511 849 500 834 q 521 882 521 864 q 528 921 521 899 q 553 956 536 943 q 602 963 572 971 q 632 932 631 955 q 627 812 637 860 q 572 723 616 764 q 401 708 503 655 q 361 753 376 722 q 332 807 346 784 q 286 831 317 830 m 267 658 q 565 601 453 688 q 684 342 677 514 q 665 135 689 217 q 559 0 642 53 q 424 -47 495 -41 q 290 -32 353 -53 q 175 31 228 -11 q 46 245 58 123 q 56 424 37 336 q 132 578 76 511 q 267 658 187 644 m 338 471 q 250 384 263 464 q 251 275 241 335 q 317 161 266 197 q 442 155 369 125 q 522 221 498 176 q 538 316 547 266 q 474 431 529 384 q 338 471 419 477 z "},"":{"ha":726,"x_min":27,"x_max":690,"o":"m 304 715 q 221 713 269 689 q 171 781 174 738 q 212 857 168 826 q 296 869 256 888 q 339 795 336 850 q 304 715 342 741 m 537 711 q 471 712 509 689 q 429 773 433 735 q 457 833 425 807 q 521 844 490 860 q 562 780 556 825 q 537 711 568 735 m 267 658 q 565 601 453 688 q 684 342 677 514 q 665 135 689 217 q 559 0 642 53 q 424 -47 495 -41 q 290 -32 353 -53 q 175 31 228 -11 q 46 245 58 123 q 56 424 37 336 q 132 578 76 511 q 267 658 187 644 m 338 471 q 250 384 263 464 q 251 275 241 335 q 317 161 266 197 q 442 155 369 125 q 522 221 498 176 q 538 316 547 266 q 474 431 529 384 q 338 471 419 477 z "},"":{"ha":571,"x_min":34,"x_max":540,"o":"m 330 354 q 378 317 362 347 q 380 258 395 286 q 322 197 359 217 q 241 187 285 178 q 192 229 208 194 q 191 296 176 264 q 330 354 231 373 m 321 833 q 370 796 354 826 q 370 738 385 766 q 313 677 350 697 q 233 667 277 658 q 184 709 199 674 q 183 774 168 743 q 321 833 222 852 m 450 416 q 125 400 264 385 q 58 445 81 406 q 42 529 34 484 q 87 604 52 576 q 171 629 123 632 q 396 633 297 621 q 481 616 444 640 q 529 545 518 591 q 517 463 540 502 q 450 416 494 423 z "},"":{"ha":750,"x_min":45,"x_max":697,"o":"m 275 658 q 530 628 426 682 q 545 642 534 632 q 560 656 556 651 q 659 651 594 690 q 671 587 682 636 q 643 519 665 548 q 692 342 688 442 q 673 135 697 217 q 567 0 650 53 q 377 -48 469 -56 q 203 16 285 -41 q 152 -18 178 -4 q 81 -15 107 -41 q 73 60 46 20 q 90 83 77 66 q 109 110 103 100 q 54 245 62 175 q 64 424 45 336 q 140 578 84 511 q 275 658 195 644 m 346 471 q 258 384 271 464 q 255 308 252 351 q 387 471 324 399 q 346 471 368 473 m 335 155 q 450 155 385 129 q 530 221 506 176 q 547 316 555 266 q 528 376 543 346 q 335 155 422 250 z "},"":{"ha":722,"x_min":30,"x_max":701,"o":"m 452 693 q 303 742 369 684 q 231 884 237 800 q 282 943 227 936 q 400 903 343 951 q 434 864 422 886 q 452 693 528 703 m 654 183 q 535 13 631 77 q 312 -34 439 -52 q 130 64 198 -18 q 46 267 61 146 q 37 446 33 366 q 66 621 41 526 q 98 664 73 650 q 155 675 122 678 q 207 655 186 673 q 233 609 228 637 q 229 427 245 543 q 229 245 213 312 q 269 192 236 217 q 340 156 301 167 q 418 156 380 145 q 471 205 456 167 q 481 315 481 240 q 475 466 480 391 q 484 604 471 541 q 533 675 496 666 q 627 636 591 690 q 669 494 662 582 q 671 321 675 406 q 654 183 666 237 z "},"":{"ha":722,"x_min":30,"x_max":701,"o":"m 266 682 q 282 853 189 692 q 392 929 317 913 q 481 906 460 944 q 487 873 488 892 q 414 731 480 789 q 266 682 349 673 m 654 183 q 535 13 631 77 q 312 -34 439 -52 q 130 64 198 -18 q 46 267 61 146 q 37 446 33 366 q 66 621 41 526 q 98 664 73 650 q 155 675 122 678 q 207 655 186 673 q 233 609 228 637 q 229 427 245 543 q 229 245 213 312 q 269 192 236 217 q 340 156 301 167 q 418 156 380 145 q 471 205 456 167 q 481 315 481 240 q 475 466 480 391 q 484 604 471 541 q 533 675 496 666 q 627 636 591 690 q 669 494 662 582 q 671 321 675 406 q 654 183 666 237 z "},"":{"ha":722,"x_min":30,"x_max":701,"o":"m 142 765 q 193 861 159 823 q 293 940 228 898 q 410 936 346 974 q 457 908 422 928 q 506 878 492 888 q 542 848 519 868 q 574 807 564 829 q 589 757 585 785 q 577 726 591 736 q 537 717 563 716 q 487 722 511 718 q 438 732 463 726 q 410 751 425 736 q 387 782 396 766 q 368 811 378 798 q 347 826 357 825 q 324 814 338 827 q 302 784 313 802 q 284 758 290 766 q 264 740 278 749 q 231 724 251 731 q 168 727 201 715 q 142 765 134 739 m 654 183 q 535 13 631 77 q 312 -34 439 -52 q 130 64 198 -18 q 46 267 61 146 q 37 446 33 366 q 66 621 41 526 q 98 664 73 650 q 155 675 122 678 q 207 655 186 673 q 233 609 228 637 q 229 427 245 543 q 229 245 213 312 q 269 192 236 217 q 340 156 301 167 q 418 156 380 145 q 471 205 456 167 q 481 315 481 240 q 475 466 480 391 q 484 604 471 541 q 533 675 496 666 q 627 636 591 690 q 669 494 662 582 q 671 321 675 406 q 654 183 666 237 z "},"":{"ha":722,"x_min":30,"x_max":701,"o":"m 282 723 q 199 722 247 697 q 149 789 152 746 q 191 865 146 834 q 274 878 235 897 q 317 804 315 859 q 282 723 320 749 m 515 719 q 449 720 487 697 q 407 781 411 743 q 435 842 403 815 q 499 852 468 868 q 541 788 534 833 q 515 719 547 743 m 654 183 q 535 13 631 77 q 312 -34 439 -52 q 130 64 198 -18 q 46 267 61 146 q 37 446 33 366 q 66 621 41 526 q 98 664 73 650 q 155 675 122 678 q 207 655 186 673 q 233 609 228 637 q 229 427 245 543 q 229 245 213 312 q 269 192 236 217 q 340 156 301 167 q 418 156 380 145 q 471 205 456 167 q 481 315 481 240 q 475 466 480 391 q 484 604 471 541 q 533 675 496 666 q 627 636 591 690 q 669 494 662 582 q 671 321 675 406 q 654 183 666 237 z "},"":{"ha":677,"x_min":22,"x_max":651,"o":"m 271 675 q 288 846 194 685 q 397 922 323 906 q 487 899 465 937 q 492 867 494 886 q 420 724 486 783 q 271 675 354 666 m 613 609 q 633 476 632 586 q 616 219 635 366 q 564 -38 598 72 q 425 -229 519 -183 q 159 -250 331 -275 q 50 -155 62 -236 q 129 -54 41 -88 q 222 -31 171 -38 q 300 -21 274 -24 q 350 9 326 -18 q 388 92 374 35 q 379 87 385 91 q 370 83 373 84 q 272 58 319 58 q 171 75 225 57 q 87 149 118 91 q 50 285 57 206 q 47 436 43 363 q 62 575 50 509 q 104 654 71 621 q 175 667 138 686 q 227 602 213 647 q 236 509 241 557 q 230 407 231 460 q 237 316 229 354 q 316 258 255 254 q 391 315 369 262 q 420 458 412 369 q 438 579 427 548 q 512 654 458 644 q 613 609 566 665 z "},"":{"ha":746,"x_min":37,"x_max":713,"o":"m 286 0 q 252 -189 286 -130 q 178 -233 227 -233 q 92 -202 130 -233 q 50 -133 53 -171 q 43 119 41 -76 q 43 353 45 313 q 37 640 37 500 q 57 925 37 779 q 81 982 61 951 q 121 1015 100 1013 q 157 1017 132 1015 q 200 1021 182 1020 q 239 1020 218 1021 q 272 1010 259 1019 q 289 987 285 1002 q 293 892 298 945 q 294 793 288 840 q 327 747 300 747 l 335 747 q 503 730 442 749 q 612 647 563 711 q 698 435 682 556 q 667 207 713 313 q 525 54 621 100 q 286 0 406 -3 m 288 198 q 336 146 296 146 q 505 202 438 144 q 576 397 589 275 q 559 483 571 448 q 522 553 548 518 q 444 602 495 587 q 319 606 392 616 q 298 597 305 604 q 289 466 297 553 q 280 335 281 378 q 288 198 279 292 z "},"":{"ha":677,"x_min":22,"x_max":651,"o":"m 282 712 q 199 711 247 686 q 149 779 152 735 q 191 854 146 823 q 274 867 235 886 q 317 793 315 848 q 282 712 320 738 m 515 708 q 449 709 487 686 q 407 770 411 732 q 435 831 403 804 q 499 841 468 857 q 541 777 534 822 q 515 708 547 732 m 613 609 q 633 476 632 586 q 616 219 635 366 q 564 -38 598 72 q 425 -229 519 -183 q 159 -250 331 -275 q 50 -155 62 -236 q 129 -54 41 -88 q 222 -31 171 -38 q 300 -21 274 -24 q 350 9 326 -18 q 388 92 374 35 q 379 87 385 91 q 370 83 373 84 q 272 58 319 58 q 171 75 225 57 q 87 149 118 91 q 50 285 57 206 q 47 436 43 363 q 62 575 50 509 q 104 654 71 621 q 175 667 138 686 q 227 602 213 647 q 236 509 241 557 q 230 407 231 460 q 237 316 229 354 q 316 258 255 254 q 391 315 369 262 q 420 458 412 369 q 438 579 427 548 q 512 654 458 644 q 613 609 566 665 z "},"":{"ha":876,"x_min":31,"x_max":859,"o":"m 289 1080 q 210 1135 241 1090 q 206 1213 178 1180 q 260 1254 231 1241 q 309 1267 289 1267 q 374 1265 328 1268 q 445 1261 419 1261 q 513 1264 469 1261 q 582 1267 557 1267 q 636 1262 606 1267 q 682 1240 666 1257 q 705 1195 699 1223 q 672 1108 718 1141 q 553 1068 627 1076 q 409 1064 480 1061 q 289 1080 338 1067 m 568 540 q 513 726 564 652 q 413 764 465 781 q 321 680 361 746 q 285 552 281 613 q 375 551 309 552 q 483 549 441 551 q 568 540 525 547 m 251 362 q 252 286 251 345 q 251 200 252 228 q 241 127 250 172 q 217 42 233 81 q 153 5 203 8 q 92 38 102 3 q 47 301 52 180 q 71 567 42 422 q 86 647 75 586 q 103 730 98 708 q 124 797 109 751 q 156 865 140 842 q 201 916 172 888 q 267 963 229 944 q 425 1008 345 1001 q 579 983 506 1015 q 696 883 652 952 q 786 690 754 791 q 823 476 818 589 q 823 271 829 363 q 800 46 818 178 q 751 -4 795 8 q 658 -1 707 -16 q 591 50 609 15 q 560 363 541 156 q 407 366 540 363 q 251 362 274 369 z "},"":{"ha":671,"x_min":4,"x_max":639,"o":"m 189 746 q 109 802 141 757 q 106 879 77 846 q 159 920 130 907 q 208 934 189 933 q 273 931 228 935 q 345 928 319 928 q 413 930 369 928 q 481 933 457 933 q 536 928 506 933 q 582 907 566 924 q 605 861 598 890 q 572 774 617 807 q 453 734 526 742 q 309 730 380 727 q 189 746 237 734 m 537 46 q 450 3 492 16 q 155 38 316 -42 q 58 144 87 72 q 48 286 28 217 q 129 380 68 355 q 434 410 277 439 q 392 479 429 463 q 310 485 355 495 q 216 473 264 475 q 138 486 168 471 q 104 568 100 511 q 152 640 109 624 q 286 680 229 669 q 407 682 342 692 q 530 632 472 673 q 580 587 562 610 q 605 532 598 564 q 613 479 612 500 q 614 412 614 458 q 613 342 613 366 q 615 284 613 328 q 617 224 617 240 q 614 175 617 209 q 602 123 610 141 q 577 84 593 106 q 537 46 562 62 m 342 129 q 421 199 395 155 q 433 292 448 243 q 371 335 420 331 q 283 316 321 339 q 195 175 170 259 q 254 121 208 134 q 342 129 301 109 z "},"":{"ha":876,"x_min":42,"x_max":867,"o":"m 568 540 q 513 726 564 652 q 413 764 465 781 q 321 680 361 746 q 285 552 281 613 q 375 551 309 552 q 483 549 441 551 q 568 540 525 547 m 251 362 q 252 286 251 345 q 251 200 252 228 q 241 127 250 172 q 217 42 233 81 q 153 5 203 8 q 92 38 102 3 q 47 301 52 180 q 71 567 42 422 q 86 647 75 586 q 103 730 98 708 q 124 797 109 751 q 156 865 140 842 q 201 916 172 888 q 267 963 229 944 q 425 1008 345 1001 q 579 983 506 1015 q 696 883 652 952 q 795 652 764 776 q 826 409 827 528 q 812 155 825 290 q 808 117 811 145 q 804 79 806 88 q 798 50 803 71 q 788 19 793 28 q 772 -3 783 9 q 747 -24 761 -15 q 734 -33 743 -27 q 720 -42 724 -39 q 707 -52 716 -45 q 696 -62 699 -58 q 686 -73 693 -65 q 680 -84 680 -80 q 678 -97 681 -88 q 680 -113 675 -106 q 706 -141 685 -134 q 751 -144 727 -148 q 804 -142 774 -140 q 850 -159 833 -145 q 857 -201 867 -172 q 825 -229 846 -229 q 753 -229 788 -231 q 690 -224 719 -228 q 632 -204 661 -220 q 579 -163 604 -189 q 560 -75 548 -121 q 613 8 572 -30 l 621 16 q 591 50 601 30 q 560 363 541 156 q 407 366 540 363 q 251 362 274 369 z "},"":{"ha":671,"x_min":28,"x_max":627,"o":"m 342 129 q 421 199 395 155 q 433 292 448 243 q 371 335 420 331 q 283 316 321 339 q 195 175 170 259 q 254 121 208 134 q 342 129 301 109 m 323 -14 q 155 38 247 -8 q 58 144 87 72 q 48 286 28 217 q 129 380 68 355 q 434 410 277 439 q 392 479 429 463 q 310 485 355 495 q 216 473 264 475 q 138 486 168 471 q 104 568 100 511 q 152 640 109 624 q 286 680 229 669 q 407 682 342 692 q 530 632 472 673 q 580 587 562 610 q 605 532 598 564 q 613 479 612 500 q 614 412 614 458 q 613 342 613 366 q 615 280 613 327 q 616 214 617 233 q 610 163 616 194 q 594 109 605 132 q 541 57 583 88 q 466 -4 498 26 q 439 -58 434 -34 q 466 -87 445 -80 q 511 -90 487 -94 q 564 -88 534 -85 q 610 -104 593 -91 q 616 -146 627 -118 q 585 -175 606 -175 q 513 -175 548 -176 q 450 -170 479 -174 q 392 -150 420 -165 q 339 -109 363 -134 q 323 -14 304 -69 z "},"":{"ha":959,"x_min":18,"x_max":958,"o":"m 400 1002 q 416 1173 323 1012 q 526 1249 452 1233 q 616 1226 594 1264 q 621 1194 623 1213 q 549 1051 614 1109 q 400 1002 483 993 m 475 746 q 356 665 396 730 q 318 524 316 600 q 354 392 320 449 q 432 292 392 327 q 507 254 472 258 q 577 258 541 250 q 644 291 613 267 q 707 336 674 315 q 765 378 739 358 q 818 399 791 397 q 867 384 845 400 q 915 229 932 326 q 821 83 898 133 q 658 5 739 30 q 303 33 467 -54 q 75 316 140 119 q 39 580 28 441 q 129 821 50 719 q 298 944 202 914 q 545 975 393 974 q 730 942 651 977 q 879 829 808 907 q 888 739 911 792 q 817 675 865 685 q 703 688 761 665 q 588 734 646 711 q 475 746 530 757 z "},"":{"ha":734,"x_min":-16,"x_max":701,"o":"m 293 723 q 309 894 216 732 q 419 970 345 954 q 509 947 487 985 q 514 914 515 933 q 441 772 507 830 q 293 723 376 713 m 458 195 q 522 229 491 198 q 580 284 552 260 q 642 300 608 308 q 683 235 682 289 q 658 141 684 180 q 581 53 624 84 q 471 0 538 22 q 383 -23 418 -16 q 307 -25 349 -30 q 225 0 266 -20 q 120 81 157 34 q 62 205 83 129 q 77 551 3 425 q 354 700 151 678 q 520 695 450 711 q 658 625 590 680 q 670 553 688 598 q 613 491 652 507 q 505 479 567 471 q 401 495 442 487 q 300 471 361 503 q 237 373 248 437 q 258 258 225 309 q 335 199 285 210 q 458 195 385 187 z "},"":{"ha":842,"x_min":19,"x_max":802,"o":"m 233 1062 q 154 1118 186 1073 q 151 1195 122 1162 q 204 1236 175 1223 q 253 1250 233 1249 q 318 1247 273 1251 q 389 1244 363 1244 q 458 1246 414 1244 q 526 1249 502 1249 q 581 1244 551 1249 q 627 1223 610 1240 q 650 1177 643 1206 q 616 1090 662 1123 q 498 1050 571 1058 q 353 1046 425 1043 q 233 1062 282 1050 m 684 821 q 548 808 618 799 q 431 828 477 817 q 296 812 384 840 q 232 746 243 793 q 254 658 221 699 q 342 613 286 617 q 478 619 382 610 q 613 613 574 628 q 675 529 661 602 q 650 425 693 441 q 502 405 586 399 q 354 388 418 411 q 297 342 315 373 q 285 279 279 311 q 317 226 290 248 q 384 205 343 203 q 479 221 427 206 q 565 248 532 236 q 648 264 598 260 q 738 250 699 269 q 784 83 819 217 q 671 0 766 12 q 473 -22 533 -16 q 316 -24 412 -27 q 121 0 220 -20 q 100 10 109 3 q 86 25 91 18 q 78 47 81 33 q 74 71 75 62 q 72 99 73 80 q 71 125 71 118 q 54 330 66 176 q 40 541 42 484 q 40 711 38 598 q 54 937 42 825 q 167 1000 61 994 q 406 1006 293 1010 q 642 971 519 1002 q 695 897 675 963 q 684 821 715 831 z "},"":{"ha":666,"x_min":8,"x_max":644,"o":"m 180 727 q 101 783 133 738 q 98 860 69 827 q 151 901 122 888 q 200 915 180 914 q 265 912 220 916 q 336 909 311 909 q 405 911 361 909 q 473 914 449 914 q 528 909 498 914 q 574 888 557 905 q 597 842 590 871 q 564 755 609 788 q 445 715 518 723 q 300 711 372 708 q 180 727 229 715 m 168 224 q 169 222 168 222 q 170 221 170 222 q 201 182 180 198 q 237 162 221 167 q 287 150 252 157 q 335 138 321 142 q 431 129 392 125 q 518 130 469 133 q 608 106 567 127 q 628 51 635 91 q 591 0 621 11 q 438 -26 498 -27 q 283 0 378 -24 q 256 7 281 1 q 228 14 232 14 q 203 21 224 15 q 176 30 182 27 q 154 40 171 33 q 131 53 137 47 q 112 67 125 58 q 93 85 99 76 q 79 106 87 94 q 65 132 71 118 q 31 256 38 195 q 34 372 24 317 q 68 500 43 427 q 235 646 106 614 q 398 668 320 671 q 549 618 476 665 q 616 533 602 586 q 628 395 631 480 q 536 273 624 311 q 360 231 477 248 q 168 224 243 213 m 300 549 q 226 534 256 551 q 181 489 195 518 q 161 433 167 460 q 153 370 155 406 q 283 380 167 373 q 442 408 399 387 q 492 458 483 430 q 469 513 502 487 q 300 549 420 548 z "},"":{"ha":842,"x_min":38,"x_max":819,"o":"m 684 821 q 548 808 618 799 q 431 828 477 817 q 296 812 384 840 q 232 746 243 793 q 254 658 221 699 q 342 613 286 617 q 478 619 382 610 q 613 613 574 628 q 675 529 661 602 q 650 425 693 441 q 502 405 586 399 q 354 388 418 411 q 297 342 315 373 q 285 279 279 311 q 317 226 290 248 q 384 205 343 203 q 479 221 427 206 q 565 248 532 236 q 648 264 598 260 q 738 250 699 269 q 784 83 819 217 q 743 31 777 56 q 675 -10 709 5 q 615 -50 640 -26 q 597 -100 590 -73 q 623 -129 602 -122 q 668 -132 644 -136 q 721 -130 692 -127 q 768 -146 750 -133 q 774 -189 784 -160 q 743 -217 765 -217 q 672 -217 707 -218 q 608 -212 637 -216 q 551 -192 579 -208 q 498 -151 522 -176 q 498 -20 450 -98 q 121 0 302 -38 q 100 10 109 3 q 86 25 91 18 q 78 47 81 33 q 74 71 75 62 q 72 99 73 80 q 71 125 71 118 q 54 330 66 176 q 40 541 42 484 q 40 711 38 598 q 54 937 42 825 q 167 1000 61 994 q 406 1006 293 1010 q 642 971 519 1002 q 695 897 675 963 q 684 821 715 831 z "},"":{"ha":666,"x_min":24,"x_max":669,"o":"m 168 224 q 169 222 168 222 q 170 221 170 222 q 201 182 180 198 q 237 162 221 167 q 287 150 252 157 q 335 138 321 142 q 431 129 392 125 q 518 130 469 133 q 608 106 567 127 q 628 50 636 92 q 597 3 624 26 q 543 -33 571 -19 q 496 -68 515 -47 q 481 -114 476 -90 q 508 -142 487 -136 q 553 -145 529 -149 q 606 -144 576 -141 q 652 -160 635 -146 q 659 -202 669 -174 q 628 -231 650 -231 q 557 -231 591 -232 q 493 -225 522 -229 q 435 -205 464 -221 q 382 -164 407 -190 q 391 -22 331 -104 q 283 0 355 -18 q 256 7 281 1 q 228 14 232 14 q 203 21 224 15 q 176 30 182 27 q 154 40 171 33 q 131 53 137 47 q 112 67 125 58 q 93 85 99 76 q 79 106 87 94 q 65 132 71 118 q 31 256 38 195 q 34 372 24 317 q 68 500 43 427 q 235 646 106 614 q 398 668 320 671 q 549 618 476 665 q 616 533 602 586 q 628 395 631 480 q 536 273 624 311 q 360 231 477 248 q 168 224 243 213 m 300 549 q 226 534 256 551 q 181 489 195 518 q 161 433 167 460 q 153 370 155 406 q 283 380 167 373 q 442 408 399 387 q 492 458 483 430 q 469 513 502 487 q 300 549 420 548 z "},"":{"ha":772,"x_min":28,"x_max":732,"o":"m 220 1078 q 140 1134 172 1089 q 137 1211 109 1179 q 191 1253 161 1240 q 239 1266 220 1265 q 304 1263 259 1267 q 376 1260 350 1260 q 444 1263 400 1260 q 513 1265 488 1265 q 567 1261 537 1265 q 613 1239 597 1256 q 636 1194 629 1222 q 603 1107 648 1139 q 484 1067 557 1074 q 340 1063 411 1059 q 220 1078 269 1066 m 283 777 q 224 800 263 802 q 155 792 186 799 q 92 811 125 785 q 51 902 56 846 q 88 970 46 958 q 374 1002 255 1008 q 658 948 494 997 q 705 881 700 936 q 675 795 709 826 q 574 778 650 770 q 487 753 499 785 q 478 707 479 736 q 482 627 477 678 q 487 545 487 576 q 487 488 487 526 q 488 426 487 449 q 489 369 488 403 q 491 313 490 335 q 495 266 492 290 q 503 225 498 241 q 513 199 507 209 q 557 171 528 175 q 620 165 586 167 q 675 146 654 164 q 715 62 713 115 q 671 0 716 9 q 485 -18 578 -16 q 338 -16 392 -20 q 163 0 285 -12 q 66 62 80 8 q 113 205 43 159 q 157 212 129 214 q 212 201 184 209 q 260 195 239 194 q 283 213 281 195 q 284 312 289 235 q 283 433 279 389 q 292 515 286 461 q 301 600 298 568 q 305 671 304 632 q 301 736 307 711 q 283 777 296 762 z "},"":{"ha":399,"x_min":-83,"x_max":491,"o":"m 41 675 q -39 731 -7 686 q -42 808 -71 776 q 12 850 -18 837 q 60 863 41 863 q 125 861 80 864 q 197 857 171 857 q 265 860 221 857 q 334 863 309 863 q 388 858 358 863 q 434 836 418 853 q 457 791 450 819 q 424 704 469 736 q 305 664 378 671 q 161 660 232 656 q 41 675 90 663 m 342 167 q 342 144 342 161 q 341 121 342 127 q 340 102 340 115 q 338 81 339 88 q 334 63 336 75 q 327 44 331 52 q 317 27 323 37 q 304 8 312 18 q 171 -24 264 -39 q 66 46 76 -8 q 51 144 56 102 q 47 236 46 187 q 50 307 49 285 q 58 397 50 328 q 69 495 66 467 q 132 590 76 567 q 224 583 175 608 q 307 511 274 557 q 333 463 324 487 q 345 404 342 439 q 348 345 349 369 q 345 262 347 321 q 342 167 343 203 z "},"":{"ha":399,"x_min":46,"x_max":349,"o":"m 342 167 q 342 144 342 161 q 341 121 342 127 q 340 102 340 115 q 338 81 339 88 q 334 63 336 75 q 327 44 331 52 q 317 27 323 37 q 304 8 312 18 q 171 -24 264 -39 q 66 46 76 -8 q 51 144 56 102 q 47 236 46 187 q 50 307 49 285 q 58 397 50 328 q 69 495 66 467 q 132 590 76 567 q 224 583 175 608 q 307 511 274 557 q 333 463 324 487 q 345 404 342 439 q 348 345 349 369 q 345 262 347 321 q 342 167 343 203 z "},"":{"ha":796,"x_min":50,"x_max":749,"o":"m 58 54 q 50 276 50 171 q 54 452 50 381 q 66 644 58 524 q 76 867 73 764 q 156 952 77 933 q 274 939 213 966 q 335 854 335 911 q 336 605 335 671 q 465 699 400 659 q 534 687 498 718 q 571 616 570 656 q 559 559 572 586 q 534 520 547 533 q 488 479 522 507 q 444 441 454 452 q 340 355 382 382 q 342 294 342 336 q 343 231 343 252 q 654 209 581 221 q 698 176 674 205 q 735 113 722 148 q 743 45 749 79 q 704 0 736 12 q 521 -25 662 -16 q 263 -30 380 -34 q 109 -8 156 -27 q 58 54 61 11 z "},"":{"ha":517,"x_min":-45,"x_max":473,"o":"m 415 -23 q 284 -22 351 -39 q 165 37 217 -5 q 93 136 113 80 q 60 297 73 193 q 60 307 60 300 q 58 317 60 313 q 22 307 41 311 q -32 356 -19 296 q -16 452 -45 416 q 45 522 12 490 q 45 762 38 663 q 76 890 50 857 q 159 925 102 924 q 222 852 208 926 q 235 650 237 779 q 271 667 247 655 q 308 685 296 680 q 378 640 347 703 q 374 555 406 583 q 325 507 357 537 q 271 454 293 476 q 227 415 248 433 q 227 404 227 411 q 228 393 228 396 q 229 363 228 384 q 230 333 229 342 q 233 309 231 324 q 239 279 235 293 q 248 251 243 266 q 304 178 269 202 q 370 152 339 153 q 429 142 401 151 q 461 110 456 133 q 463 28 473 71 q 415 -23 452 -14 z "},"":{"ha":935,"x_min":16,"x_max":890,"o":"m 416 1005 q 433 1176 339 1015 q 543 1252 468 1236 q 632 1229 610 1267 q 637 1196 639 1215 q 565 1054 631 1112 q 416 1005 499 996 m 637 412 q 631 501 633 468 q 630 569 629 534 q 632 622 631 604 q 638 694 633 640 q 646 792 643 747 q 661 875 650 844 q 703 928 671 906 q 770 952 734 951 q 834 928 807 954 q 858 896 849 911 q 870 859 867 880 q 874 826 873 838 q 875 785 875 814 q 875 745 875 755 q 880 396 883 563 q 854 47 878 229 q 777 -20 848 -3 q 637 0 680 -43 q 524 136 575 64 q 410 316 473 209 q 328 450 346 423 q 320 76 345 300 q 288 15 316 45 q 216 -25 259 -15 q 121 0 172 -35 q 66 66 84 26 q 48 138 49 106 q 50 229 47 170 q 52 319 53 289 q 42 477 50 374 q 35 652 34 581 q 52 811 37 724 q 161 955 69 911 q 320 935 269 1006 q 480 699 435 773 q 629 426 525 625 q 637 412 632 420 z "},"":{"ha":675,"x_min":24,"x_max":661,"o":"m 262 708 q 278 879 184 718 q 388 955 313 939 q 477 932 456 970 q 483 899 484 918 q 410 757 476 815 q 262 708 345 699 m 38 75 q 37 461 30 296 q 37 514 37 488 q 39 561 38 540 q 47 605 39 582 q 73 648 56 628 q 208 670 118 703 q 260 587 254 652 q 309 652 286 632 q 365 675 332 671 q 473 664 426 684 q 551 610 521 644 q 600 516 581 576 q 628 404 618 456 q 640 272 637 351 q 642 144 643 193 q 637 20 640 95 q 600 -19 637 -3 q 521 -31 562 -35 q 471 0 480 -27 q 458 149 461 27 q 445 328 454 271 q 406 433 433 399 q 328 454 378 467 q 306 444 315 452 q 290 424 297 437 q 281 404 283 411 q 274 378 279 397 q 275 211 278 267 q 254 20 271 155 q 201 -17 251 -3 q 125 -24 152 -31 q 59 8 79 -14 q 38 75 39 30 z "},"":{"ha":960,"x_min":16,"x_max":932,"o":"m 323 1055 q 243 1111 275 1066 q 240 1188 212 1156 q 294 1230 264 1217 q 342 1243 323 1242 q 408 1240 362 1244 q 479 1237 453 1237 q 547 1240 503 1237 q 616 1242 591 1242 q 670 1238 640 1242 q 716 1216 700 1233 q 739 1171 732 1199 q 706 1084 751 1116 q 587 1044 661 1051 q 443 1040 514 1036 q 323 1055 372 1043 m 735 30 q 465 -43 604 -60 q 201 79 327 -26 q 87 235 127 140 q 44 427 46 330 q 62 625 42 525 q 142 815 88 732 q 269 935 197 898 q 463 987 357 981 q 655 947 568 993 q 825 750 754 886 q 913 471 897 614 q 885 225 928 340 q 735 30 842 110 m 543 722 q 381 701 465 764 q 273 533 297 639 q 351 250 229 342 q 627 250 528 119 q 701 515 726 381 q 543 722 677 650 z "},"":{"ha":726,"x_min":27,"x_max":690,"o":"m 201 735 q 121 791 153 746 q 118 868 90 836 q 172 909 142 897 q 220 923 201 922 q 286 920 240 924 q 357 917 331 917 q 425 920 381 917 q 494 922 469 922 q 548 918 518 922 q 594 896 578 913 q 617 850 610 879 q 584 764 629 796 q 465 724 538 731 q 321 720 392 716 q 201 735 250 723 m 267 658 q 565 601 453 688 q 684 342 677 514 q 665 135 689 217 q 559 0 642 53 q 424 -47 495 -41 q 290 -32 353 -53 q 175 31 228 -11 q 46 245 58 123 q 56 424 37 336 q 132 578 76 511 q 267 658 187 644 m 338 471 q 250 384 263 464 q 251 275 241 335 q 317 161 266 197 q 442 155 369 125 q 522 221 498 176 q 538 316 547 266 q 474 431 529 384 q 338 471 419 477 z "},"":{"ha":1443,"x_min":33,"x_max":1440,"o":"m 1306 810 q 1171 797 1241 788 q 1053 817 1100 806 q 918 802 1006 829 q 854 735 865 783 q 876 646 844 688 q 964 601 909 605 q 1100 607 1005 598 q 1234 601 1195 616 q 1297 518 1282 590 q 1272 414 1314 430 q 1124 394 1208 388 q 977 377 1040 400 q 909 312 924 358 q 923 229 895 266 q 1005 193 951 191 q 1101 209 1048 194 q 1186 237 1153 224 q 1270 254 1219 250 q 1359 239 1320 258 q 1405 72 1440 206 q 1293 -11 1386 -4 q 743 -11 1047 -26 q 708 16 720 -9 q 447 -41 581 -61 q 193 79 313 -22 q 78 235 119 140 q 35 427 37 330 q 53 625 33 525 q 133 815 79 732 q 259 935 187 898 q 454 987 347 981 q 647 947 560 993 q 662 937 651 944 q 677 926 673 930 q 789 989 684 983 q 1029 996 916 1000 q 1264 960 1142 991 q 1318 886 1298 952 q 1306 810 1337 821 m 534 722 q 373 701 457 764 q 264 533 289 639 q 343 250 221 342 q 618 250 519 119 q 674 349 652 296 q 661 605 662 507 q 534 722 620 675 z "},"":{"ha":1196,"x_min":37,"x_max":1162,"o":"m 826 549 q 754 534 784 549 q 709 493 724 519 q 688 439 694 467 q 680 380 681 412 q 680 376 680 378 q 681 372 681 373 q 810 380 696 374 q 968 408 925 387 q 1019 458 1010 430 q 997 513 1028 487 q 826 549 948 548 m 338 471 q 250 384 263 464 q 251 275 241 335 q 317 161 266 197 q 442 155 369 125 q 522 221 498 176 q 538 316 547 266 q 474 431 529 384 q 338 471 419 477 m 267 658 q 616 548 505 696 q 761 646 659 620 q 924 668 846 671 q 1076 618 1002 665 q 1143 533 1128 586 q 1154 395 1157 480 q 1063 273 1150 309 q 887 231 1005 248 q 694 224 769 213 q 695 222 694 222 q 696 221 696 222 q 727 182 707 198 q 763 162 747 167 q 813 150 779 157 q 861 138 848 142 q 957 129 918 125 q 1045 130 996 133 q 1135 106 1095 127 q 1156 51 1162 91 q 1119 0 1149 11 q 965 -26 1025 -27 q 810 0 905 -24 q 659 53 696 28 q 633 72 644 61 q 559 0 602 27 q 424 -47 495 -41 q 290 -32 353 -53 q 175 31 228 -11 q 46 245 58 123 q 56 424 37 336 q 132 578 76 511 q 267 658 187 644 z "},"":{"ha":739,"x_min":7,"x_max":764,"o":"m 286 1024 q 302 1195 209 1034 q 412 1271 338 1255 q 502 1248 480 1286 q 507 1215 509 1234 q 435 1073 500 1131 q 286 1024 369 1015 m 42 277 q 61 292 49 288 q 102 288 79 298 q 161 256 126 278 q 221 225 197 235 q 275 213 239 222 q 333 200 312 203 q 383 195 354 197 q 435 202 412 194 q 476 228 457 210 q 513 302 513 263 q 477 368 514 340 q 350 404 445 392 q 209 453 255 416 q 94 648 125 518 q 127 882 64 779 q 357 995 197 981 q 639 936 518 1009 q 666 914 654 928 q 692 810 700 871 q 640 715 684 749 q 585 702 618 696 q 524 723 551 708 q 462 753 498 738 q 400 766 426 768 q 301 734 323 764 q 278 637 263 684 q 351 563 293 590 q 455 530 385 548 q 576 492 525 513 q 648 441 628 472 q 692 264 705 351 q 621 109 678 178 q 481 0 564 39 q 324 -22 401 -33 q 175 31 247 -12 q 58 147 99 79 q 42 277 18 216 z "},"":{"ha":571,"x_min":4,"x_max":566,"o":"m 203 712 q 220 883 126 722 q 330 959 255 943 q 419 936 397 974 q 425 903 426 922 q 352 761 418 819 q 203 712 286 703 m 256 168 q 311 190 292 171 q 315 235 330 209 q 225 304 294 269 q 134 363 156 340 q 97 457 99 400 q 119 564 95 514 q 191 648 144 613 q 294 680 239 682 q 431 644 374 674 q 536 551 487 614 q 534 488 557 524 q 473 446 510 452 q 423 462 446 442 q 377 501 400 481 q 328 517 354 521 q 288 487 300 513 q 282 438 275 461 q 368 368 294 395 q 418 347 399 357 q 463 319 438 338 q 502 275 488 301 q 515 213 515 248 q 441 38 518 94 q 337 -7 391 1 q 224 0 283 -15 q 104 42 151 15 q 27 125 57 69 q 35 192 11 157 q 99 233 60 227 q 178 203 138 240 q 256 168 217 165 z "},"":{"ha":739,"x_min":7,"x_max":764,"o":"m 612 1225 q 561 1128 595 1165 q 463 1050 526 1092 q 345 1054 408 1015 q 297 1082 332 1062 q 248 1112 262 1101 q 212 1141 235 1122 q 180 1183 190 1161 q 165 1233 170 1204 q 177 1263 163 1253 q 217 1274 191 1274 q 267 1270 243 1274 q 316 1259 292 1265 q 371 1213 345 1251 q 412 1162 397 1175 q 437 1164 425 1153 q 460 1197 450 1176 q 488 1240 471 1218 q 525 1267 506 1261 q 587 1263 555 1276 q 612 1225 620 1251 m 42 277 q 61 292 49 288 q 102 288 79 298 q 161 256 126 278 q 221 225 197 235 q 275 213 239 222 q 333 200 312 203 q 383 195 354 197 q 435 202 412 194 q 476 228 457 210 q 513 302 513 263 q 477 368 514 340 q 350 404 445 392 q 209 453 255 416 q 94 648 125 518 q 127 882 64 779 q 357 995 197 981 q 639 936 518 1009 q 666 914 654 928 q 692 810 700 871 q 640 715 684 749 q 585 702 618 696 q 524 723 551 708 q 462 753 498 738 q 400 766 426 768 q 301 734 323 764 q 278 637 263 684 q 351 563 293 590 q 455 530 385 548 q 576 492 525 513 q 648 441 628 472 q 692 264 705 351 q 621 109 678 178 q 481 0 564 39 q 324 -22 401 -33 q 175 31 247 -12 q 58 147 99 79 q 42 277 18 216 z "},"":{"ha":571,"x_min":4,"x_max":566,"o":"m 521 909 q 470 812 505 849 q 372 734 435 776 q 254 738 317 699 q 206 766 241 746 q 157 795 171 785 q 121 825 144 806 q 89 867 99 845 q 75 917 79 888 q 86 947 72 937 q 126 958 100 958 q 176 954 152 958 q 225 943 201 949 q 280 897 254 935 q 321 846 307 859 q 347 848 334 837 q 370 881 359 860 q 397 924 380 902 q 434 951 415 945 q 496 947 464 960 q 521 909 529 935 m 256 168 q 311 190 292 171 q 315 235 330 209 q 225 304 294 269 q 134 363 156 340 q 97 457 99 400 q 119 564 95 514 q 191 648 144 613 q 294 680 239 682 q 431 644 374 674 q 536 551 487 614 q 534 488 557 524 q 473 446 510 452 q 423 462 446 442 q 377 501 400 481 q 328 517 354 521 q 288 487 300 513 q 282 438 275 461 q 368 368 294 395 q 418 347 399 357 q 463 319 438 338 q 502 275 488 301 q 515 213 515 248 q 441 38 518 94 q 337 -7 391 1 q 224 0 283 -15 q 104 42 151 15 q 27 125 57 69 q 35 192 11 157 q 99 233 60 227 q 178 203 138 240 q 256 168 217 165 z "},"":{"ha":863,"x_min":42,"x_max":803,"o":"m 264 972 q 185 1028 217 983 q 182 1105 153 1073 q 235 1147 206 1134 q 284 1160 264 1160 q 349 1158 304 1161 q 420 1154 395 1154 q 489 1157 445 1154 q 557 1160 533 1160 q 612 1155 582 1160 q 658 1133 642 1150 q 681 1088 674 1116 q 648 1001 693 1034 q 529 961 602 968 q 385 957 456 954 q 264 972 313 960 m 429 -34 q 264 5 342 -43 q 142 127 187 53 q 83 279 96 201 q 53 593 53 458 q 83 906 53 727 q 132 954 90 945 q 217 943 175 962 q 263 898 259 925 q 280 650 282 800 q 283 400 278 499 q 358 241 294 289 q 452 221 384 220 q 533 258 519 222 q 564 425 559 317 q 563 624 568 532 q 568 798 557 716 q 613 902 578 879 q 746 876 700 956 q 792 458 804 774 q 790 376 791 437 q 787 293 789 316 q 779 227 785 270 q 756 150 772 183 q 716 83 741 117 q 661 25 690 47 q 588 -9 631 3 q 517 -24 545 -20 q 429 -34 488 -28 z "},"":{"ha":722,"x_min":30,"x_max":701,"o":"m 194 723 q 115 779 146 734 q 111 856 83 823 q 165 897 136 884 q 214 911 194 910 q 279 908 233 911 q 350 905 324 905 q 418 907 374 905 q 487 910 463 910 q 541 905 511 910 q 587 884 571 901 q 610 838 604 867 q 577 751 623 784 q 458 711 532 719 q 314 707 385 704 q 194 723 243 711 m 654 183 q 535 13 631 77 q 312 -34 439 -52 q 130 64 198 -18 q 46 267 61 146 q 37 446 33 366 q 66 621 41 526 q 98 664 73 650 q 155 675 122 678 q 207 655 186 673 q 233 609 228 637 q 229 427 245 543 q 229 245 213 312 q 269 192 236 217 q 340 156 301 167 q 418 156 380 145 q 471 205 456 167 q 481 315 481 240 q 475 466 480 391 q 484 604 471 541 q 533 675 496 666 q 627 636 591 690 q 669 494 662 582 q 671 321 675 406 q 654 183 666 237 z "},"":{"ha":907,"x_min":30,"x_max":868,"o":"m 220 1004 q 271 1099 236 1062 q 370 1179 305 1137 q 487 1175 423 1213 q 534 1147 499 1166 q 583 1117 570 1127 q 619 1087 597 1107 q 652 1046 642 1067 q 666 996 662 1024 q 654 965 669 975 q 614 956 640 955 q 564 960 589 956 q 515 971 540 964 q 488 990 502 975 q 465 1021 473 1005 q 445 1050 456 1036 q 425 1065 434 1063 q 401 1053 415 1066 q 379 1023 391 1040 q 361 996 368 1005 q 342 979 355 987 q 308 963 328 970 q 245 966 278 954 q 220 1004 212 978 m 844 871 q 852 53 871 426 q 798 -34 849 -23 q 708 -14 755 -42 q 623 56 661 14 q 547 161 586 99 q 486 267 509 224 q 444 355 464 311 q 392 244 425 321 q 326 107 359 167 q 245 0 292 47 q 180 -23 222 -24 q 106 4 138 -22 q 76 46 87 20 q 63 87 65 72 q 62 143 61 102 q 62 189 62 184 q 62 332 61 221 q 58 487 62 444 q 50 588 56 522 q 43 684 45 654 q 45 772 42 715 q 60 895 49 830 q 105 941 65 928 q 186 941 145 954 q 235 899 227 928 q 253 745 251 844 q 251 538 255 647 q 248 399 247 429 q 339 550 271 452 q 441 647 407 648 q 511 607 477 646 q 583 500 544 568 q 643 404 621 433 q 633 533 635 461 q 633 723 631 605 q 635 871 635 841 q 656 918 635 899 q 707 941 677 937 q 767 941 736 945 q 820 917 798 936 q 844 871 842 898 z "},"":{"ha":971,"x_min":5,"x_max":958,"o":"m 237 768 q 288 863 254 826 q 388 943 323 901 q 505 939 441 977 q 552 911 517 930 q 601 881 587 891 q 637 851 614 871 q 669 810 659 831 q 684 760 680 788 q 672 729 686 739 q 632 720 658 719 q 582 724 606 720 q 533 735 557 728 q 505 754 519 739 q 482 785 491 769 q 463 814 473 800 q 442 829 452 827 q 419 817 433 830 q 397 787 408 804 q 379 760 385 769 q 359 743 373 751 q 326 727 346 734 q 262 730 296 718 q 237 768 229 742 m 928 598 q 875 125 966 328 q 625 -35 812 -14 q 496 -16 555 -43 q 427 52 438 11 q 361 -9 412 12 q 245 -23 309 -30 q 168 4 202 -18 q 113 55 134 26 q 78 130 92 84 q 58 215 64 175 q 49 313 52 255 q 47 410 46 370 q 49 508 47 449 q 50 595 50 567 q 92 654 50 639 q 183 670 164 682 q 195 654 191 665 q 214 546 212 604 q 211 423 216 488 q 208 327 206 358 q 207 288 208 320 q 207 237 206 256 q 215 193 208 217 q 237 156 222 168 q 302 161 270 132 q 354 237 335 190 q 379 372 374 290 q 380 549 384 453 q 376 654 376 646 q 412 686 376 677 q 488 685 449 694 q 533 654 526 675 q 534 456 544 621 q 549 195 521 254 q 678 179 583 126 q 703 220 694 187 q 712 307 711 254 q 712 407 713 359 q 707 521 711 454 q 704 617 704 587 q 757 669 704 658 q 866 659 810 681 q 928 598 922 637 z "},"":{"ha":802,"x_min":5,"x_max":772,"o":"m 187 1067 q 238 1163 203 1126 q 338 1242 273 1200 q 454 1238 391 1276 q 502 1211 467 1230 q 551 1181 537 1191 q 587 1151 564 1171 q 619 1109 609 1131 q 633 1059 629 1088 q 622 1029 636 1039 q 582 1019 608 1019 q 532 1024 556 1020 q 483 1035 507 1028 q 455 1054 469 1039 q 432 1084 441 1069 q 412 1114 423 1100 q 392 1128 401 1127 q 369 1116 382 1130 q 347 1086 358 1104 q 329 1060 335 1069 q 309 1042 323 1051 q 275 1027 296 1034 q 212 1029 245 1017 q 187 1067 179 1042 m 320 460 q 237 533 288 490 q 163 600 187 576 q 106 659 138 623 q 50 736 75 696 q 96 958 -7 829 q 164 994 123 990 q 237 970 205 998 q 342 859 274 937 q 449 745 410 781 q 551 944 494 838 q 716 928 589 1015 q 755 882 743 911 q 758 823 768 852 q 644 508 684 613 q 542 265 604 403 q 408 0 480 127 q 347 -36 393 -27 q 258 -34 301 -45 q 180 -1 209 -24 q 163 50 151 22 q 251 279 199 141 q 320 460 302 416 z "},"":{"ha":677,"x_min":22,"x_max":651,"o":"m 126 760 q 177 855 142 818 q 277 935 212 892 q 393 930 330 968 q 441 903 406 922 q 490 873 476 883 q 526 843 503 863 q 558 802 548 823 q 572 751 568 780 q 561 721 575 731 q 521 711 547 711 q 471 716 495 712 q 422 727 446 720 q 394 746 408 731 q 371 777 380 761 q 351 806 362 792 q 331 821 340 819 q 308 808 321 822 q 286 779 297 796 q 268 752 274 761 q 248 734 262 743 q 214 719 235 726 q 151 722 184 709 q 126 760 118 734 m 613 609 q 633 476 632 586 q 616 219 635 366 q 564 -38 598 72 q 425 -229 519 -183 q 159 -250 331 -275 q 50 -155 62 -236 q 129 -54 41 -88 q 222 -31 171 -38 q 300 -21 274 -24 q 350 9 326 -18 q 388 92 374 35 q 379 87 385 91 q 370 83 373 84 q 272 58 319 58 q 171 75 225 57 q 87 149 118 91 q 50 285 57 206 q 47 436 43 363 q 62 575 50 509 q 104 654 71 621 q 175 667 138 686 q 227 602 213 647 q 236 509 241 557 q 230 407 231 460 q 237 316 229 354 q 316 258 255 254 q 391 315 369 262 q 420 458 412 369 q 438 579 427 548 q 512 654 458 644 q 613 609 566 665 z "},"":{"ha":802,"x_min":5,"x_max":772,"o":"m 327 1024 q 244 1023 292 998 q 194 1090 197 1047 q 235 1166 191 1135 q 319 1179 279 1198 q 362 1105 359 1160 q 327 1024 365 1050 m 560 1020 q 494 1021 532 998 q 452 1082 456 1044 q 480 1143 448 1116 q 544 1153 513 1169 q 585 1089 579 1134 q 560 1020 591 1044 m 320 460 q 237 533 288 490 q 163 600 187 576 q 106 659 138 623 q 50 736 75 696 q 96 958 -7 829 q 164 994 123 990 q 237 970 205 998 q 342 859 274 937 q 449 745 410 781 q 551 944 494 838 q 716 928 589 1015 q 755 882 743 911 q 758 823 768 852 q 644 508 684 613 q 542 265 604 403 q 408 0 480 127 q 347 -36 393 -27 q 258 -34 301 -45 q 180 -1 209 -24 q 163 50 151 22 q 251 279 199 141 q 320 460 302 416 z "},"":{"ha":842,"x_min":39,"x_max":818,"o":"m 345 1002 q 361 1173 267 1012 q 471 1249 396 1233 q 560 1226 538 1264 q 566 1194 567 1213 q 493 1051 559 1109 q 345 1002 427 993 m 334 263 q 423 273 362 266 q 524 285 484 281 q 620 286 563 289 q 726 267 677 282 q 786 201 772 254 q 779 100 800 148 q 718 31 758 53 q 613 0 677 9 q 436 -26 481 -20 q 308 -27 391 -31 q 133 0 225 -23 q 54 39 66 16 q 42 141 42 62 q 61 260 42 208 q 103 342 80 312 q 176 426 126 372 q 195 446 189 439 q 438 692 327 593 q 144 697 220 680 q 61 758 66 715 q 126 954 34 941 q 281 970 206 964 q 418 975 355 975 q 559 975 481 975 q 720 975 636 975 q 786 933 766 975 q 798 838 806 891 q 762 750 789 784 q 334 263 564 507 z "},"":{"ha":709,"x_min":-14,"x_max":677,"o":"m 285 741 q 301 911 208 750 q 411 987 336 971 q 500 964 479 1002 q 506 932 507 951 q 433 789 499 848 q 285 741 368 731 m 396 195 q 473 197 438 197 q 546 190 507 198 q 628 163 585 182 q 661 78 665 148 q 620 0 658 8 q 457 -17 506 -18 q 300 -8 408 -16 q 119 0 193 0 q 47 27 79 0 q 27 88 15 54 q 107 222 52 151 q 235 370 163 294 q 330 475 307 445 q 193 474 269 463 q 68 525 117 486 q 50 621 20 564 q 79 659 62 644 q 122 682 96 674 q 165 693 148 690 q 217 700 182 696 q 567 688 369 720 q 658 625 651 674 q 658 591 659 606 q 648 558 656 575 q 633 533 639 541 q 612 503 628 525 q 591 475 595 481 q 529 379 566 439 q 461 273 492 319 q 396 195 430 228 z "},"":{"ha":842,"x_min":39,"x_max":818,"o":"m 463 1016 q 370 1038 416 996 q 328 1130 324 1080 q 385 1202 332 1176 q 477 1196 438 1227 q 517 1099 521 1161 q 463 1016 514 1038 m 334 263 q 423 273 362 266 q 524 285 484 281 q 620 286 563 289 q 726 267 677 282 q 786 201 772 254 q 779 100 800 148 q 718 31 758 53 q 613 0 677 9 q 436 -26 481 -20 q 308 -27 391 -31 q 133 0 225 -23 q 54 39 66 16 q 42 141 42 62 q 61 260 42 208 q 103 342 80 312 q 176 426 126 372 q 195 446 189 439 q 438 692 327 593 q 144 697 220 680 q 61 758 66 715 q 126 954 34 941 q 281 970 206 964 q 418 975 355 975 q 559 975 481 975 q 720 975 636 975 q 786 933 766 975 q 798 838 806 891 q 762 750 789 784 q 334 263 564 507 z "},"":{"ha":709,"x_min":-14,"x_max":677,"o":"m 395 753 q 302 774 349 732 q 260 867 256 817 q 317 939 264 913 q 410 933 370 964 q 450 836 453 898 q 395 753 446 774 m 396 195 q 473 197 438 197 q 546 190 507 198 q 628 163 585 182 q 661 78 665 148 q 620 0 658 8 q 457 -17 506 -18 q 300 -8 408 -16 q 119 0 193 0 q 47 27 79 0 q 27 88 15 54 q 107 222 52 151 q 235 370 163 294 q 330 475 307 445 q 193 474 269 463 q 68 525 117 486 q 50 621 20 564 q 79 659 62 644 q 122 682 96 674 q 165 693 148 690 q 217 700 182 696 q 567 688 369 720 q 658 625 651 674 q 658 591 659 606 q 648 558 656 575 q 633 533 639 541 q 612 503 628 525 q 591 475 595 481 q 529 379 566 439 q 461 273 492 319 q 396 195 430 228 z "},"":{"ha":842,"x_min":39,"x_max":818,"o":"m 650 1199 q 599 1103 633 1139 q 500 1024 564 1066 q 382 1028 446 989 q 335 1056 370 1036 q 286 1086 300 1076 q 250 1116 273 1096 q 218 1157 228 1135 q 203 1207 208 1179 q 215 1238 201 1227 q 255 1248 229 1248 q 305 1244 281 1248 q 354 1233 330 1240 q 409 1187 382 1225 q 450 1137 435 1149 q 475 1139 463 1127 q 498 1171 488 1150 q 526 1214 509 1192 q 563 1241 544 1236 q 625 1238 593 1251 q 650 1199 658 1225 m 334 263 q 423 273 362 266 q 524 285 484 281 q 620 286 563 289 q 726 267 677 282 q 786 201 772 254 q 779 100 800 148 q 718 31 758 53 q 613 0 677 9 q 436 -26 481 -20 q 308 -27 391 -31 q 133 0 225 -23 q 54 39 66 16 q 42 141 42 62 q 61 260 42 208 q 103 342 80 312 q 176 426 126 372 q 195 446 189 439 q 438 692 327 593 q 144 697 220 680 q 61 758 66 715 q 126 954 34 941 q 281 970 206 964 q 418 975 355 975 q 559 975 481 975 q 720 975 636 975 q 786 933 766 975 q 798 838 806 891 q 762 750 789 784 q 334 263 564 507 z "},"":{"ha":709,"x_min":-14,"x_max":677,"o":"m 590 940 q 539 844 574 880 q 441 765 505 807 q 323 769 387 730 q 275 797 311 777 q 227 827 240 817 q 191 857 213 837 q 158 898 168 876 q 144 948 148 920 q 155 979 141 968 q 195 989 170 989 q 245 985 221 989 q 294 974 270 981 q 349 928 323 966 q 391 878 376 890 q 416 880 403 868 q 439 912 429 891 q 467 955 449 933 q 503 982 484 977 q 566 979 533 991 q 590 940 598 966 m 396 195 q 473 197 438 197 q 546 190 507 198 q 628 163 585 182 q 661 78 665 148 q 620 0 658 8 q 457 -17 506 -18 q 300 -8 408 -16 q 119 0 193 0 q 47 27 79 0 q 27 88 15 54 q 107 222 52 151 q 235 370 163 294 q 330 475 307 445 q 193 474 269 463 q 68 525 117 486 q 50 621 20 564 q 79 659 62 644 q 122 682 96 674 q 165 693 148 690 q 217 700 182 696 q 567 688 369 720 q 658 625 651 674 q 658 591 659 606 q 648 558 656 575 q 633 533 639 541 q 612 503 628 525 q 591 475 595 481 q 529 379 566 439 q 461 273 492 319 q 396 195 430 228 z "},"":{"ha":788,"x_min":31,"x_max":753,"o":"m 290 361 q 221 380 241 373 q 146 483 144 404 q 225 537 148 526 q 300 548 289 547 q 380 867 313 719 q 496 975 415 945 q 662 975 578 1005 q 737 886 722 956 q 720 758 753 817 q 666 732 707 732 q 587 731 625 731 q 537 704 548 731 q 495 564 514 648 q 621 545 548 563 q 657 504 651 538 q 650 438 663 469 q 555 358 625 368 q 467 349 491 350 q 462 264 465 323 q 456 178 458 205 q 448 106 454 152 q 435 33 442 60 q 413 -25 427 5 q 380 -79 399 -56 q 229 -135 334 -134 q 75 -83 125 -136 q 36 5 31 -33 q 75 58 41 42 q 151 79 111 76 q 215 86 191 83 q 252 110 239 90 q 285 279 275 144 q 288 320 285 293 q 290 361 290 347 z "},"":{"ha":555,"x_min":50,"x_max":507,"o":"m 58 720 q 109 816 75 779 q 209 895 144 853 q 326 891 262 929 q 373 863 338 883 q 422 833 408 844 q 458 804 435 823 q 490 762 480 784 q 505 712 500 741 q 493 682 507 692 q 453 672 479 671 q 403 677 427 673 q 354 688 378 681 q 326 707 340 692 q 303 737 312 722 q 283 766 294 753 q 263 781 273 780 q 240 769 254 783 q 218 739 229 757 q 200 713 206 722 q 180 695 194 704 q 146 680 167 686 q 83 682 117 670 q 58 720 50 694 z "},"":{"ha":555,"x_min":54,"x_max":511,"o":"m 503 863 q 452 766 487 803 q 354 688 418 730 q 236 692 300 652 q 189 720 224 700 q 140 749 153 739 q 104 779 126 760 q 71 821 81 799 q 57 871 61 842 q 68 901 54 891 q 109 911 83 911 q 159 907 134 911 q 208 897 183 903 q 262 850 236 888 q 304 800 289 812 q 329 802 316 791 q 352 835 342 814 q 380 878 362 856 q 416 905 397 899 q 479 901 446 914 q 503 863 511 888 z "},"":{"ha":575,"x_min":37,"x_max":536,"o":"m 38 887 q 56 929 37 913 q 106 937 75 945 q 167 887 138 928 q 189 848 176 875 q 215 807 202 821 q 250 788 228 793 q 323 785 297 779 q 367 811 350 791 q 391 852 384 831 q 410 892 399 872 q 433 917 420 911 q 498 926 461 930 q 533 895 536 922 q 479 761 526 823 q 353 672 431 699 q 175 688 275 646 q 38 887 43 745 z "},"":{"ha":247,"x_min":24,"x_max":221,"o":"m 163 754 q 71 776 117 734 q 28 868 24 818 q 85 940 33 914 q 178 935 138 966 q 218 838 221 899 q 163 754 214 776 z "},"":{"ha":368,"x_min":30,"x_max":327,"o":"m 229 875 q 168 890 199 906 q 117 829 136 873 q 133 762 103 796 q 195 742 163 728 q 251 798 241 760 q 229 875 260 837 m 275 688 q 161 654 228 642 q 58 738 95 667 q 40 847 30 792 q 96 941 50 902 q 189 983 142 982 q 271 937 235 983 q 323 808 319 875 q 275 688 327 741 z "},"":{"ha":376,"x_min":23,"x_max":342,"o":"m 275 83 q 270 40 288 60 q 223 7 252 20 q 172 -28 194 -7 q 155 -75 149 -50 q 181 -103 160 -96 q 226 -106 202 -110 q 279 -104 250 -102 q 326 -121 308 -107 q 332 -163 342 -134 q 300 -191 321 -191 q 229 -191 263 -193 q 165 -186 194 -190 q 107 -166 136 -182 q 54 -125 79 -151 q 35 -37 23 -83 q 88 46 47 8 q 153 94 118 75 q 222 113 187 113 q 275 83 258 113 z "},"":{"ha":633,"x_min":38,"x_max":585,"o":"m 233 844 q 196 831 209 845 q 180 800 183 818 q 163 762 176 781 q 129 734 151 742 q 68 749 98 723 q 47 807 38 776 q 205 987 90 954 q 265 983 236 996 q 317 948 294 971 q 359 901 339 925 q 395 859 378 876 q 425 844 412 842 q 458 861 448 846 q 468 894 468 876 q 475 933 468 911 q 500 968 483 955 q 549 975 519 983 q 579 944 578 967 q 574 824 585 872 q 519 735 563 776 q 349 720 450 667 q 308 765 323 734 q 279 819 293 796 q 233 844 264 842 z "},"":{"ha":608,"x_min":27,"x_max":579,"o":"m 387 728 q 322 758 349 719 q 308 836 296 796 q 346 904 319 873 q 393 947 373 935 q 464 989 412 959 q 553 972 515 1016 q 562 885 579 935 q 492 788 544 836 q 387 728 439 741 m 117 755 q 53 785 79 746 q 39 864 27 825 q 77 932 50 902 q 123 975 103 962 q 194 1017 144 989 q 283 1000 244 1043 q 292 912 309 962 q 222 815 274 863 q 117 755 170 768 z "},"":{"ha":822,"x_min":30,"x_max":804,"o":"m 557 38 q 301 -34 452 -56 q 220 -9 263 -28 q 214 -130 217 -92 q 172 -233 210 -206 q 80 -228 138 -256 q 42 -164 45 -209 q 30 239 30 27 q 56 621 30 452 q 85 664 60 650 q 142 675 110 678 q 195 655 174 673 q 222 609 217 637 q 227 427 237 567 q 218 245 217 286 q 271 176 220 206 q 381 151 321 145 q 460 205 441 156 q 470 315 471 240 q 465 466 469 391 q 473 604 460 541 q 522 675 486 666 q 625 650 591 694 q 654 528 652 613 q 645 361 656 442 q 633 207 633 279 q 658 117 633 134 q 715 112 674 106 q 766 100 755 118 q 764 0 804 56 q 661 -34 720 -57 q 557 38 585 -1 z "},"":{"ha":911,"x_min":38,"x_max":867,"o":"m 283 -34 q 208 -3 236 -34 q 179 79 179 28 q 176 210 179 117 q 174 379 174 304 q 180 510 175 454 q 146 510 175 511 q 113 510 117 509 q 66 540 84 519 q 41 614 38 568 q 84 685 43 659 q 152 713 114 704 q 216 722 190 722 q 287 718 241 722 q 350 715 332 715 q 492 720 387 715 q 656 720 598 724 q 812 690 769 713 q 867 609 867 663 q 833 533 867 559 q 731 515 800 507 q 741 269 745 425 q 711 47 736 114 q 692 5 699 18 q 670 -21 686 -8 q 632 -34 654 -34 q 554 -3 581 -34 q 528 85 528 28 q 530 519 525 403 q 408 515 448 519 q 382 31 400 115 q 283 -34 370 -34 z "},"":{"ha":907,"x_min":30,"x_max":868,"o":"m 528 932 q 379 981 445 922 q 307 1123 313 1039 q 358 1181 302 1175 q 476 1142 419 1190 q 510 1103 498 1124 q 528 932 604 941 m 844 871 q 852 53 871 426 q 798 -34 849 -23 q 708 -14 755 -42 q 623 56 661 14 q 547 161 586 99 q 486 267 509 224 q 444 355 464 311 q 392 244 425 321 q 326 107 359 167 q 245 0 292 47 q 180 -23 222 -24 q 106 4 138 -22 q 76 46 87 20 q 63 87 65 72 q 62 143 61 102 q 62 189 62 184 q 62 332 61 221 q 58 487 62 444 q 50 588 56 522 q 43 684 45 654 q 45 772 42 715 q 60 895 49 830 q 105 941 65 928 q 186 941 145 954 q 235 899 227 928 q 253 745 251 844 q 251 538 255 647 q 248 399 247 429 q 339 550 271 452 q 441 647 407 648 q 511 607 477 646 q 583 500 544 568 q 643 404 621 433 q 633 533 635 461 q 633 723 631 605 q 635 871 635 841 q 656 918 635 899 q 707 941 677 937 q 767 941 736 945 q 820 917 798 936 q 844 871 842 898 z "},"":{"ha":971,"x_min":5,"x_max":958,"o":"m 589 726 q 440 774 506 716 q 368 917 374 833 q 419 975 363 968 q 537 936 480 983 q 571 897 559 918 q 589 726 665 735 m 928 598 q 875 125 966 328 q 625 -35 812 -14 q 496 -16 555 -43 q 427 52 438 11 q 361 -9 412 12 q 245 -23 309 -30 q 168 4 202 -18 q 113 55 134 26 q 78 130 92 84 q 58 215 64 175 q 49 313 52 255 q 47 410 46 370 q 49 508 47 449 q 50 595 50 567 q 92 654 50 639 q 183 670 164 682 q 195 654 191 665 q 214 546 212 604 q 211 423 216 488 q 208 327 206 358 q 207 288 208 320 q 207 237 206 256 q 215 193 208 217 q 237 156 222 168 q 302 161 270 132 q 354 237 335 190 q 379 372 374 290 q 380 549 384 453 q 376 654 376 646 q 412 686 376 677 q 488 685 449 694 q 533 654 526 675 q 534 456 544 621 q 549 195 521 254 q 678 179 583 126 q 703 220 694 187 q 712 307 711 254 q 712 407 713 359 q 707 521 711 454 q 704 617 704 587 q 757 669 704 658 q 866 659 810 681 q 928 598 922 637 z "},"":{"ha":907,"x_min":30,"x_max":868,"o":"m 349 916 q 365 1086 271 925 q 475 1162 400 1146 q 564 1139 543 1177 q 570 1107 571 1126 q 497 964 563 1023 q 349 916 431 906 m 844 871 q 852 53 871 426 q 798 -34 849 -23 q 708 -14 755 -42 q 623 56 661 14 q 547 161 586 99 q 486 267 509 224 q 444 355 464 311 q 392 244 425 321 q 326 107 359 167 q 245 0 292 47 q 180 -23 222 -24 q 106 4 138 -22 q 76 46 87 20 q 63 87 65 72 q 62 143 61 102 q 62 189 62 184 q 62 332 61 221 q 58 487 62 444 q 50 588 56 522 q 43 684 45 654 q 45 772 42 715 q 60 895 49 830 q 105 941 65 928 q 186 941 145 954 q 235 899 227 928 q 253 745 251 844 q 251 538 255 647 q 248 399 247 429 q 339 550 271 452 q 441 647 407 648 q 511 607 477 646 q 583 500 544 568 q 643 404 621 433 q 633 533 635 461 q 633 723 631 605 q 635 871 635 841 q 656 918 635 899 q 707 941 677 937 q 767 941 736 945 q 820 917 798 936 q 844 871 842 898 z "},"":{"ha":971,"x_min":5,"x_max":958,"o":"m 372 726 q 388 897 294 735 q 498 972 423 956 q 587 949 566 987 q 593 917 594 936 q 520 774 586 833 q 372 726 454 716 m 928 598 q 875 125 966 328 q 625 -35 812 -14 q 496 -16 555 -43 q 427 52 438 11 q 361 -9 412 12 q 245 -23 309 -30 q 168 4 202 -18 q 113 55 134 26 q 78 130 92 84 q 58 215 64 175 q 49 313 52 255 q 47 410 46 370 q 49 508 47 449 q 50 595 50 567 q 92 654 50 639 q 183 670 164 682 q 195 654 191 665 q 214 546 212 604 q 211 423 216 488 q 208 327 206 358 q 207 288 208 320 q 207 237 206 256 q 215 193 208 217 q 237 156 222 168 q 302 161 270 132 q 354 237 335 190 q 379 372 374 290 q 380 549 384 453 q 376 654 376 646 q 412 686 376 677 q 488 685 449 694 q 533 654 526 675 q 534 456 544 621 q 549 195 521 254 q 678 179 583 126 q 703 220 694 187 q 712 307 711 254 q 712 407 713 359 q 707 521 711 454 q 704 617 704 587 q 757 669 704 658 q 866 659 810 681 q 928 598 922 637 z "},"":{"ha":907,"x_min":30,"x_max":868,"o":"m 384 968 q 301 967 349 943 q 251 1035 254 991 q 292 1111 248 1080 q 376 1123 336 1142 q 419 1049 416 1104 q 384 968 422 994 m 617 964 q 551 966 589 943 q 509 1027 513 989 q 537 1087 505 1061 q 601 1097 570 1114 q 642 1034 636 1078 q 617 964 648 989 m 844 871 q 852 53 871 426 q 798 -34 849 -23 q 708 -14 755 -42 q 623 56 661 14 q 547 161 586 99 q 486 267 509 224 q 444 355 464 311 q 392 244 425 321 q 326 107 359 167 q 245 0 292 47 q 180 -23 222 -24 q 106 4 138 -22 q 76 46 87 20 q 63 87 65 72 q 62 143 61 102 q 62 189 62 184 q 62 332 61 221 q 58 487 62 444 q 50 588 56 522 q 43 684 45 654 q 45 772 42 715 q 60 895 49 830 q 105 941 65 928 q 186 941 145 954 q 235 899 227 928 q 253 745 251 844 q 251 538 255 647 q 248 399 247 429 q 339 550 271 452 q 441 647 407 648 q 511 607 477 646 q 583 500 544 568 q 643 404 621 433 q 633 533 635 461 q 633 723 631 605 q 635 871 635 841 q 656 918 635 899 q 707 941 677 937 q 767 941 736 945 q 820 917 798 936 q 844 871 842 898 z "},"":{"ha":971,"x_min":5,"x_max":958,"o":"m 418 724 q 335 723 382 699 q 285 791 288 747 q 326 867 282 836 q 410 879 370 898 q 453 805 450 860 q 418 724 456 750 m 651 720 q 585 722 623 699 q 543 783 547 745 q 571 843 538 817 q 635 853 604 869 q 676 789 670 834 q 651 720 682 745 m 928 598 q 875 125 966 328 q 625 -35 812 -14 q 496 -16 555 -43 q 427 52 438 11 q 361 -9 412 12 q 245 -23 309 -30 q 168 4 202 -18 q 113 55 134 26 q 78 130 92 84 q 58 215 64 175 q 49 313 52 255 q 47 410 46 370 q 49 508 47 449 q 50 595 50 567 q 92 654 50 639 q 183 670 164 682 q 195 654 191 665 q 214 546 212 604 q 211 423 216 488 q 208 327 206 358 q 207 288 208 320 q 207 237 206 256 q 215 193 208 217 q 237 156 222 168 q 302 161 270 132 q 354 237 335 190 q 379 372 374 290 q 380 549 384 453 q 376 654 376 646 q 412 686 376 677 q 488 685 449 694 q 533 654 526 675 q 534 456 544 621 q 549 195 521 254 q 678 179 583 126 q 703 220 694 187 q 712 307 711 254 q 712 407 713 359 q 707 521 711 454 q 704 617 704 587 q 757 669 704 658 q 866 659 810 681 q 928 598 922 637 z "},"":{"ha":802,"x_min":5,"x_max":772,"o":"m 492 983 q 344 1032 410 974 q 271 1175 278 1090 q 323 1233 267 1226 q 441 1194 384 1241 q 475 1154 463 1176 q 492 983 568 993 m 320 460 q 237 533 288 490 q 163 600 187 576 q 106 659 138 623 q 50 736 75 696 q 96 958 -7 829 q 164 994 123 990 q 237 970 205 998 q 342 859 274 937 q 449 745 410 781 q 551 944 494 838 q 716 928 589 1015 q 755 882 743 911 q 758 823 768 852 q 644 508 684 613 q 542 265 604 403 q 408 0 480 127 q 347 -36 393 -27 q 258 -34 301 -45 q 180 -1 209 -24 q 163 50 151 22 q 251 279 199 141 q 320 460 302 416 z "},"":{"ha":677,"x_min":22,"x_max":651,"o":"m 430 667 q 281 716 347 658 q 209 859 216 774 q 260 917 205 910 q 378 878 321 925 q 412 838 400 860 q 430 667 506 677 m 613 609 q 633 476 632 586 q 616 219 635 366 q 564 -38 598 72 q 425 -229 519 -183 q 159 -250 331 -275 q 50 -155 62 -236 q 129 -54 41 -88 q 222 -31 171 -38 q 300 -21 274 -24 q 350 9 326 -18 q 388 92 374 35 q 379 87 385 91 q 370 83 373 84 q 272 58 319 58 q 171 75 225 57 q 87 149 118 91 q 50 285 57 206 q 47 436 43 363 q 62 575 50 509 q 104 654 71 621 q 175 667 138 686 q 227 602 213 647 q 236 509 241 557 q 230 407 231 460 q 237 316 229 354 q 316 258 255 254 q 391 315 369 262 q 420 458 412 369 q 438 579 427 548 q 512 654 458 644 q 613 609 566 665 z "},"":{"ha":776,"x_min":33,"x_max":746,"o":"m 155 604 q 287 616 225 614 q 433 616 349 618 q 567 613 517 613 q 646 602 606 613 q 716 564 686 591 q 738 496 746 536 q 637 408 720 408 l 175 408 q 81 427 121 408 q 38 487 42 445 q 68 564 33 532 q 155 604 103 595 z "},"":{"ha":990,"x_min":31,"x_max":959,"o":"m 153 598 q 332 612 224 609 q 600 614 439 614 q 780 613 760 613 q 859 602 819 613 q 929 564 899 591 q 951 496 959 536 q 852 408 933 408 q 523 405 768 408 q 174 403 278 401 q 80 421 119 403 q 37 481 41 439 q 66 558 31 526 q 153 598 102 590 z "},"":{"ha":355,"x_min":39,"x_max":312,"o":"m 283 726 q 227 686 259 697 q 158 689 194 674 q 99 750 122 704 q 81 785 95 758 q 62 820 66 811 q 49 850 58 829 q 39 882 39 871 q 39 910 39 892 q 47 942 39 928 q 66 971 54 956 q 149 1000 98 1006 q 225 954 201 994 q 256 906 232 941 q 287 857 279 871 q 303 815 294 842 q 307 768 312 788 q 283 726 301 747 z "},"":{"ha":355,"x_min":34,"x_max":307,"o":"m 62 726 q 39 768 45 747 q 43 815 34 788 q 59 857 52 842 q 90 906 66 871 q 121 954 114 941 q 197 1000 145 994 q 279 971 248 1006 q 299 941 292 956 q 307 910 307 926 q 306 882 307 894 q 296 849 305 869 q 283 819 288 829 q 264 785 278 810 q 245 750 251 760 q 186 689 221 704 q 119 686 151 674 q 62 726 87 697 z "},"":{"ha":392,"x_min":23,"x_max":372,"o":"m 300 187 q 340 98 370 180 q 222 -60 311 15 q 141 -113 180 -95 q 79 -83 103 -127 q 46 20 54 -39 q 100 183 23 182 l 300 187 z "},"":{"ha":663,"x_min":47,"x_max":616,"o":"m 609 788 q 576 752 608 762 q 526 758 545 742 q 485 792 521 764 q 440 828 449 821 q 408 861 431 836 q 377 901 384 886 q 363 943 370 917 q 359 996 357 968 q 436 1059 365 1050 q 551 1029 507 1069 q 601 960 586 1000 q 614 880 616 921 q 609 788 612 838 m 309 720 q 270 705 289 708 q 233 712 251 703 q 199 732 214 722 q 165 766 183 743 q 135 804 146 788 q 104 847 123 821 q 76 887 85 873 q 49 962 50 922 q 80 1025 47 1001 q 188 1059 133 1059 q 281 1017 243 1059 q 342 913 319 966 q 360 805 365 860 q 309 720 355 750 z "},"":{"ha":663,"x_min":47,"x_max":616,"o":"m 54 788 q 50 880 52 838 q 62 960 47 921 q 113 1029 77 1000 q 227 1059 156 1069 q 304 996 298 1050 q 300 943 307 968 q 286 901 293 917 q 256 861 279 886 q 223 828 232 836 q 178 792 214 821 q 137 758 142 764 q 87 752 118 742 q 54 788 56 762 m 354 720 q 304 805 308 750 q 322 912 300 860 q 384 1017 345 964 q 476 1059 422 1059 q 583 1025 530 1059 q 614 962 616 1001 q 587 887 613 922 q 559 847 578 873 q 528 804 540 821 q 498 766 517 788 q 465 732 480 743 q 431 712 449 722 q 393 705 412 703 q 354 720 374 708 z "},"":{"ha":718,"x_min":11,"x_max":708,"o":"m 288 187 q 328 98 358 180 q 210 -60 298 15 q 129 -113 168 -95 q 66 -83 91 -127 q 34 20 42 -39 q 88 183 11 182 l 288 187 m 636 190 q 677 100 707 183 q 559 -57 647 18 q 477 -110 517 -92 q 415 -81 439 -125 q 382 23 391 -37 q 437 186 359 184 l 636 190 z "},"":{"ha":667,"x_min":34,"x_max":624,"o":"m 221 624 q 75 659 122 621 q 36 764 38 688 q 75 848 34 840 q 222 863 136 857 q 254 977 232 921 q 298 1010 264 1005 q 362 1001 332 1016 q 433 898 423 975 q 435 877 434 891 q 438 856 437 863 q 488 851 444 856 q 555 844 532 846 q 604 811 585 840 q 624 751 624 783 q 604 693 624 719 q 453 636 551 639 q 420 377 456 477 q 360 323 407 336 q 279 335 313 311 q 258 359 267 343 q 243 397 248 374 q 233 441 237 420 q 227 492 229 461 q 224 539 225 522 q 222 587 222 556 q 221 624 221 618 z "},"":{"ha":625,"x_min":26,"x_max":593,"o":"m 220 811 q 219 851 221 825 q 218 900 217 878 q 229 941 220 922 q 277 1000 248 978 q 336 1015 307 1023 q 380 959 366 1006 q 404 807 401 887 q 551 762 519 798 q 564 668 585 724 q 496 613 544 612 l 404 613 q 408 517 406 576 q 411 433 411 457 q 559 388 528 423 q 572 293 593 350 q 505 237 552 236 q 411 239 475 239 q 410 188 411 228 q 408 127 410 148 q 402 77 407 107 q 387 28 397 46 q 358 0 376 9 q 296 -9 330 -16 q 250 24 263 -3 q 237 48 243 37 q 228 74 232 60 q 221 96 224 88 q 216 121 218 104 q 213 142 214 137 q 211 167 212 148 q 210 190 210 186 q 209 216 209 194 q 209 241 209 239 q 42 292 76 254 q 30 324 34 301 q 29 374 26 347 q 57 419 33 400 q 125 437 81 438 q 151 435 133 437 q 178 432 170 433 q 203 433 187 431 q 205 616 201 536 q 62 654 114 623 q 37 692 47 663 q 35 753 26 720 q 83 796 45 785 q 146 811 122 808 q 180 811 170 814 q 220 811 191 808 z "},"":{"ha":530,"x_min":43,"x_max":484,"o":"m 388 321 q 233 285 321 266 q 96 380 144 304 q 56 553 43 461 q 141 708 68 646 q 293 755 203 765 q 429 671 382 745 q 474 487 484 585 q 388 321 464 389 z "},"":{"ha":1166,"x_min":4,"x_max":1138,"o":"m 1065 221 q 1120 115 1114 179 q 1085 0 1126 52 q 978 -47 1043 -49 q 860 0 913 -45 q 817 71 823 30 q 824 144 811 113 q 860 205 837 175 q 949 254 891 245 q 1065 221 1008 262 m 677 221 q 732 115 726 179 q 697 0 738 52 q 590 -47 655 -49 q 472 0 525 -45 q 429 71 435 30 q 436 144 423 113 q 472 205 449 175 q 562 254 503 245 q 677 221 620 262 m 288 221 q 342 115 336 179 q 308 0 349 52 q 201 -47 266 -49 q 83 0 136 -45 q 40 71 46 30 q 47 144 34 113 q 83 205 60 175 q 172 254 114 245 q 288 221 231 262 z "},"":{"ha":1321,"x_min":28,"x_max":1286,"o":"m 254 30 q 172 62 209 23 q 151 141 134 100 q 198 256 175 203 q 254 368 221 309 q 303 457 286 426 q 366 555 320 488 q 424 640 411 621 q 498 741 437 658 q 571 842 559 825 q 708 917 625 917 q 777 895 746 917 q 796 842 807 872 q 656 530 727 656 q 442 191 585 403 q 353 76 381 102 q 254 30 311 39 m 326 891 q 369 787 373 848 q 321 671 365 727 q 222 602 281 618 q 113 621 164 586 q 41 736 54 666 q 71 863 28 806 q 192 929 117 921 q 326 891 267 937 m 271 817 q 203 824 243 842 q 146 766 163 806 q 162 710 136 739 q 217 692 189 681 q 277 747 256 707 q 271 817 297 787 m 863 321 q 906 217 910 278 q 859 100 902 156 q 760 31 818 47 q 650 50 701 15 q 578 165 591 95 q 609 292 566 235 q 730 359 655 350 q 863 321 804 368 m 808 245 q 740 253 780 271 q 684 195 700 235 q 699 139 673 168 q 754 121 726 110 q 814 176 793 136 q 808 245 834 216 m 1238 312 q 1282 208 1286 269 q 1234 92 1278 148 q 1137 23 1194 39 q 1027 42 1080 7 q 956 157 968 87 q 985 283 943 227 q 1105 350 1031 342 q 1238 312 1180 358 m 1184 237 q 1116 245 1156 263 q 1059 187 1076 227 q 1076 131 1048 160 q 1131 113 1103 102 q 1190 168 1171 127 q 1184 237 1210 208 z "},"":{"ha":464,"x_min":43,"x_max":404,"o":"m 330 258 q 233 289 266 277 q 157 325 201 301 q 87 382 113 349 q 50 463 62 416 q 44 505 45 484 q 50 545 43 526 q 62 581 56 564 q 84 614 69 597 q 111 646 99 632 q 142 677 122 659 q 176 705 163 694 q 213 734 190 716 q 334 781 264 774 q 400 738 401 785 q 366 666 397 697 q 296 617 334 635 q 228 568 259 600 q 195 496 197 537 q 218 448 194 465 q 274 425 243 430 q 339 404 305 419 q 388 362 373 388 q 383 290 404 331 q 330 258 362 248 z "},"":{"ha":464,"x_min":41,"x_max":401,"o":"m 115 780 q 180 760 159 766 q 237 739 201 753 q 292 711 273 724 q 336 678 312 699 q 373 633 359 658 q 395 576 387 608 q 401 534 400 555 q 395 494 401 513 q 382 458 389 475 q 361 425 376 442 q 334 393 346 407 q 302 362 323 380 q 269 334 282 345 q 232 305 255 323 q 111 258 180 264 q 45 301 43 254 q 79 373 47 342 q 149 422 111 404 q 217 471 186 439 q 250 543 248 502 q 227 591 251 574 q 171 613 202 608 q 106 634 140 618 q 57 675 72 650 q 62 748 41 707 q 115 780 83 789 z "},"":{"ha":716,"x_min":20,"x_max":693,"o":"m 140 30 q 58 62 95 23 q 37 141 20 100 q 84 256 61 203 q 140 368 107 309 q 189 457 172 426 q 252 555 206 488 q 310 640 297 621 q 384 741 323 658 q 457 842 445 825 q 594 917 511 917 q 663 895 632 917 q 682 842 693 872 q 542 530 613 656 q 328 191 471 403 q 239 76 267 102 q 140 30 197 39 z "},"":{"ha":488,"x_min":8,"x_max":460,"o":"m 167 774 q 283 787 243 787 q 301 982 288 875 q 327 1004 302 1000 q 363 996 351 1009 q 377 974 373 986 q 382 952 381 962 q 382 926 382 943 q 381 899 381 909 q 385 773 382 838 q 394 770 388 773 q 403 768 400 768 q 441 737 423 761 q 459 692 458 713 q 439 663 460 671 q 408 656 429 661 q 385 651 388 652 q 370 540 380 590 q 332 505 366 517 q 301 511 305 492 q 286 637 289 591 q 47 671 194 635 q 47 764 8 682 q 117 899 87 850 q 199 1002 146 947 q 236 1010 212 1016 q 258 986 260 1004 q 252 958 255 971 q 245 932 250 945 q 237 909 240 918 q 227 885 233 899 q 217 865 220 871 q 205 842 214 859 q 194 821 197 826 q 180 798 191 817 q 167 774 170 779 z "},"":{"ha":921,"x_min":5,"x_max":880,"o":"m 388 901 q 460 922 423 918 q 523 923 496 926 q 600 909 549 920 q 655 884 621 903 q 721 838 689 865 q 762 779 753 810 q 746 716 772 747 q 654 688 692 656 q 538 758 595 736 q 428 764 481 779 q 342 692 374 750 q 313 629 323 658 q 575 609 450 625 q 591 608 578 609 q 613 605 605 606 q 631 602 621 604 q 646 595 642 600 q 650 583 651 590 q 600 500 643 544 q 521 458 556 457 q 296 464 486 460 q 298 439 297 456 q 298 412 298 422 q 496 396 458 396 q 490 370 505 396 q 452 318 475 345 q 420 292 430 292 l 332 292 q 533 171 389 193 q 628 176 585 164 q 696 208 671 189 q 755 248 722 228 q 821 271 789 267 q 862 255 844 274 q 875 213 880 236 q 766 62 852 122 q 624 3 703 18 q 450 12 545 -12 q 271 104 355 35 q 157 294 190 172 q 42 308 84 300 q 39 357 7 315 q 121 414 75 401 q 133 416 127 416 l 140 416 q 138 469 138 434 q 46 475 76 472 q 28 532 7 479 q 96 613 50 586 q 129 625 114 624 q 146 627 134 627 q 163 628 157 627 q 191 708 174 666 q 267 821 222 779 q 388 901 312 863 z "},"":{"ha":941,"x_min":3,"x_max":922,"o":"m 640 810 q 519 864 604 859 q 399 822 435 869 q 372 764 384 802 q 516 757 418 762 q 671 750 614 751 q 640 810 658 788 m 412 301 q 404 132 414 224 q 373 0 395 39 q 294 -41 349 -42 q 208 0 239 -41 q 174 57 187 27 q 154 127 160 87 q 146 191 148 168 q 142 267 144 213 q 140 335 140 321 q 131 466 137 376 q 123 601 125 556 q 33 658 65 604 q 33 734 4 707 q 62 747 43 745 l 127 755 q 161 926 136 836 q 179 955 167 944 q 207 970 191 966 q 242 975 222 974 q 281 976 262 977 q 320 977 300 975 q 412 985 351 978 q 503 993 472 991 q 580 986 533 994 q 670 956 627 978 q 807 749 776 903 q 826 749 814 749 q 844 750 838 750 q 905 716 888 750 q 914 648 922 682 q 890 612 906 613 q 854 608 882 610 q 814 604 827 605 q 699 355 795 435 q 553 294 639 307 q 412 301 468 282 m 372 594 q 373 589 372 593 q 374 585 374 586 q 431 465 393 513 q 519 414 468 418 q 637 461 593 408 q 690 597 682 514 q 372 594 624 594 z "},"":{"ha":1185,"x_min":42,"x_max":1176,"o":"m 1040 798 q 970 792 1006 817 q 924 726 933 768 q 951 677 917 696 q 1012 675 986 659 q 1058 737 1046 696 q 1040 798 1070 779 m 879 625 q 844 750 827 678 q 937 884 869 859 q 1093 861 1001 907 q 1126 670 1176 819 q 1016 587 1103 604 q 879 625 929 571 m 576 442 q 569 615 570 506 q 579 821 568 724 q 604 901 587 880 q 667 925 621 921 q 752 895 723 929 q 792 770 781 861 q 803 619 799 705 q 808 435 807 533 q 808 267 808 338 q 806 106 807 197 q 804 0 804 15 q 733 -35 802 -38 q 633 0 665 -31 q 449 205 525 109 q 288 430 373 301 q 293 264 293 372 q 296 104 293 156 q 273 33 297 66 q 217 -19 250 -1 q 150 -34 184 -37 q 96 0 115 -31 q 64 80 73 38 q 58 160 56 122 q 58 250 61 198 q 50 395 56 298 q 43 536 45 491 q 45 659 42 582 q 58 812 47 735 q 151 929 71 897 q 283 905 239 963 q 576 442 453 681 z "},"":{"ha":663,"x_min":38,"x_max":617,"o":"m 605 675 q 599 669 605 675 q 575 663 593 663 q 545 675 557 663 q 533 705 533 688 l 533 850 l 492 808 q 460 798 479 796 q 433 808 442 799 l 392 850 l 392 705 q 380 675 392 688 q 350 663 368 663 q 320 675 332 663 q 308 705 308 688 l 308 917 q 283 909 298 909 l 222 909 l 222 705 q 210 675 222 688 q 180 663 198 663 q 151 675 163 663 q 138 705 138 688 l 138 909 l 79 909 q 50 921 61 909 q 38 951 38 933 q 50 981 38 968 q 79 993 61 993 l 283 993 q 316 975 301 993 q 317 977 316 977 q 319 978 319 977 q 349 992 330 991 q 380 981 368 993 l 463 897 l 545 981 q 572 991 553 989 q 604 981 591 993 q 617 951 617 968 l 617 705 q 605 675 617 688 z "},"":{"ha":945,"x_min":24,"x_max":917,"o":"m 155 205 q 90 271 155 205 q 24 521 24 336 q 155 836 24 705 q 471 967 286 967 q 786 836 655 967 q 917 521 917 705 q 786 205 917 336 q 471 75 655 75 q 155 205 286 75 m 753 354 q 772 435 783 396 q 713 486 761 475 q 661 473 689 491 q 608 431 632 456 q 539 384 583 406 q 444 362 495 362 q 382 380 410 362 q 340 419 355 397 q 302 465 324 441 q 259 499 281 490 q 205 504 236 511 q 175 472 175 496 q 308 266 174 328 q 553 241 415 214 q 753 354 690 267 m 582 757 q 567 742 582 757 q 552 685 552 727 q 582 613 552 643 q 654 583 612 583 q 725 613 696 583 q 754 685 754 643 q 725 757 754 727 q 654 787 696 787 q 582 757 612 787 m 236 757 q 221 742 236 757 q 206 685 206 727 q 236 613 206 643 q 308 583 266 583 q 379 613 350 583 q 408 685 408 643 q 379 757 408 727 q 308 787 350 787 q 236 757 266 787 z "},"":{"ha":760,"x_min":9,"x_max":792,"o":"m 454 890 q 646 654 585 811 q 625 92 792 288 q 460 -21 545 0 q 271 -5 376 -42 q 75 162 141 34 q 50 408 9 290 q 191 547 81 502 q 446 551 301 593 q 362 665 435 612 q 321 691 340 680 q 275 715 301 703 q 231 738 248 728 q 184 762 199 754 q 153 783 168 770 q 137 808 138 796 q 167 930 125 883 q 279 959 209 977 q 326 945 308 952 q 454 890 401 921 m 225 346 q 263 146 176 210 q 374 112 312 109 q 475 163 435 115 q 516 281 518 213 q 463 388 514 350 q 322 427 393 438 q 225 346 251 415 z "},"":{"ha":939,"x_min":42,"x_max":895,"o":"m 380 688 q 336 581 354 627 q 308 507 319 534 q 283 435 297 480 q 264 378 269 391 q 242 299 260 365 q 217 209 224 233 q 209 178 210 186 q 205 153 208 171 q 208 123 203 134 q 225 104 213 113 q 271 81 248 87 q 332 78 294 76 q 384 79 369 80 q 436 74 404 77 q 486 69 468 71 q 531 71 505 68 q 583 83 557 73 q 595 155 610 94 q 523 376 571 247 q 458 555 475 505 q 444 604 453 570 q 397 709 414 709 q 380 688 389 709 m 92 0 q 58 44 66 20 q 46 109 50 68 q 71 233 42 157 q 138 422 98 307 q 202 602 179 538 q 267 761 225 666 q 358 949 308 856 q 407 989 374 979 q 471 983 439 998 q 519 947 499 971 q 549 907 540 924 q 575 850 557 891 q 665 650 600 795 q 755 448 731 506 q 819 276 780 389 q 887 46 859 163 q 867 -12 895 12 q 796 -46 840 -37 q 573 -70 716 -65 q 287 -58 430 -75 q 92 0 144 -41 z "},"":{"ha":895,"x_min":15,"x_max":878,"o":"m 808 1010 q 859 993 841 1010 q 878 941 878 974 q 859 891 878 910 q 808 872 840 872 l 765 872 l 765 -286 q 746 -336 765 -317 q 699 -355 727 -355 q 648 -336 667 -355 q 629 -286 629 -317 l 629 872 l 266 872 l 266 -286 q 247 -336 266 -317 q 195 -355 228 -355 q 148 -336 170 -355 q 127 -286 127 -317 l 127 872 l 85 872 q 35 891 57 872 q 15 941 15 909 q 35 993 15 974 q 85 1010 54 1010 l 808 1010 z "},"":{"ha":662,"x_min":23,"x_max":637,"o":"m 94 -355 q 45 -336 64 -355 q 23 -285 23 -315 q 41 -231 23 -266 l 354 328 l 41 886 q 35 899 39 888 q 28 913 30 909 q 23 943 23 929 q 43 991 23 971 q 94 1010 62 1010 l 570 1010 q 620 993 602 1010 q 637 941 637 975 q 620 891 637 909 q 570 872 601 872 l 208 872 l 487 374 q 500 330 500 351 q 487 281 500 305 l 208 -217 l 570 -217 q 620 -236 601 -217 q 637 -286 637 -254 q 620 -336 637 -319 q 570 -355 601 -355 l 94 -355 z "},"":{"ha":788,"x_min":16,"x_max":773,"o":"m 241 505 q 312 449 292 505 l 381 255 l 639 971 q 665 1006 647 994 q 704 1019 684 1019 q 751 1000 728 1019 q 773 948 773 982 l 773 933 q 768 914 773 928 l 445 43 q 418 7 437 19 q 380 -7 397 -7 q 342 7 362 -7 q 313 43 323 19 l 194 365 l 85 365 q 37 384 58 365 q 16 433 16 401 q 37 484 16 464 q 85 505 57 505 l 241 505 z "},"":{"ha":1027,"x_min":31,"x_max":991,"o":"m 388 631 q 282 639 336 652 q 195 579 228 625 q 182 485 171 547 q 231 408 194 423 q 333 400 282 387 q 416 458 384 414 q 439 555 446 499 q 388 631 433 612 m 968 543 q 920 326 991 419 q 704 227 848 232 q 492 308 568 222 q 309 243 420 247 q 140 288 213 240 q 52 422 68 335 q 73 640 31 540 q 216 766 114 739 q 374 765 294 787 q 509 688 454 743 q 610 750 551 735 q 765 751 688 770 q 899 675 842 731 q 968 543 955 620 m 783 614 q 677 623 731 636 q 590 563 623 609 q 581 465 566 525 q 625 392 595 406 q 728 384 677 370 q 811 442 779 397 q 834 539 841 483 q 783 614 827 595 z "},"":{"ha":507,"x_min":15,"x_max":498,"o":"m 327 -118 q 309 -218 327 -175 q 259 -293 292 -263 q 184 -339 227 -324 q 85 -355 140 -355 q 34 -338 52 -355 q 15 -288 15 -319 q 35 -236 15 -256 q 84 -217 54 -217 q 157 -191 130 -217 q 186 -117 186 -165 l 186 845 q 203 944 186 901 q 252 1020 224 993 q 328 1066 285 1050 q 426 1082 373 1082 q 479 1063 460 1082 q 498 1015 498 1044 q 477 963 498 983 q 427 943 457 943 q 355 917 382 943 q 327 844 327 890 l 327 -118 z "},"":{"ha":955,"x_min":38,"x_max":909,"o":"m 199 179 q 89 196 140 171 q 42 271 38 221 q 292 475 62 483 q 401 448 355 472 q 472 391 448 425 q 514 326 496 358 q 551 270 532 293 q 595 245 571 247 q 669 263 646 243 q 693 310 692 283 q 704 365 694 336 q 738 404 713 393 q 844 423 784 427 q 905 374 903 419 q 868 205 909 281 q 750 125 827 129 q 634 131 704 122 q 525 155 564 140 q 450 201 481 172 q 404 251 418 229 q 364 288 389 273 q 304 300 339 302 q 255 279 271 297 q 236 239 239 260 q 225 200 233 218 q 199 179 217 182 m 199 509 q 89 525 140 500 q 42 600 38 549 q 292 804 62 812 q 401 778 355 802 q 472 721 448 754 q 514 655 496 688 q 551 600 532 623 q 595 575 571 576 q 669 593 646 572 q 693 640 692 613 q 704 694 694 666 q 738 734 713 723 q 844 753 784 757 q 905 704 903 749 q 868 534 909 610 q 750 454 827 458 q 633 460 703 452 q 525 483 564 468 q 450 529 481 500 q 404 580 418 557 q 364 617 389 602 q 304 629 339 632 q 255 608 271 627 q 236 569 239 590 q 225 530 233 548 q 199 509 217 511 z "},"":{"ha":606,"x_min":24,"x_max":568,"o":"m 517 256 q 332 243 423 236 q 312 199 319 213 q 293 162 300 174 q 271 138 286 151 q 237 127 256 126 q 171 162 197 130 q 155 231 145 194 q 159 250 157 244 q 157 250 157 250 l 155 248 q 50 304 80 244 q 56 392 26 354 q 113 419 75 418 q 208 420 151 420 q 220 463 212 434 q 233 507 228 492 q 83 507 141 510 q 37 549 50 506 q 41 637 24 593 q 96 682 57 682 q 296 688 123 682 q 324 769 308 724 q 404 811 338 811 q 465 769 442 811 q 465 700 476 747 q 461 682 464 693 q 513 678 481 681 q 550 642 540 677 q 548 570 560 606 q 509 528 536 533 q 422 513 456 515 q 396 416 406 448 q 521 407 422 414 q 558 370 548 406 q 556 298 568 335 q 517 256 544 262 z "},"":{"ha":666,"x_min":34,"x_max":631,"o":"m 138 164 q 296 163 239 160 q 422 160 353 165 q 578 136 491 155 q 618 104 606 130 q 628 47 631 79 q 562 0 623 5 q 429 -7 491 -7 q 291 -3 368 -7 q 159 0 214 0 q 68 20 102 0 q 34 75 34 41 q 60 138 34 110 q 138 164 85 165 m 126 349 q 73 395 92 369 q 54 455 54 422 q 58 519 53 488 q 86 593 64 551 q 127 665 109 635 q 180 741 145 696 q 234 811 214 787 q 289 878 254 836 q 372 926 321 917 q 471 921 422 935 q 572 878 521 907 q 599 833 597 863 q 589 776 601 804 q 556 724 576 747 q 513 686 549 716 q 445 627 476 655 q 392 556 414 598 q 381 477 370 514 q 457 385 392 437 q 574 294 522 332 q 614 240 625 256 q 526 200 589 201 q 382 229 463 199 q 242 288 302 259 q 126 349 182 317 z "},"":{"ha":666,"x_min":34,"x_max":631,"o":"m 138 164 q 296 163 239 160 q 422 160 353 165 q 578 136 491 155 q 618 104 606 130 q 628 47 631 79 q 562 0 623 5 q 429 -7 491 -7 q 291 -3 368 -7 q 159 0 214 0 q 68 20 102 0 q 34 75 34 41 q 60 138 34 110 q 138 164 85 165 m 545 769 q 598 722 579 749 q 618 663 617 696 q 613 599 618 631 q 586 526 608 567 q 546 452 564 484 q 494 376 528 420 q 439 307 460 332 q 384 240 418 281 q 301 192 351 201 q 201 197 251 183 q 100 240 152 210 q 74 284 76 255 q 84 342 72 313 q 117 395 96 372 q 178 446 119 399 q 271 543 237 494 q 292 640 305 593 q 216 733 281 681 q 99 823 151 785 q 58 878 47 861 q 147 918 84 917 q 290 888 210 918 q 430 829 370 859 q 545 769 490 800 z "},"":{"ha":576,"x_min":45,"x_max":534,"o":"m 534 506 q 530 479 534 494 l 354 0 q 328 -35 346 -23 q 289 -47 309 -47 q 224 -1 240 -47 l 49 475 q 45 505 45 488 l 45 519 l 49 536 l 224 1010 q 289 1058 240 1058 q 328 1047 312 1058 q 354 1010 346 1035 l 530 530 q 534 506 534 514 m 392 506 l 289 784 l 184 506 l 288 228 l 392 506 z "},"":{"ha":680,"x_min":24,"x_max":701,"o":"m 439 692 q 625 682 562 686 q 507 496 701 678 q 564 273 536 404 q 537 256 571 244 q 458 304 500 269 q 351 384 411 343 q 264 339 321 368 q 186 300 208 311 q 76 308 76 243 q 117 438 76 343 q 151 530 136 483 q 41 655 85 589 q 60 692 24 678 q 133 704 95 705 q 209 703 184 704 q 288 846 240 781 q 355 843 315 884 q 420 741 396 802 q 439 692 430 718 z "},"":{"ha":1001,"x_min":22,"x_max":959,"o":"m 941 175 q 941 146 941 170 q 941 116 941 122 q 938 92 940 110 q 932 64 936 73 q 921 42 928 56 q 905 16 914 28 q 770 -16 865 -31 q 667 54 677 -1 q 652 153 656 110 q 648 244 647 195 q 650 315 650 293 q 659 406 651 336 q 670 503 667 475 q 732 598 677 575 q 825 591 776 616 q 907 519 875 566 q 934 471 925 495 q 945 413 943 448 q 948 353 948 378 q 945 271 948 328 q 941 175 943 213 m 861 674 q 686 715 754 637 q 644 806 650 757 q 670 899 639 854 q 849 936 724 974 q 958 811 954 903 q 933 726 959 762 q 861 674 907 690 m 179 692 q 210 810 184 761 q 288 917 235 859 q 429 971 355 993 q 546 917 502 951 q 613 821 590 883 q 533 684 636 754 q 492 675 515 673 q 449 686 469 678 q 411 692 429 694 q 388 671 393 690 q 370 598 377 639 q 433 593 391 597 q 491 587 476 589 q 546 528 534 583 q 525 442 557 473 q 456 401 492 411 q 366 389 420 392 q 369 342 366 380 q 372 292 372 305 q 374 245 373 278 q 374 195 376 213 q 371 149 373 176 q 365 98 369 122 q 354 50 361 73 q 323 -11 343 9 q 281 -32 302 -31 q 238 -25 259 -33 q 203 -4 217 -18 q 187 20 190 9 q 167 369 164 149 q 83 404 127 372 q 28 514 35 439 q 75 595 22 589 q 174 602 155 601 q 177 650 175 620 q 179 692 179 680 z "},"":{"ha":1165,"x_min":22,"x_max":1127,"o":"m 684 886 q 755 947 699 944 q 820 937 792 949 q 853 894 848 924 q 867 736 869 788 q 857 593 864 684 q 853 433 849 502 q 854 385 853 423 q 857 329 856 346 q 863 282 859 312 q 877 231 868 252 q 899 190 886 209 q 948 153 920 160 q 1012 142 977 146 q 1076 119 1047 138 q 1086 113 1078 118 q 1097 104 1095 107 q 1107 97 1100 102 q 1116 89 1114 92 q 1122 80 1119 85 q 1126 68 1126 75 q 1127 56 1127 62 q 1069 -31 1124 -22 q 932 -41 996 -46 q 803 0 869 -35 q 735 63 757 24 q 700 164 713 102 q 682 254 689 212 q 671 342 674 296 q 667 416 667 389 q 665 505 666 444 q 663 597 665 567 q 661 743 659 671 q 684 886 663 814 m 179 692 q 210 810 184 761 q 288 917 235 859 q 429 971 355 993 q 546 917 502 951 q 613 821 590 883 q 533 684 636 754 q 492 675 515 673 q 449 686 469 678 q 411 692 429 694 q 388 671 393 690 q 370 598 377 639 q 433 593 391 597 q 491 587 476 589 q 546 528 534 583 q 525 442 557 473 q 456 401 492 411 q 366 389 420 392 q 369 342 366 380 q 372 292 372 305 q 374 245 373 278 q 374 195 376 213 q 371 149 373 176 q 365 98 369 122 q 354 50 361 73 q 323 -11 343 9 q 281 -32 302 -31 q 238 -25 259 -33 q 203 -4 217 -18 q 187 20 190 9 q 167 369 164 149 q 83 404 127 372 q 28 514 35 439 q 75 595 22 589 q 174 602 155 601 q 177 650 175 620 q 179 692 179 680 z "}}}
